<?xml version="1.0" encoding="utf-8"?>
<!DOCTYPE svg PUBLIC "-//W3C//DTD SVG 1.1//EN" "http://www.w3.org/Graphics/SVG/1.1/DTD/svg11.dtd"><svg version="1.1" id="Layer_1" xmlns="http://www.w3.org/2000/svg" xmlns:xlink="http://www.w3.org/1999/xlink" x="0px" y="0px"
	 width="32px" height="32px" viewBox="0 0 32 32" enable-background="new 0 0 32 32"
	 xml:space="preserve"><rect width="1" height="1" x="23" y="6" style="fill: #000000; fill-opacity: 1"></rect>
<rect width="1" height="1" x="24" y="6" style="fill: #000000; fill-opacity: 1"></rect>
<rect width="1" height="1" x="22" y="7" style="fill: #000000; fill-opacity: 1"></rect>
<rect width="1" height="1" x="23" y="7" style="fill: #4884d4; fill-opacity: 1"></rect>
<rect width="1" height="1" x="24" y="7" style="fill: #4884d4; fill-opacity: 1"></rect>
<rect width="1" height="1" x="25" y="7" style="fill: #000000; fill-opacity: 1"></rect>
<rect width="1" height="1" x="22" y="8" style="fill: #000000; fill-opacity: 1"></rect>
<rect width="1" height="1" x="23" y="8" style="fill: #425bbd; fill-opacity: 1"></rect>
<rect width="1" height="1" x="24" y="8" style="fill: #425bbd; fill-opacity: 1"></rect>
<rect width="1" height="1" x="25" y="8" style="fill: #4884d4; fill-opacity: 1"></rect>
<rect width="1" height="1" x="26" y="8" style="fill: #000000; fill-opacity: 1"></rect>
<rect width="1" height="1" x="23" y="9" style="fill: #000000; fill-opacity: 1"></rect>
<rect width="1" height="1" x="24" y="9" style="fill: #425bbd; fill-opacity: 1"></rect>
<rect width="1" height="1" x="25" y="9" style="fill: #425bbd; fill-opacity: 1"></rect>
<rect width="1" height="1" x="26" y="9" style="fill: #4884d4; fill-opacity: 1"></rect>
<rect width="1" height="1" x="27" y="9" style="fill: #000000; fill-opacity: 1"></rect>
<rect width="1" height="1" x="8" y="10" style="fill: #000000; fill-opacity: 1"></rect>
<rect width="1" height="1" x="9" y="10" style="fill: #000000; fill-opacity: 1"></rect>
<rect width="1" height="1" x="10" y="10" style="fill: #000000; fill-opacity: 1"></rect>
<rect width="1" height="1" x="11" y="10" style="fill: #000000; fill-opacity: 1"></rect>
<rect width="1" height="1" x="12" y="10" style="fill: #000000; fill-opacity: 1"></rect>
<rect width="1" height="1" x="13" y="10" style="fill: #000000; fill-opacity: 1"></rect>
<rect width="1" height="1" x="14" y="10" style="fill: #000000; fill-opacity: 1"></rect>
<rect width="1" height="1" x="15" y="10" style="fill: #000000; fill-opacity: 1"></rect>
<rect width="1" height="1" x="16" y="10" style="fill: #000000; fill-opacity: 1"></rect>
<rect width="1" height="1" x="17" y="10" style="fill: #000000; fill-opacity: 1"></rect>
<rect width="1" height="1" x="18" y="10" style="fill: #000000; fill-opacity: 1"></rect>
<rect width="1" height="1" x="19" y="10" style="fill: #000000; fill-opacity: 1"></rect>
<rect width="1" height="1" x="20" y="10" style="fill: #000000; fill-opacity: 1"></rect>
<rect width="1" height="1" x="21" y="10" style="fill: #000000; fill-opacity: 1"></rect>
<rect width="1" height="1" x="22" y="10" style="fill: #000000; fill-opacity: 1"></rect>
<rect width="1" height="1" x="23" y="10" style="fill: #000000; fill-opacity: 1"></rect>
<rect width="1" height="1" x="24" y="10" style="fill: #000000; fill-opacity: 1"></rect>
<rect width="1" height="1" x="25" y="10" style="fill: #425bbd; fill-opacity: 1"></rect>
<rect width="1" height="1" x="26" y="10" style="fill: #425bbd; fill-opacity: 1"></rect>
<rect width="1" height="1" x="27" y="10" style="fill: #4884d4; fill-opacity: 1"></rect>
<rect width="1" height="1" x="28" y="10" style="fill: #000000; fill-opacity: 1"></rect>
<rect width="1" height="1" x="7" y="11" style="fill: #000000; fill-opacity: 1"></rect>
<rect width="1" height="1" x="8" y="11" style="fill: #4884d4; fill-opacity: 1"></rect>
<rect width="1" height="1" x="9" y="11" style="fill: #4884d4; fill-opacity: 1"></rect>
<rect width="1" height="1" x="10" y="11" style="fill: #4884d4; fill-opacity: 1"></rect>
<rect width="1" height="1" x="11" y="11" style="fill: #4884d4; fill-opacity: 1"></rect>
<rect width="1" height="1" x="12" y="11" style="fill: #4884d4; fill-opacity: 1"></rect>
<rect width="1" height="1" x="13" y="11" style="fill: #4884d4; fill-opacity: 1"></rect>
<rect width="1" height="1" x="14" y="11" style="fill: #4884d4; fill-opacity: 1"></rect>
<rect width="1" height="1" x="15" y="11" style="fill: #4884d4; fill-opacity: 1"></rect>
<rect width="1" height="1" x="16" y="11" style="fill: #4884d4; fill-opacity: 1"></rect>
<rect width="1" height="1" x="17" y="11" style="fill: #4884d4; fill-opacity: 1"></rect>
<rect width="1" height="1" x="18" y="11" style="fill: #4884d4; fill-opacity: 1"></rect>
<rect width="1" height="1" x="19" y="11" style="fill: #4884d4; fill-opacity: 1"></rect>
<rect width="1" height="1" x="20" y="11" style="fill: #4884d4; fill-opacity: 1"></rect>
<rect width="1" height="1" x="21" y="11" style="fill: #4884d4; fill-opacity: 1"></rect>
<rect width="1" height="1" x="22" y="11" style="fill: #4884d4; fill-opacity: 1"></rect>
<rect width="1" height="1" x="23" y="11" style="fill: #4884d4; fill-opacity: 1"></rect>
<rect width="1" height="1" x="24" y="11" style="fill: #4884d4; fill-opacity: 1"></rect>
<rect width="1" height="1" x="25" y="11" style="fill: #425bbd; fill-opacity: 1"></rect>
<rect width="1" height="1" x="26" y="11" style="fill: #425bbd; fill-opacity: 1"></rect>
<rect width="1" height="1" x="27" y="11" style="fill: #425bbd; fill-opacity: 1"></rect>
<rect width="1" height="1" x="28" y="11" style="fill: #000000; fill-opacity: 1"></rect>
<rect width="1" height="1" x="7" y="12" style="fill: #000000; fill-opacity: 1"></rect>
<rect width="1" height="1" x="8" y="12" style="fill: #425bbd; fill-opacity: 1"></rect>
<rect width="1" height="1" x="9" y="12" style="fill: #425bbd; fill-opacity: 1"></rect>
<rect width="1" height="1" x="10" y="12" style="fill: #425bbd; fill-opacity: 1"></rect>
<rect width="1" height="1" x="11" y="12" style="fill: #425bbd; fill-opacity: 1"></rect>
<rect width="1" height="1" x="12" y="12" style="fill: #425bbd; fill-opacity: 1"></rect>
<rect width="1" height="1" x="13" y="12" style="fill: #425bbd; fill-opacity: 1"></rect>
<rect width="1" height="1" x="14" y="12" style="fill: #425bbd; fill-opacity: 1"></rect>
<rect width="1" height="1" x="15" y="12" style="fill: #425bbd; fill-opacity: 1"></rect>
<rect width="1" height="1" x="16" y="12" style="fill: #425bbd; fill-opacity: 1"></rect>
<rect width="1" height="1" x="17" y="12" style="fill: #425bbd; fill-opacity: 1"></rect>
<rect width="1" height="1" x="18" y="12" style="fill: #425bbd; fill-opacity: 1"></rect>
<rect width="1" height="1" x="19" y="12" style="fill: #425bbd; fill-opacity: 1"></rect>
<rect width="1" height="1" x="20" y="12" style="fill: #425bbd; fill-opacity: 1"></rect>
<rect width="1" height="1" x="21" y="12" style="fill: #425bbd; fill-opacity: 1"></rect>
<rect width="1" height="1" x="22" y="12" style="fill: #425bbd; fill-opacity: 1"></rect>
<rect width="1" height="1" x="23" y="12" style="fill: #425bbd; fill-opacity: 1"></rect>
<rect width="1" height="1" x="24" y="12" style="fill: #425bbd; fill-opacity: 1"></rect>
<rect width="1" height="1" x="25" y="12" style="fill: #425bbd; fill-opacity: 1"></rect>
<rect width="1" height="1" x="26" y="12" style="fill: #425bbd; fill-opacity: 1"></rect>
<rect width="1" height="1" x="27" y="12" style="fill: #425bbd; fill-opacity: 1"></rect>
<rect width="1" height="1" x="28" y="12" style="fill: #000000; fill-opacity: 1"></rect>
<rect width="1" height="1" x="8" y="13" style="fill: #000000; fill-opacity: 1"></rect>
<rect width="1" height="1" x="9" y="13" style="fill: #000000; fill-opacity: 1"></rect>
<rect width="1" height="1" x="10" y="13" style="fill: #000000; fill-opacity: 1"></rect>
<rect width="1" height="1" x="11" y="13" style="fill: #000000; fill-opacity: 1"></rect>
<rect width="1" height="1" x="12" y="13" style="fill: #000000; fill-opacity: 1"></rect>
<rect width="1" height="1" x="13" y="13" style="fill: #000000; fill-opacity: 1"></rect>
<rect width="1" height="1" x="14" y="13" style="fill: #000000; fill-opacity: 1"></rect>
<rect width="1" height="1" x="15" y="13" style="fill: #000000; fill-opacity: 1"></rect>
<rect width="1" height="1" x="16" y="13" style="fill: #000000; fill-opacity: 1"></rect>
<rect width="1" height="1" x="17" y="13" style="fill: #000000; fill-opacity: 1"></rect>
<rect width="1" height="1" x="18" y="13" style="fill: #000000; fill-opacity: 1"></rect>
<rect width="1" height="1" x="19" y="13" style="fill: #000000; fill-opacity: 1"></rect>
<rect width="1" height="1" x="20" y="13" style="fill: #000000; fill-opacity: 1"></rect>
<rect width="1" height="1" x="21" y="13" style="fill: #000000; fill-opacity: 1"></rect>
<rect width="1" height="1" x="22" y="13" style="fill: #000000; fill-opacity: 1"></rect>
<rect width="1" height="1" x="23" y="13" style="fill: #000000; fill-opacity: 1"></rect>
<rect width="1" height="1" x="24" y="13" style="fill: #000000; fill-opacity: 1"></rect>
<rect width="1" height="1" x="25" y="13" style="fill: #425bbd; fill-opacity: 1"></rect>
<rect width="1" height="1" x="26" y="13" style="fill: #425bbd; fill-opacity: 1"></rect>
<rect width="1" height="1" x="27" y="13" style="fill: #425bbd; fill-opacity: 1"></rect>
<rect width="1" height="1" x="28" y="13" style="fill: #000000; fill-opacity: 1"></rect>
<rect width="1" height="1" x="7" y="14" style="fill: #000000; fill-opacity: 1"></rect>
<rect width="1" height="1" x="8" y="14" style="fill: #000000; fill-opacity: 1"></rect>
<rect width="1" height="1" x="23" y="14" style="fill: #000000; fill-opacity: 1"></rect>
<rect width="1" height="1" x="24" y="14" style="fill: #454194; fill-opacity: 1"></rect>
<rect width="1" height="1" x="25" y="14" style="fill: #425bbd; fill-opacity: 1"></rect>
<rect width="1" height="1" x="26" y="14" style="fill: #425bbd; fill-opacity: 1"></rect>
<rect width="1" height="1" x="27" y="14" style="fill: #000000; fill-opacity: 1"></rect>
<rect width="1" height="1" x="6" y="15" style="fill: #000000; fill-opacity: 1"></rect>
<rect width="1" height="1" x="7" y="15" style="fill: #c56876; fill-opacity: 1"></rect>
<rect width="1" height="1" x="8" y="15" style="fill: #c56876; fill-opacity: 1"></rect>
<rect width="1" height="1" x="9" y="15" style="fill: #000000; fill-opacity: 1"></rect>
<rect width="1" height="1" x="22" y="15" style="fill: #000000; fill-opacity: 1"></rect>
<rect width="1" height="1" x="23" y="15" style="fill: #454194; fill-opacity: 1"></rect>
<rect width="1" height="1" x="24" y="15" style="fill: #454194; fill-opacity: 1"></rect>
<rect width="1" height="1" x="25" y="15" style="fill: #454194; fill-opacity: 1"></rect>
<rect width="1" height="1" x="26" y="15" style="fill: #000000; fill-opacity: 1"></rect>
<rect width="1" height="1" x="5" y="16" style="fill: #000000; fill-opacity: 1"></rect>
<rect width="1" height="1" x="6" y="16" style="fill: #c56876; fill-opacity: 1"></rect>
<rect width="1" height="1" x="7" y="16" style="fill: #bd515a; fill-opacity: 1"></rect>
<rect width="1" height="1" x="8" y="16" style="fill: #bd515a; fill-opacity: 1"></rect>
<rect width="1" height="1" x="9" y="16" style="fill: #000000; fill-opacity: 1"></rect>
<rect width="1" height="1" x="22" y="16" style="fill: #000000; fill-opacity: 1"></rect>
<rect width="1" height="1" x="23" y="16" style="fill: #454194; fill-opacity: 1"></rect>
<rect width="1" height="1" x="24" y="16" style="fill: #454194; fill-opacity: 1"></rect>
<rect width="1" height="1" x="25" y="16" style="fill: #000000; fill-opacity: 1"></rect>
<rect width="1" height="1" x="4" y="17" style="fill: #000000; fill-opacity: 1"></rect>
<rect width="1" height="1" x="5" y="17" style="fill: #c56876; fill-opacity: 1"></rect>
<rect width="1" height="1" x="6" y="17" style="fill: #bd515a; fill-opacity: 1"></rect>
<rect width="1" height="1" x="7" y="17" style="fill: #bd515a; fill-opacity: 1"></rect>
<rect width="1" height="1" x="8" y="17" style="fill: #000000; fill-opacity: 1"></rect>
<rect width="1" height="1" x="23" y="17" style="fill: #000000; fill-opacity: 1"></rect>
<rect width="1" height="1" x="24" y="17" style="fill: #000000; fill-opacity: 1"></rect>
<rect width="1" height="1" x="3" y="18" style="fill: #000000; fill-opacity: 1"></rect>
<rect width="1" height="1" x="4" y="18" style="fill: #c56876; fill-opacity: 1"></rect>
<rect width="1" height="1" x="5" y="18" style="fill: #bd515a; fill-opacity: 1"></rect>
<rect width="1" height="1" x="6" y="18" style="fill: #bd515a; fill-opacity: 1"></rect>
<rect width="1" height="1" x="7" y="18" style="fill: #000000; fill-opacity: 1"></rect>
<rect width="1" height="1" x="8" y="18" style="fill: #000000; fill-opacity: 1"></rect>
<rect width="1" height="1" x="9" y="18" style="fill: #000000; fill-opacity: 1"></rect>
<rect width="1" height="1" x="10" y="18" style="fill: #000000; fill-opacity: 1"></rect>
<rect width="1" height="1" x="11" y="18" style="fill: #000000; fill-opacity: 1"></rect>
<rect width="1" height="1" x="12" y="18" style="fill: #000000; fill-opacity: 1"></rect>
<rect width="1" height="1" x="13" y="18" style="fill: #000000; fill-opacity: 1"></rect>
<rect width="1" height="1" x="14" y="18" style="fill: #000000; fill-opacity: 1"></rect>
<rect width="1" height="1" x="15" y="18" style="fill: #000000; fill-opacity: 1"></rect>
<rect width="1" height="1" x="16" y="18" style="fill: #000000; fill-opacity: 1"></rect>
<rect width="1" height="1" x="17" y="18" style="fill: #000000; fill-opacity: 1"></rect>
<rect width="1" height="1" x="18" y="18" style="fill: #000000; fill-opacity: 1"></rect>
<rect width="1" height="1" x="19" y="18" style="fill: #000000; fill-opacity: 1"></rect>
<rect width="1" height="1" x="20" y="18" style="fill: #000000; fill-opacity: 1"></rect>
<rect width="1" height="1" x="21" y="18" style="fill: #000000; fill-opacity: 1"></rect>
<rect width="1" height="1" x="22" y="18" style="fill: #000000; fill-opacity: 1"></rect>
<rect width="1" height="1" x="23" y="18" style="fill: #000000; fill-opacity: 1"></rect>
<rect width="1" height="1" x="3" y="19" style="fill: #000000; fill-opacity: 1"></rect>
<rect width="1" height="1" x="4" y="19" style="fill: #bd515a; fill-opacity: 1"></rect>
<rect width="1" height="1" x="5" y="19" style="fill: #bd515a; fill-opacity: 1"></rect>
<rect width="1" height="1" x="6" y="19" style="fill: #bd515a; fill-opacity: 1"></rect>
<rect width="1" height="1" x="7" y="19" style="fill: #c56876; fill-opacity: 1"></rect>
<rect width="1" height="1" x="8" y="19" style="fill: #c56876; fill-opacity: 1"></rect>
<rect width="1" height="1" x="9" y="19" style="fill: #c56876; fill-opacity: 1"></rect>
<rect width="1" height="1" x="10" y="19" style="fill: #c56876; fill-opacity: 1"></rect>
<rect width="1" height="1" x="11" y="19" style="fill: #c56876; fill-opacity: 1"></rect>
<rect width="1" height="1" x="12" y="19" style="fill: #c56876; fill-opacity: 1"></rect>
<rect width="1" height="1" x="13" y="19" style="fill: #c56876; fill-opacity: 1"></rect>
<rect width="1" height="1" x="14" y="19" style="fill: #c56876; fill-opacity: 1"></rect>
<rect width="1" height="1" x="15" y="19" style="fill: #c56876; fill-opacity: 1"></rect>
<rect width="1" height="1" x="16" y="19" style="fill: #c56876; fill-opacity: 1"></rect>
<rect width="1" height="1" x="17" y="19" style="fill: #c56876; fill-opacity: 1"></rect>
<rect width="1" height="1" x="18" y="19" style="fill: #c56876; fill-opacity: 1"></rect>
<rect width="1" height="1" x="19" y="19" style="fill: #c56876; fill-opacity: 1"></rect>
<rect width="1" height="1" x="20" y="19" style="fill: #c56876; fill-opacity: 1"></rect>
<rect width="1" height="1" x="21" y="19" style="fill: #c56876; fill-opacity: 1"></rect>
<rect width="1" height="1" x="22" y="19" style="fill: #c56876; fill-opacity: 1"></rect>
<rect width="1" height="1" x="23" y="19" style="fill: #c56876; fill-opacity: 1"></rect>
<rect width="1" height="1" x="24" y="19" style="fill: #000000; fill-opacity: 1"></rect>
<rect width="1" height="1" x="3" y="20" style="fill: #000000; fill-opacity: 1"></rect>
<rect width="1" height="1" x="4" y="20" style="fill: #bd515a; fill-opacity: 1"></rect>
<rect width="1" height="1" x="5" y="20" style="fill: #bd515a; fill-opacity: 1"></rect>
<rect width="1" height="1" x="6" y="20" style="fill: #bd515a; fill-opacity: 1"></rect>
<rect width="1" height="1" x="7" y="20" style="fill: #bd515a; fill-opacity: 1"></rect>
<rect width="1" height="1" x="8" y="20" style="fill: #bd515a; fill-opacity: 1"></rect>
<rect width="1" height="1" x="9" y="20" style="fill: #bd515a; fill-opacity: 1"></rect>
<rect width="1" height="1" x="10" y="20" style="fill: #bd515a; fill-opacity: 1"></rect>
<rect width="1" height="1" x="11" y="20" style="fill: #bd515a; fill-opacity: 1"></rect>
<rect width="1" height="1" x="12" y="20" style="fill: #bd515a; fill-opacity: 1"></rect>
<rect width="1" height="1" x="13" y="20" style="fill: #bd515a; fill-opacity: 1"></rect>
<rect width="1" height="1" x="14" y="20" style="fill: #bd515a; fill-opacity: 1"></rect>
<rect width="1" height="1" x="15" y="20" style="fill: #bd515a; fill-opacity: 1"></rect>
<rect width="1" height="1" x="16" y="20" style="fill: #bd515a; fill-opacity: 1"></rect>
<rect width="1" height="1" x="17" y="20" style="fill: #bd515a; fill-opacity: 1"></rect>
<rect width="1" height="1" x="18" y="20" style="fill: #bd515a; fill-opacity: 1"></rect>
<rect width="1" height="1" x="19" y="20" style="fill: #bd515a; fill-opacity: 1"></rect>
<rect width="1" height="1" x="20" y="20" style="fill: #bd515a; fill-opacity: 1"></rect>
<rect width="1" height="1" x="21" y="20" style="fill: #bd515a; fill-opacity: 1"></rect>
<rect width="1" height="1" x="22" y="20" style="fill: #bd515a; fill-opacity: 1"></rect>
<rect width="1" height="1" x="23" y="20" style="fill: #bd515a; fill-opacity: 1"></rect>
<rect width="1" height="1" x="24" y="20" style="fill: #000000; fill-opacity: 1"></rect>
<rect width="1" height="1" x="3" y="21" style="fill: #000000; fill-opacity: 1"></rect>
<rect width="1" height="1" x="4" y="21" style="fill: #bd515a; fill-opacity: 1"></rect>
<rect width="1" height="1" x="5" y="21" style="fill: #bd515a; fill-opacity: 1"></rect>
<rect width="1" height="1" x="6" y="21" style="fill: #bd515a; fill-opacity: 1"></rect>
<rect width="1" height="1" x="7" y="21" style="fill: #000000; fill-opacity: 1"></rect>
<rect width="1" height="1" x="8" y="21" style="fill: #000000; fill-opacity: 1"></rect>
<rect width="1" height="1" x="9" y="21" style="fill: #000000; fill-opacity: 1"></rect>
<rect width="1" height="1" x="10" y="21" style="fill: #000000; fill-opacity: 1"></rect>
<rect width="1" height="1" x="11" y="21" style="fill: #000000; fill-opacity: 1"></rect>
<rect width="1" height="1" x="12" y="21" style="fill: #000000; fill-opacity: 1"></rect>
<rect width="1" height="1" x="13" y="21" style="fill: #000000; fill-opacity: 1"></rect>
<rect width="1" height="1" x="14" y="21" style="fill: #000000; fill-opacity: 1"></rect>
<rect width="1" height="1" x="15" y="21" style="fill: #000000; fill-opacity: 1"></rect>
<rect width="1" height="1" x="16" y="21" style="fill: #000000; fill-opacity: 1"></rect>
<rect width="1" height="1" x="17" y="21" style="fill: #000000; fill-opacity: 1"></rect>
<rect width="1" height="1" x="18" y="21" style="fill: #000000; fill-opacity: 1"></rect>
<rect width="1" height="1" x="19" y="21" style="fill: #000000; fill-opacity: 1"></rect>
<rect width="1" height="1" x="20" y="21" style="fill: #000000; fill-opacity: 1"></rect>
<rect width="1" height="1" x="21" y="21" style="fill: #000000; fill-opacity: 1"></rect>
<rect width="1" height="1" x="22" y="21" style="fill: #000000; fill-opacity: 1"></rect>
<rect width="1" height="1" x="23" y="21" style="fill: #000000; fill-opacity: 1"></rect>
<rect width="1" height="1" x="4" y="22" style="fill: #000000; fill-opacity: 1"></rect>
<rect width="1" height="1" x="5" y="22" style="fill: #bd515a; fill-opacity: 1"></rect>
<rect width="1" height="1" x="6" y="22" style="fill: #bd515a; fill-opacity: 1"></rect>
<rect width="1" height="1" x="7" y="22" style="fill: #903d62; fill-opacity: 1"></rect>
<rect width="1" height="1" x="8" y="22" style="fill: #000000; fill-opacity: 1"></rect>
<rect width="1" height="1" x="5" y="23" style="fill: #000000; fill-opacity: 1"></rect>
<rect width="1" height="1" x="6" y="23" style="fill: #903d62; fill-opacity: 1"></rect>
<rect width="1" height="1" x="7" y="23" style="fill: #903d62; fill-opacity: 1"></rect>
<rect width="1" height="1" x="8" y="23" style="fill: #903d62; fill-opacity: 1"></rect>
<rect width="1" height="1" x="9" y="23" style="fill: #000000; fill-opacity: 1"></rect>
<rect width="1" height="1" x="6" y="24" style="fill: #000000; fill-opacity: 1"></rect>
<rect width="1" height="1" x="7" y="24" style="fill: #903d62; fill-opacity: 1"></rect>
<rect width="1" height="1" x="8" y="24" style="fill: #903d62; fill-opacity: 1"></rect>
<rect width="1" height="1" x="9" y="24" style="fill: #000000; fill-opacity: 1"></rect>
<rect width="1" height="1" x="7" y="25" style="fill: #000000; fill-opacity: 1"></rect>
<rect width="1" height="1" x="8" y="25" style="fill: #000000; fill-opacity: 1"></rect>
</svg>