<?xml version="1.0" encoding="utf-8"?>
<!DOCTYPE svg PUBLIC "-//W3C//DTD SVG 1.1//EN" "http://www.w3.org/Graphics/SVG/1.1/DTD/svg11.dtd"><svg version="1.1" id="Layer_1" xmlns="http://www.w3.org/2000/svg" xmlns:xlink="http://www.w3.org/1999/xlink" x="0px" y="0px"
	 width="32px" height="32px" viewBox="0 0 32 32" enable-background="new 0 0 32 32"
	 xml:space="preserve"><rect width="1" height="1" x="6" y="0" style="fill: #000000; fill-opacity: 1"></rect>
<rect width="1" height="1" x="7" y="0" style="fill: #000000; fill-opacity: 1"></rect>
<rect width="1" height="1" x="8" y="0" style="fill: #000000; fill-opacity: 1"></rect>
<rect width="1" height="1" x="9" y="0" style="fill: #000000; fill-opacity: 1"></rect>
<rect width="1" height="1" x="10" y="0" style="fill: #000000; fill-opacity: 1"></rect>
<rect width="1" height="1" x="11" y="0" style="fill: #000000; fill-opacity: 1"></rect>
<rect width="1" height="1" x="12" y="0" style="fill: #000000; fill-opacity: 1"></rect>
<rect width="1" height="1" x="13" y="0" style="fill: #000000; fill-opacity: 1"></rect>
<rect width="1" height="1" x="6" y="1" style="fill: #000000; fill-opacity: 1"></rect>
<rect width="1" height="1" x="7" y="1" style="fill: #000000; fill-opacity: 1"></rect>
<rect width="1" height="1" x="8" y="1" style="fill: #000000; fill-opacity: 1"></rect>
<rect width="1" height="1" x="9" y="1" style="fill: #000000; fill-opacity: 1"></rect>
<rect width="1" height="1" x="10" y="1" style="fill: #000000; fill-opacity: 1"></rect>
<rect width="1" height="1" x="11" y="1" style="fill: #000000; fill-opacity: 1"></rect>
<rect width="1" height="1" x="12" y="1" style="fill: #000000; fill-opacity: 1"></rect>
<rect width="1" height="1" x="13" y="1" style="fill: #000000; fill-opacity: 1"></rect>
<rect width="1" height="1" x="4" y="2" style="fill: #000000; fill-opacity: 1"></rect>
<rect width="1" height="1" x="5" y="2" style="fill: #000000; fill-opacity: 1"></rect>
<rect width="1" height="1" x="6" y="2" style="fill: #eb9f7f; fill-opacity: 1"></rect>
<rect width="1" height="1" x="7" y="2" style="fill: #eb9f7f; fill-opacity: 1"></rect>
<rect width="1" height="1" x="8" y="2" style="fill: #eb9f7f; fill-opacity: 1"></rect>
<rect width="1" height="1" x="9" y="2" style="fill: #eb9f7f; fill-opacity: 1"></rect>
<rect width="1" height="1" x="10" y="2" style="fill: #eb9f7f; fill-opacity: 1"></rect>
<rect width="1" height="1" x="11" y="2" style="fill: #eb9f7f; fill-opacity: 1"></rect>
<rect width="1" height="1" x="12" y="2" style="fill: #eb9f7f; fill-opacity: 1"></rect>
<rect width="1" height="1" x="13" y="2" style="fill: #eb9f7f; fill-opacity: 1"></rect>
<rect width="1" height="1" x="14" y="2" style="fill: #000000; fill-opacity: 1"></rect>
<rect width="1" height="1" x="15" y="2" style="fill: #000000; fill-opacity: 1"></rect>
<rect width="1" height="1" x="4" y="3" style="fill: #000000; fill-opacity: 1"></rect>
<rect width="1" height="1" x="5" y="3" style="fill: #000000; fill-opacity: 1"></rect>
<rect width="1" height="1" x="6" y="3" style="fill: #eb9f7f; fill-opacity: 1"></rect>
<rect width="1" height="1" x="7" y="3" style="fill: #eb9f7f; fill-opacity: 1"></rect>
<rect width="1" height="1" x="8" y="3" style="fill: #eb9f7f; fill-opacity: 1"></rect>
<rect width="1" height="1" x="9" y="3" style="fill: #eb9f7f; fill-opacity: 1"></rect>
<rect width="1" height="1" x="10" y="3" style="fill: #eb9f7f; fill-opacity: 1"></rect>
<rect width="1" height="1" x="11" y="3" style="fill: #eb9f7f; fill-opacity: 1"></rect>
<rect width="1" height="1" x="12" y="3" style="fill: #eb9f7f; fill-opacity: 1"></rect>
<rect width="1" height="1" x="13" y="3" style="fill: #eb9f7f; fill-opacity: 1"></rect>
<rect width="1" height="1" x="14" y="3" style="fill: #000000; fill-opacity: 1"></rect>
<rect width="1" height="1" x="15" y="3" style="fill: #000000; fill-opacity: 1"></rect>
<rect width="1" height="1" x="2" y="4" style="fill: #000000; fill-opacity: 1"></rect>
<rect width="1" height="1" x="3" y="4" style="fill: #000000; fill-opacity: 1"></rect>
<rect width="1" height="1" x="4" y="4" style="fill: #d17f6b; fill-opacity: 1"></rect>
<rect width="1" height="1" x="5" y="4" style="fill: #d17f6b; fill-opacity: 1"></rect>
<rect width="1" height="1" x="6" y="4" style="fill: #d17f6b; fill-opacity: 1"></rect>
<rect width="1" height="1" x="7" y="4" style="fill: #d17f6b; fill-opacity: 1"></rect>
<rect width="1" height="1" x="8" y="4" style="fill: #d17f6b; fill-opacity: 1"></rect>
<rect width="1" height="1" x="9" y="4" style="fill: #d17f6b; fill-opacity: 1"></rect>
<rect width="1" height="1" x="10" y="4" style="fill: #d17f6b; fill-opacity: 1"></rect>
<rect width="1" height="1" x="11" y="4" style="fill: #d17f6b; fill-opacity: 1"></rect>
<rect width="1" height="1" x="12" y="4" style="fill: #d17f6b; fill-opacity: 1"></rect>
<rect width="1" height="1" x="13" y="4" style="fill: #d17f6b; fill-opacity: 1"></rect>
<rect width="1" height="1" x="14" y="4" style="fill: #eb9f7f; fill-opacity: 1"></rect>
<rect width="1" height="1" x="15" y="4" style="fill: #eb9f7f; fill-opacity: 1"></rect>
<rect width="1" height="1" x="16" y="4" style="fill: #000000; fill-opacity: 1"></rect>
<rect width="1" height="1" x="17" y="4" style="fill: #000000; fill-opacity: 1"></rect>
<rect width="1" height="1" x="2" y="5" style="fill: #000000; fill-opacity: 1"></rect>
<rect width="1" height="1" x="3" y="5" style="fill: #000000; fill-opacity: 1"></rect>
<rect width="1" height="1" x="4" y="5" style="fill: #d17f6b; fill-opacity: 1"></rect>
<rect width="1" height="1" x="5" y="5" style="fill: #d17f6b; fill-opacity: 1"></rect>
<rect width="1" height="1" x="6" y="5" style="fill: #d17f6b; fill-opacity: 1"></rect>
<rect width="1" height="1" x="7" y="5" style="fill: #d17f6b; fill-opacity: 1"></rect>
<rect width="1" height="1" x="8" y="5" style="fill: #d17f6b; fill-opacity: 1"></rect>
<rect width="1" height="1" x="9" y="5" style="fill: #d17f6b; fill-opacity: 1"></rect>
<rect width="1" height="1" x="10" y="5" style="fill: #d17f6b; fill-opacity: 1"></rect>
<rect width="1" height="1" x="11" y="5" style="fill: #d17f6b; fill-opacity: 1"></rect>
<rect width="1" height="1" x="12" y="5" style="fill: #d17f6b; fill-opacity: 1"></rect>
<rect width="1" height="1" x="13" y="5" style="fill: #d17f6b; fill-opacity: 1"></rect>
<rect width="1" height="1" x="14" y="5" style="fill: #eb9f7f; fill-opacity: 1"></rect>
<rect width="1" height="1" x="15" y="5" style="fill: #eb9f7f; fill-opacity: 1"></rect>
<rect width="1" height="1" x="16" y="5" style="fill: #000000; fill-opacity: 1"></rect>
<rect width="1" height="1" x="17" y="5" style="fill: #000000; fill-opacity: 1"></rect>
<rect width="1" height="1" x="2" y="6" style="fill: #000000; fill-opacity: 1"></rect>
<rect width="1" height="1" x="3" y="6" style="fill: #000000; fill-opacity: 1"></rect>
<rect width="1" height="1" x="4" y="6" style="fill: #d17f6b; fill-opacity: 1"></rect>
<rect width="1" height="1" x="5" y="6" style="fill: #d17f6b; fill-opacity: 1"></rect>
<rect width="1" height="1" x="6" y="6" style="fill: #eb9f7f; fill-opacity: 1"></rect>
<rect width="1" height="1" x="7" y="6" style="fill: #eb9f7f; fill-opacity: 1"></rect>
<rect width="1" height="1" x="8" y="6" style="fill: #000000; fill-opacity: 1"></rect>
<rect width="1" height="1" x="9" y="6" style="fill: #000000; fill-opacity: 1"></rect>
<rect width="1" height="1" x="10" y="6" style="fill: #000000; fill-opacity: 1"></rect>
<rect width="1" height="1" x="11" y="6" style="fill: #000000; fill-opacity: 1"></rect>
<rect width="1" height="1" x="12" y="6" style="fill: #d17f6b; fill-opacity: 1"></rect>
<rect width="1" height="1" x="13" y="6" style="fill: #d17f6b; fill-opacity: 1"></rect>
<rect width="1" height="1" x="14" y="6" style="fill: #eb9f7f; fill-opacity: 1"></rect>
<rect width="1" height="1" x="15" y="6" style="fill: #eb9f7f; fill-opacity: 1"></rect>
<rect width="1" height="1" x="16" y="6" style="fill: #000000; fill-opacity: 1"></rect>
<rect width="1" height="1" x="17" y="6" style="fill: #000000; fill-opacity: 1"></rect>
<rect width="1" height="1" x="2" y="7" style="fill: #000000; fill-opacity: 1"></rect>
<rect width="1" height="1" x="3" y="7" style="fill: #000000; fill-opacity: 1"></rect>
<rect width="1" height="1" x="4" y="7" style="fill: #d17f6b; fill-opacity: 1"></rect>
<rect width="1" height="1" x="5" y="7" style="fill: #d17f6b; fill-opacity: 1"></rect>
<rect width="1" height="1" x="6" y="7" style="fill: #eb9f7f; fill-opacity: 1"></rect>
<rect width="1" height="1" x="7" y="7" style="fill: #eb9f7f; fill-opacity: 1"></rect>
<rect width="1" height="1" x="8" y="7" style="fill: #000000; fill-opacity: 1"></rect>
<rect width="1" height="1" x="9" y="7" style="fill: #000000; fill-opacity: 1"></rect>
<rect width="1" height="1" x="10" y="7" style="fill: #000000; fill-opacity: 1"></rect>
<rect width="1" height="1" x="11" y="7" style="fill: #000000; fill-opacity: 1"></rect>
<rect width="1" height="1" x="12" y="7" style="fill: #d17f6b; fill-opacity: 1"></rect>
<rect width="1" height="1" x="13" y="7" style="fill: #d17f6b; fill-opacity: 1"></rect>
<rect width="1" height="1" x="14" y="7" style="fill: #eb9f7f; fill-opacity: 1"></rect>
<rect width="1" height="1" x="15" y="7" style="fill: #eb9f7f; fill-opacity: 1"></rect>
<rect width="1" height="1" x="16" y="7" style="fill: #000000; fill-opacity: 1"></rect>
<rect width="1" height="1" x="17" y="7" style="fill: #000000; fill-opacity: 1"></rect>
<rect width="1" height="1" x="2" y="8" style="fill: #000000; fill-opacity: 1"></rect>
<rect width="1" height="1" x="3" y="8" style="fill: #000000; fill-opacity: 1"></rect>
<rect width="1" height="1" x="4" y="8" style="fill: #945848; fill-opacity: 1"></rect>
<rect width="1" height="1" x="5" y="8" style="fill: #945848; fill-opacity: 1"></rect>
<rect width="1" height="1" x="6" y="8" style="fill: #eb9f7f; fill-opacity: 1"></rect>
<rect width="1" height="1" x="7" y="8" style="fill: #eb9f7f; fill-opacity: 1"></rect>
<rect width="1" height="1" x="8" y="8" style="fill: #000000; fill-opacity: 1"></rect>
<rect width="1" height="1" x="9" y="8" style="fill: #000000; fill-opacity: 1"></rect>
<rect width="1" height="1" x="10" y="8" style="fill: #000000; fill-opacity: 1"></rect>
<rect width="1" height="1" x="11" y="8" style="fill: #000000; fill-opacity: 1"></rect>
<rect width="1" height="1" x="12" y="8" style="fill: #d17f6b; fill-opacity: 1"></rect>
<rect width="1" height="1" x="13" y="8" style="fill: #d17f6b; fill-opacity: 1"></rect>
<rect width="1" height="1" x="14" y="8" style="fill: #eb9f7f; fill-opacity: 1"></rect>
<rect width="1" height="1" x="15" y="8" style="fill: #eb9f7f; fill-opacity: 1"></rect>
<rect width="1" height="1" x="16" y="8" style="fill: #000000; fill-opacity: 1"></rect>
<rect width="1" height="1" x="17" y="8" style="fill: #000000; fill-opacity: 1"></rect>
<rect width="1" height="1" x="2" y="9" style="fill: #000000; fill-opacity: 1"></rect>
<rect width="1" height="1" x="3" y="9" style="fill: #000000; fill-opacity: 1"></rect>
<rect width="1" height="1" x="4" y="9" style="fill: #945848; fill-opacity: 1"></rect>
<rect width="1" height="1" x="5" y="9" style="fill: #945848; fill-opacity: 1"></rect>
<rect width="1" height="1" x="6" y="9" style="fill: #eb9f7f; fill-opacity: 1"></rect>
<rect width="1" height="1" x="7" y="9" style="fill: #eb9f7f; fill-opacity: 1"></rect>
<rect width="1" height="1" x="8" y="9" style="fill: #000000; fill-opacity: 1"></rect>
<rect width="1" height="1" x="9" y="9" style="fill: #000000; fill-opacity: 1"></rect>
<rect width="1" height="1" x="10" y="9" style="fill: #000000; fill-opacity: 1"></rect>
<rect width="1" height="1" x="11" y="9" style="fill: #000000; fill-opacity: 1"></rect>
<rect width="1" height="1" x="12" y="9" style="fill: #d17f6b; fill-opacity: 1"></rect>
<rect width="1" height="1" x="13" y="9" style="fill: #d17f6b; fill-opacity: 1"></rect>
<rect width="1" height="1" x="14" y="9" style="fill: #eb9f7f; fill-opacity: 1"></rect>
<rect width="1" height="1" x="15" y="9" style="fill: #eb9f7f; fill-opacity: 1"></rect>
<rect width="1" height="1" x="16" y="9" style="fill: #000000; fill-opacity: 1"></rect>
<rect width="1" height="1" x="17" y="9" style="fill: #000000; fill-opacity: 1"></rect>
<rect width="1" height="1" x="2" y="10" style="fill: #000000; fill-opacity: 1"></rect>
<rect width="1" height="1" x="3" y="10" style="fill: #000000; fill-opacity: 1"></rect>
<rect width="1" height="1" x="4" y="10" style="fill: #945848; fill-opacity: 1"></rect>
<rect width="1" height="1" x="5" y="10" style="fill: #945848; fill-opacity: 1"></rect>
<rect width="1" height="1" x="6" y="10" style="fill: #d17f6b; fill-opacity: 1"></rect>
<rect width="1" height="1" x="7" y="10" style="fill: #d17f6b; fill-opacity: 1"></rect>
<rect width="1" height="1" x="8" y="10" style="fill: #eb9f7f; fill-opacity: 1"></rect>
<rect width="1" height="1" x="9" y="10" style="fill: #eb9f7f; fill-opacity: 1"></rect>
<rect width="1" height="1" x="10" y="10" style="fill: #eb9f7f; fill-opacity: 1"></rect>
<rect width="1" height="1" x="11" y="10" style="fill: #eb9f7f; fill-opacity: 1"></rect>
<rect width="1" height="1" x="12" y="10" style="fill: #d17f6b; fill-opacity: 1"></rect>
<rect width="1" height="1" x="13" y="10" style="fill: #d17f6b; fill-opacity: 1"></rect>
<rect width="1" height="1" x="14" y="10" style="fill: #eb9f7f; fill-opacity: 1"></rect>
<rect width="1" height="1" x="15" y="10" style="fill: #eb9f7f; fill-opacity: 1"></rect>
<rect width="1" height="1" x="16" y="10" style="fill: #000000; fill-opacity: 1"></rect>
<rect width="1" height="1" x="17" y="10" style="fill: #000000; fill-opacity: 1"></rect>
<rect width="1" height="1" x="2" y="11" style="fill: #000000; fill-opacity: 1"></rect>
<rect width="1" height="1" x="3" y="11" style="fill: #000000; fill-opacity: 1"></rect>
<rect width="1" height="1" x="4" y="11" style="fill: #945848; fill-opacity: 1"></rect>
<rect width="1" height="1" x="5" y="11" style="fill: #945848; fill-opacity: 1"></rect>
<rect width="1" height="1" x="6" y="11" style="fill: #d17f6b; fill-opacity: 1"></rect>
<rect width="1" height="1" x="7" y="11" style="fill: #d17f6b; fill-opacity: 1"></rect>
<rect width="1" height="1" x="8" y="11" style="fill: #eb9f7f; fill-opacity: 1"></rect>
<rect width="1" height="1" x="9" y="11" style="fill: #eb9f7f; fill-opacity: 1"></rect>
<rect width="1" height="1" x="10" y="11" style="fill: #eb9f7f; fill-opacity: 1"></rect>
<rect width="1" height="1" x="11" y="11" style="fill: #eb9f7f; fill-opacity: 1"></rect>
<rect width="1" height="1" x="12" y="11" style="fill: #d17f6b; fill-opacity: 1"></rect>
<rect width="1" height="1" x="13" y="11" style="fill: #d17f6b; fill-opacity: 1"></rect>
<rect width="1" height="1" x="14" y="11" style="fill: #eb9f7f; fill-opacity: 1"></rect>
<rect width="1" height="1" x="15" y="11" style="fill: #eb9f7f; fill-opacity: 1"></rect>
<rect width="1" height="1" x="16" y="11" style="fill: #000000; fill-opacity: 1"></rect>
<rect width="1" height="1" x="17" y="11" style="fill: #000000; fill-opacity: 1"></rect>
<rect width="1" height="1" x="4" y="12" style="fill: #000000; fill-opacity: 1"></rect>
<rect width="1" height="1" x="5" y="12" style="fill: #000000; fill-opacity: 1"></rect>
<rect width="1" height="1" x="6" y="12" style="fill: #945848; fill-opacity: 1"></rect>
<rect width="1" height="1" x="7" y="12" style="fill: #945848; fill-opacity: 1"></rect>
<rect width="1" height="1" x="8" y="12" style="fill: #945848; fill-opacity: 1"></rect>
<rect width="1" height="1" x="9" y="12" style="fill: #945848; fill-opacity: 1"></rect>
<rect width="1" height="1" x="10" y="12" style="fill: #d17f6b; fill-opacity: 1"></rect>
<rect width="1" height="1" x="11" y="12" style="fill: #d17f6b; fill-opacity: 1"></rect>
<rect width="1" height="1" x="12" y="12" style="fill: #d17f6b; fill-opacity: 1"></rect>
<rect width="1" height="1" x="13" y="12" style="fill: #d17f6b; fill-opacity: 1"></rect>
<rect width="1" height="1" x="14" y="12" style="fill: #d17f6b; fill-opacity: 1"></rect>
<rect width="1" height="1" x="15" y="12" style="fill: #d17f6b; fill-opacity: 1"></rect>
<rect width="1" height="1" x="16" y="12" style="fill: #eb9f7f; fill-opacity: 1"></rect>
<rect width="1" height="1" x="17" y="12" style="fill: #eb9f7f; fill-opacity: 1"></rect>
<rect width="1" height="1" x="18" y="12" style="fill: #000000; fill-opacity: 1"></rect>
<rect width="1" height="1" x="19" y="12" style="fill: #000000; fill-opacity: 1"></rect>
<rect width="1" height="1" x="4" y="13" style="fill: #000000; fill-opacity: 1"></rect>
<rect width="1" height="1" x="5" y="13" style="fill: #000000; fill-opacity: 1"></rect>
<rect width="1" height="1" x="6" y="13" style="fill: #945848; fill-opacity: 1"></rect>
<rect width="1" height="1" x="7" y="13" style="fill: #945848; fill-opacity: 1"></rect>
<rect width="1" height="1" x="8" y="13" style="fill: #945848; fill-opacity: 1"></rect>
<rect width="1" height="1" x="9" y="13" style="fill: #945848; fill-opacity: 1"></rect>
<rect width="1" height="1" x="10" y="13" style="fill: #d17f6b; fill-opacity: 1"></rect>
<rect width="1" height="1" x="11" y="13" style="fill: #d17f6b; fill-opacity: 1"></rect>
<rect width="1" height="1" x="12" y="13" style="fill: #d17f6b; fill-opacity: 1"></rect>
<rect width="1" height="1" x="13" y="13" style="fill: #d17f6b; fill-opacity: 1"></rect>
<rect width="1" height="1" x="14" y="13" style="fill: #d17f6b; fill-opacity: 1"></rect>
<rect width="1" height="1" x="15" y="13" style="fill: #d17f6b; fill-opacity: 1"></rect>
<rect width="1" height="1" x="16" y="13" style="fill: #eb9f7f; fill-opacity: 1"></rect>
<rect width="1" height="1" x="17" y="13" style="fill: #eb9f7f; fill-opacity: 1"></rect>
<rect width="1" height="1" x="18" y="13" style="fill: #000000; fill-opacity: 1"></rect>
<rect width="1" height="1" x="19" y="13" style="fill: #000000; fill-opacity: 1"></rect>
<rect width="1" height="1" x="6" y="14" style="fill: #000000; fill-opacity: 1"></rect>
<rect width="1" height="1" x="7" y="14" style="fill: #000000; fill-opacity: 1"></rect>
<rect width="1" height="1" x="8" y="14" style="fill: #000000; fill-opacity: 1"></rect>
<rect width="1" height="1" x="9" y="14" style="fill: #000000; fill-opacity: 1"></rect>
<rect width="1" height="1" x="10" y="14" style="fill: #000000; fill-opacity: 1"></rect>
<rect width="1" height="1" x="11" y="14" style="fill: #000000; fill-opacity: 1"></rect>
<rect width="1" height="1" x="12" y="14" style="fill: #000000; fill-opacity: 1"></rect>
<rect width="1" height="1" x="13" y="14" style="fill: #000000; fill-opacity: 1"></rect>
<rect width="1" height="1" x="14" y="14" style="fill: #945848; fill-opacity: 1"></rect>
<rect width="1" height="1" x="15" y="14" style="fill: #945848; fill-opacity: 1"></rect>
<rect width="1" height="1" x="16" y="14" style="fill: #d17f6b; fill-opacity: 1"></rect>
<rect width="1" height="1" x="17" y="14" style="fill: #d17f6b; fill-opacity: 1"></rect>
<rect width="1" height="1" x="18" y="14" style="fill: #eb9f7f; fill-opacity: 1"></rect>
<rect width="1" height="1" x="19" y="14" style="fill: #eb9f7f; fill-opacity: 1"></rect>
<rect width="1" height="1" x="20" y="14" style="fill: #000000; fill-opacity: 1"></rect>
<rect width="1" height="1" x="21" y="14" style="fill: #000000; fill-opacity: 1"></rect>
<rect width="1" height="1" x="6" y="15" style="fill: #000000; fill-opacity: 1"></rect>
<rect width="1" height="1" x="7" y="15" style="fill: #000000; fill-opacity: 1"></rect>
<rect width="1" height="1" x="8" y="15" style="fill: #000000; fill-opacity: 1"></rect>
<rect width="1" height="1" x="9" y="15" style="fill: #000000; fill-opacity: 1"></rect>
<rect width="1" height="1" x="10" y="15" style="fill: #000000; fill-opacity: 1"></rect>
<rect width="1" height="1" x="11" y="15" style="fill: #000000; fill-opacity: 1"></rect>
<rect width="1" height="1" x="12" y="15" style="fill: #000000; fill-opacity: 1"></rect>
<rect width="1" height="1" x="13" y="15" style="fill: #000000; fill-opacity: 1"></rect>
<rect width="1" height="1" x="14" y="15" style="fill: #945848; fill-opacity: 1"></rect>
<rect width="1" height="1" x="15" y="15" style="fill: #945848; fill-opacity: 1"></rect>
<rect width="1" height="1" x="16" y="15" style="fill: #d17f6b; fill-opacity: 1"></rect>
<rect width="1" height="1" x="17" y="15" style="fill: #d17f6b; fill-opacity: 1"></rect>
<rect width="1" height="1" x="18" y="15" style="fill: #eb9f7f; fill-opacity: 1"></rect>
<rect width="1" height="1" x="19" y="15" style="fill: #eb9f7f; fill-opacity: 1"></rect>
<rect width="1" height="1" x="20" y="15" style="fill: #000000; fill-opacity: 1"></rect>
<rect width="1" height="1" x="21" y="15" style="fill: #000000; fill-opacity: 1"></rect>
<rect width="1" height="1" x="14" y="16" style="fill: #000000; fill-opacity: 1"></rect>
<rect width="1" height="1" x="15" y="16" style="fill: #000000; fill-opacity: 1"></rect>
<rect width="1" height="1" x="16" y="16" style="fill: #d17f6b; fill-opacity: 1"></rect>
<rect width="1" height="1" x="17" y="16" style="fill: #d17f6b; fill-opacity: 1"></rect>
<rect width="1" height="1" x="18" y="16" style="fill: #d17f6b; fill-opacity: 1"></rect>
<rect width="1" height="1" x="19" y="16" style="fill: #d17f6b; fill-opacity: 1"></rect>
<rect width="1" height="1" x="20" y="16" style="fill: #eb9f7f; fill-opacity: 1"></rect>
<rect width="1" height="1" x="21" y="16" style="fill: #eb9f7f; fill-opacity: 1"></rect>
<rect width="1" height="1" x="22" y="16" style="fill: #000000; fill-opacity: 1"></rect>
<rect width="1" height="1" x="23" y="16" style="fill: #000000; fill-opacity: 1"></rect>
<rect width="1" height="1" x="14" y="17" style="fill: #000000; fill-opacity: 1"></rect>
<rect width="1" height="1" x="15" y="17" style="fill: #000000; fill-opacity: 1"></rect>
<rect width="1" height="1" x="16" y="17" style="fill: #d17f6b; fill-opacity: 1"></rect>
<rect width="1" height="1" x="17" y="17" style="fill: #d17f6b; fill-opacity: 1"></rect>
<rect width="1" height="1" x="18" y="17" style="fill: #d17f6b; fill-opacity: 1"></rect>
<rect width="1" height="1" x="19" y="17" style="fill: #d17f6b; fill-opacity: 1"></rect>
<rect width="1" height="1" x="20" y="17" style="fill: #eb9f7f; fill-opacity: 1"></rect>
<rect width="1" height="1" x="21" y="17" style="fill: #eb9f7f; fill-opacity: 1"></rect>
<rect width="1" height="1" x="22" y="17" style="fill: #000000; fill-opacity: 1"></rect>
<rect width="1" height="1" x="23" y="17" style="fill: #000000; fill-opacity: 1"></rect>
<rect width="1" height="1" x="12" y="18" style="fill: #000000; fill-opacity: 1"></rect>
<rect width="1" height="1" x="13" y="18" style="fill: #000000; fill-opacity: 1"></rect>
<rect width="1" height="1" x="14" y="18" style="fill: #d17f6b; fill-opacity: 1"></rect>
<rect width="1" height="1" x="15" y="18" style="fill: #d17f6b; fill-opacity: 1"></rect>
<rect width="1" height="1" x="16" y="18" style="fill: #d17f6b; fill-opacity: 1"></rect>
<rect width="1" height="1" x="17" y="18" style="fill: #d17f6b; fill-opacity: 1"></rect>
<rect width="1" height="1" x="18" y="18" style="fill: #945848; fill-opacity: 1"></rect>
<rect width="1" height="1" x="19" y="18" style="fill: #945848; fill-opacity: 1"></rect>
<rect width="1" height="1" x="20" y="18" style="fill: #d17f6b; fill-opacity: 1"></rect>
<rect width="1" height="1" x="21" y="18" style="fill: #d17f6b; fill-opacity: 1"></rect>
<rect width="1" height="1" x="22" y="18" style="fill: #eb9f7f; fill-opacity: 1"></rect>
<rect width="1" height="1" x="23" y="18" style="fill: #eb9f7f; fill-opacity: 1"></rect>
<rect width="1" height="1" x="24" y="18" style="fill: #000000; fill-opacity: 1"></rect>
<rect width="1" height="1" x="25" y="18" style="fill: #000000; fill-opacity: 1"></rect>
<rect width="1" height="1" x="12" y="19" style="fill: #000000; fill-opacity: 1"></rect>
<rect width="1" height="1" x="13" y="19" style="fill: #000000; fill-opacity: 1"></rect>
<rect width="1" height="1" x="14" y="19" style="fill: #d17f6b; fill-opacity: 1"></rect>
<rect width="1" height="1" x="15" y="19" style="fill: #d17f6b; fill-opacity: 1"></rect>
<rect width="1" height="1" x="16" y="19" style="fill: #d17f6b; fill-opacity: 1"></rect>
<rect width="1" height="1" x="17" y="19" style="fill: #d17f6b; fill-opacity: 1"></rect>
<rect width="1" height="1" x="18" y="19" style="fill: #945848; fill-opacity: 1"></rect>
<rect width="1" height="1" x="19" y="19" style="fill: #945848; fill-opacity: 1"></rect>
<rect width="1" height="1" x="20" y="19" style="fill: #d17f6b; fill-opacity: 1"></rect>
<rect width="1" height="1" x="21" y="19" style="fill: #d17f6b; fill-opacity: 1"></rect>
<rect width="1" height="1" x="22" y="19" style="fill: #eb9f7f; fill-opacity: 1"></rect>
<rect width="1" height="1" x="23" y="19" style="fill: #eb9f7f; fill-opacity: 1"></rect>
<rect width="1" height="1" x="24" y="19" style="fill: #000000; fill-opacity: 1"></rect>
<rect width="1" height="1" x="25" y="19" style="fill: #000000; fill-opacity: 1"></rect>
<rect width="1" height="1" x="10" y="20" style="fill: #000000; fill-opacity: 1"></rect>
<rect width="1" height="1" x="11" y="20" style="fill: #000000; fill-opacity: 1"></rect>
<rect width="1" height="1" x="12" y="20" style="fill: #945848; fill-opacity: 1"></rect>
<rect width="1" height="1" x="13" y="20" style="fill: #945848; fill-opacity: 1"></rect>
<rect width="1" height="1" x="14" y="20" style="fill: #d17f6b; fill-opacity: 1"></rect>
<rect width="1" height="1" x="15" y="20" style="fill: #d17f6b; fill-opacity: 1"></rect>
<rect width="1" height="1" x="16" y="20" style="fill: #945848; fill-opacity: 1"></rect>
<rect width="1" height="1" x="17" y="20" style="fill: #945848; fill-opacity: 1"></rect>
<rect width="1" height="1" x="18" y="20" style="fill: #000000; fill-opacity: 1"></rect>
<rect width="1" height="1" x="19" y="20" style="fill: #000000; fill-opacity: 1"></rect>
<rect width="1" height="1" x="20" y="20" style="fill: #945848; fill-opacity: 1"></rect>
<rect width="1" height="1" x="21" y="20" style="fill: #945848; fill-opacity: 1"></rect>
<rect width="1" height="1" x="22" y="20" style="fill: #d17f6b; fill-opacity: 1"></rect>
<rect width="1" height="1" x="23" y="20" style="fill: #d17f6b; fill-opacity: 1"></rect>
<rect width="1" height="1" x="24" y="20" style="fill: #eb9f7f; fill-opacity: 1"></rect>
<rect width="1" height="1" x="25" y="20" style="fill: #eb9f7f; fill-opacity: 1"></rect>
<rect width="1" height="1" x="26" y="20" style="fill: #000000; fill-opacity: 1"></rect>
<rect width="1" height="1" x="27" y="20" style="fill: #000000; fill-opacity: 1"></rect>
<rect width="1" height="1" x="10" y="21" style="fill: #000000; fill-opacity: 1"></rect>
<rect width="1" height="1" x="11" y="21" style="fill: #000000; fill-opacity: 1"></rect>
<rect width="1" height="1" x="12" y="21" style="fill: #945848; fill-opacity: 1"></rect>
<rect width="1" height="1" x="13" y="21" style="fill: #945848; fill-opacity: 1"></rect>
<rect width="1" height="1" x="14" y="21" style="fill: #d17f6b; fill-opacity: 1"></rect>
<rect width="1" height="1" x="15" y="21" style="fill: #d17f6b; fill-opacity: 1"></rect>
<rect width="1" height="1" x="16" y="21" style="fill: #945848; fill-opacity: 1"></rect>
<rect width="1" height="1" x="17" y="21" style="fill: #945848; fill-opacity: 1"></rect>
<rect width="1" height="1" x="18" y="21" style="fill: #000000; fill-opacity: 1"></rect>
<rect width="1" height="1" x="19" y="21" style="fill: #000000; fill-opacity: 1"></rect>
<rect width="1" height="1" x="20" y="21" style="fill: #945848; fill-opacity: 1"></rect>
<rect width="1" height="1" x="21" y="21" style="fill: #945848; fill-opacity: 1"></rect>
<rect width="1" height="1" x="22" y="21" style="fill: #d17f6b; fill-opacity: 1"></rect>
<rect width="1" height="1" x="23" y="21" style="fill: #d17f6b; fill-opacity: 1"></rect>
<rect width="1" height="1" x="24" y="21" style="fill: #eb9f7f; fill-opacity: 1"></rect>
<rect width="1" height="1" x="25" y="21" style="fill: #eb9f7f; fill-opacity: 1"></rect>
<rect width="1" height="1" x="26" y="21" style="fill: #000000; fill-opacity: 1"></rect>
<rect width="1" height="1" x="27" y="21" style="fill: #000000; fill-opacity: 1"></rect>
<rect width="1" height="1" x="12" y="22" style="fill: #000000; fill-opacity: 1"></rect>
<rect width="1" height="1" x="13" y="22" style="fill: #000000; fill-opacity: 1"></rect>
<rect width="1" height="1" x="14" y="22" style="fill: #945848; fill-opacity: 1"></rect>
<rect width="1" height="1" x="15" y="22" style="fill: #945848; fill-opacity: 1"></rect>
<rect width="1" height="1" x="16" y="22" style="fill: #000000; fill-opacity: 1"></rect>
<rect width="1" height="1" x="17" y="22" style="fill: #000000; fill-opacity: 1"></rect>
<rect width="1" height="1" x="20" y="22" style="fill: #000000; fill-opacity: 1"></rect>
<rect width="1" height="1" x="21" y="22" style="fill: #000000; fill-opacity: 1"></rect>
<rect width="1" height="1" x="22" y="22" style="fill: #d17f6b; fill-opacity: 1"></rect>
<rect width="1" height="1" x="23" y="22" style="fill: #d17f6b; fill-opacity: 1"></rect>
<rect width="1" height="1" x="24" y="22" style="fill: #d17f6b; fill-opacity: 1"></rect>
<rect width="1" height="1" x="25" y="22" style="fill: #d17f6b; fill-opacity: 1"></rect>
<rect width="1" height="1" x="26" y="22" style="fill: #eb9f7f; fill-opacity: 1"></rect>
<rect width="1" height="1" x="27" y="22" style="fill: #eb9f7f; fill-opacity: 1"></rect>
<rect width="1" height="1" x="28" y="22" style="fill: #000000; fill-opacity: 1"></rect>
<rect width="1" height="1" x="29" y="22" style="fill: #000000; fill-opacity: 1"></rect>
<rect width="1" height="1" x="12" y="23" style="fill: #000000; fill-opacity: 1"></rect>
<rect width="1" height="1" x="13" y="23" style="fill: #000000; fill-opacity: 1"></rect>
<rect width="1" height="1" x="14" y="23" style="fill: #945848; fill-opacity: 1"></rect>
<rect width="1" height="1" x="15" y="23" style="fill: #945848; fill-opacity: 1"></rect>
<rect width="1" height="1" x="16" y="23" style="fill: #000000; fill-opacity: 1"></rect>
<rect width="1" height="1" x="17" y="23" style="fill: #000000; fill-opacity: 1"></rect>
<rect width="1" height="1" x="20" y="23" style="fill: #000000; fill-opacity: 1"></rect>
<rect width="1" height="1" x="21" y="23" style="fill: #000000; fill-opacity: 1"></rect>
<rect width="1" height="1" x="22" y="23" style="fill: #d17f6b; fill-opacity: 1"></rect>
<rect width="1" height="1" x="23" y="23" style="fill: #d17f6b; fill-opacity: 1"></rect>
<rect width="1" height="1" x="24" y="23" style="fill: #d17f6b; fill-opacity: 1"></rect>
<rect width="1" height="1" x="25" y="23" style="fill: #d17f6b; fill-opacity: 1"></rect>
<rect width="1" height="1" x="26" y="23" style="fill: #eb9f7f; fill-opacity: 1"></rect>
<rect width="1" height="1" x="27" y="23" style="fill: #eb9f7f; fill-opacity: 1"></rect>
<rect width="1" height="1" x="28" y="23" style="fill: #000000; fill-opacity: 1"></rect>
<rect width="1" height="1" x="29" y="23" style="fill: #000000; fill-opacity: 1"></rect>
<rect width="1" height="1" x="14" y="24" style="fill: #000000; fill-opacity: 1"></rect>
<rect width="1" height="1" x="15" y="24" style="fill: #000000; fill-opacity: 1"></rect>
<rect width="1" height="1" x="18" y="24" style="fill: #000000; fill-opacity: 1"></rect>
<rect width="1" height="1" x="19" y="24" style="fill: #000000; fill-opacity: 1"></rect>
<rect width="1" height="1" x="20" y="24" style="fill: #d17f6b; fill-opacity: 1"></rect>
<rect width="1" height="1" x="21" y="24" style="fill: #d17f6b; fill-opacity: 1"></rect>
<rect width="1" height="1" x="22" y="24" style="fill: #d17f6b; fill-opacity: 1"></rect>
<rect width="1" height="1" x="23" y="24" style="fill: #d17f6b; fill-opacity: 1"></rect>
<rect width="1" height="1" x="24" y="24" style="fill: #945848; fill-opacity: 1"></rect>
<rect width="1" height="1" x="25" y="24" style="fill: #945848; fill-opacity: 1"></rect>
<rect width="1" height="1" x="26" y="24" style="fill: #d17f6b; fill-opacity: 1"></rect>
<rect width="1" height="1" x="27" y="24" style="fill: #d17f6b; fill-opacity: 1"></rect>
<rect width="1" height="1" x="28" y="24" style="fill: #000000; fill-opacity: 1"></rect>
<rect width="1" height="1" x="29" y="24" style="fill: #000000; fill-opacity: 1"></rect>
<rect width="1" height="1" x="14" y="25" style="fill: #000000; fill-opacity: 1"></rect>
<rect width="1" height="1" x="15" y="25" style="fill: #000000; fill-opacity: 1"></rect>
<rect width="1" height="1" x="18" y="25" style="fill: #000000; fill-opacity: 1"></rect>
<rect width="1" height="1" x="19" y="25" style="fill: #000000; fill-opacity: 1"></rect>
<rect width="1" height="1" x="20" y="25" style="fill: #d17f6b; fill-opacity: 1"></rect>
<rect width="1" height="1" x="21" y="25" style="fill: #d17f6b; fill-opacity: 1"></rect>
<rect width="1" height="1" x="22" y="25" style="fill: #d17f6b; fill-opacity: 1"></rect>
<rect width="1" height="1" x="23" y="25" style="fill: #d17f6b; fill-opacity: 1"></rect>
<rect width="1" height="1" x="24" y="25" style="fill: #945848; fill-opacity: 1"></rect>
<rect width="1" height="1" x="25" y="25" style="fill: #945848; fill-opacity: 1"></rect>
<rect width="1" height="1" x="26" y="25" style="fill: #d17f6b; fill-opacity: 1"></rect>
<rect width="1" height="1" x="27" y="25" style="fill: #d17f6b; fill-opacity: 1"></rect>
<rect width="1" height="1" x="28" y="25" style="fill: #000000; fill-opacity: 1"></rect>
<rect width="1" height="1" x="29" y="25" style="fill: #000000; fill-opacity: 1"></rect>
<rect width="1" height="1" x="16" y="26" style="fill: #000000; fill-opacity: 1"></rect>
<rect width="1" height="1" x="17" y="26" style="fill: #000000; fill-opacity: 1"></rect>
<rect width="1" height="1" x="18" y="26" style="fill: #945848; fill-opacity: 1"></rect>
<rect width="1" height="1" x="19" y="26" style="fill: #945848; fill-opacity: 1"></rect>
<rect width="1" height="1" x="20" y="26" style="fill: #d17f6b; fill-opacity: 1"></rect>
<rect width="1" height="1" x="21" y="26" style="fill: #d17f6b; fill-opacity: 1"></rect>
<rect width="1" height="1" x="22" y="26" style="fill: #945848; fill-opacity: 1"></rect>
<rect width="1" height="1" x="23" y="26" style="fill: #945848; fill-opacity: 1"></rect>
<rect width="1" height="1" x="24" y="26" style="fill: #000000; fill-opacity: 1"></rect>
<rect width="1" height="1" x="25" y="26" style="fill: #000000; fill-opacity: 1"></rect>
<rect width="1" height="1" x="26" y="26" style="fill: #000000; fill-opacity: 1"></rect>
<rect width="1" height="1" x="27" y="26" style="fill: #000000; fill-opacity: 1"></rect>
<rect width="1" height="1" x="16" y="27" style="fill: #000000; fill-opacity: 1"></rect>
<rect width="1" height="1" x="17" y="27" style="fill: #000000; fill-opacity: 1"></rect>
<rect width="1" height="1" x="18" y="27" style="fill: #945848; fill-opacity: 1"></rect>
<rect width="1" height="1" x="19" y="27" style="fill: #945848; fill-opacity: 1"></rect>
<rect width="1" height="1" x="20" y="27" style="fill: #d17f6b; fill-opacity: 1"></rect>
<rect width="1" height="1" x="21" y="27" style="fill: #d17f6b; fill-opacity: 1"></rect>
<rect width="1" height="1" x="22" y="27" style="fill: #945848; fill-opacity: 1"></rect>
<rect width="1" height="1" x="23" y="27" style="fill: #945848; fill-opacity: 1"></rect>
<rect width="1" height="1" x="24" y="27" style="fill: #000000; fill-opacity: 1"></rect>
<rect width="1" height="1" x="25" y="27" style="fill: #000000; fill-opacity: 1"></rect>
<rect width="1" height="1" x="26" y="27" style="fill: #000000; fill-opacity: 1"></rect>
<rect width="1" height="1" x="27" y="27" style="fill: #000000; fill-opacity: 1"></rect>
<rect width="1" height="1" x="18" y="28" style="fill: #000000; fill-opacity: 1"></rect>
<rect width="1" height="1" x="19" y="28" style="fill: #000000; fill-opacity: 1"></rect>
<rect width="1" height="1" x="20" y="28" style="fill: #945848; fill-opacity: 1"></rect>
<rect width="1" height="1" x="21" y="28" style="fill: #945848; fill-opacity: 1"></rect>
<rect width="1" height="1" x="22" y="28" style="fill: #000000; fill-opacity: 1"></rect>
<rect width="1" height="1" x="23" y="28" style="fill: #000000; fill-opacity: 1"></rect>
<rect width="1" height="1" x="18" y="29" style="fill: #000000; fill-opacity: 1"></rect>
<rect width="1" height="1" x="19" y="29" style="fill: #000000; fill-opacity: 1"></rect>
<rect width="1" height="1" x="20" y="29" style="fill: #945848; fill-opacity: 1"></rect>
<rect width="1" height="1" x="21" y="29" style="fill: #945848; fill-opacity: 1"></rect>
<rect width="1" height="1" x="22" y="29" style="fill: #000000; fill-opacity: 1"></rect>
<rect width="1" height="1" x="23" y="29" style="fill: #000000; fill-opacity: 1"></rect>
<rect width="1" height="1" x="20" y="30" style="fill: #000000; fill-opacity: 1"></rect>
<rect width="1" height="1" x="21" y="30" style="fill: #000000; fill-opacity: 1"></rect>
<rect width="1" height="1" x="20" y="31" style="fill: #000000; fill-opacity: 1"></rect>
<rect width="1" height="1" x="21" y="31" style="fill: #000000; fill-opacity: 1"></rect>
</svg>