<?xml version="1.0" encoding="utf-8"?>
<!DOCTYPE svg PUBLIC "-//W3C//DTD SVG 1.1//EN" "http://www.w3.org/Graphics/SVG/1.1/DTD/svg11.dtd"><svg version="1.1" id="Layer_1" xmlns="http://www.w3.org/2000/svg" xmlns:xlink="http://www.w3.org/1999/xlink" x="0px" y="0px"
	 width="32px" height="32px" viewBox="0 0 32 32" enable-background="new 0 0 32 32"
	 xml:space="preserve"><rect width="1" height="1" x="14" y="5" style="fill: #000000; fill-opacity: 1"></rect>
<rect width="1" height="1" x="15" y="5" style="fill: #000000; fill-opacity: 1"></rect>
<rect width="1" height="1" x="16" y="5" style="fill: #000000; fill-opacity: 1"></rect>
<rect width="1" height="1" x="17" y="5" style="fill: #000000; fill-opacity: 1"></rect>
<rect width="1" height="1" x="13" y="6" style="fill: #000000; fill-opacity: 1"></rect>
<rect width="1" height="1" x="14" y="6" style="fill: #ffe88c; fill-opacity: 1"></rect>
<rect width="1" height="1" x="15" y="6" style="fill: #ffe88c; fill-opacity: 1"></rect>
<rect width="1" height="1" x="16" y="6" style="fill: #ffe88c; fill-opacity: 1"></rect>
<rect width="1" height="1" x="17" y="6" style="fill: #ffe88c; fill-opacity: 1"></rect>
<rect width="1" height="1" x="18" y="6" style="fill: #000000; fill-opacity: 1"></rect>
<rect width="1" height="1" x="12" y="7" style="fill: #000000; fill-opacity: 1"></rect>
<rect width="1" height="1" x="13" y="7" style="fill: #f3d040; fill-opacity: 1"></rect>
<rect width="1" height="1" x="14" y="7" style="fill: #f3d040; fill-opacity: 1"></rect>
<rect width="1" height="1" x="15" y="7" style="fill: #f3d040; fill-opacity: 1"></rect>
<rect width="1" height="1" x="16" y="7" style="fill: #f3d040; fill-opacity: 1"></rect>
<rect width="1" height="1" x="17" y="7" style="fill: #f3d040; fill-opacity: 1"></rect>
<rect width="1" height="1" x="18" y="7" style="fill: #ffe88c; fill-opacity: 1"></rect>
<rect width="1" height="1" x="19" y="7" style="fill: #000000; fill-opacity: 1"></rect>
<rect width="1" height="1" x="11" y="8" style="fill: #000000; fill-opacity: 1"></rect>
<rect width="1" height="1" x="12" y="8" style="fill: #000000; fill-opacity: 1"></rect>
<rect width="1" height="1" x="13" y="8" style="fill: #f3d040; fill-opacity: 1"></rect>
<rect width="1" height="1" x="14" y="8" style="fill: #ffe88c; fill-opacity: 1"></rect>
<rect width="1" height="1" x="15" y="8" style="fill: #000000; fill-opacity: 1"></rect>
<rect width="1" height="1" x="16" y="8" style="fill: #000000; fill-opacity: 1"></rect>
<rect width="1" height="1" x="17" y="8" style="fill: #f3d040; fill-opacity: 1"></rect>
<rect width="1" height="1" x="18" y="8" style="fill: #ffe88c; fill-opacity: 1"></rect>
<rect width="1" height="1" x="19" y="8" style="fill: #000000; fill-opacity: 1"></rect>
<rect width="1" height="1" x="10" y="9" style="fill: #000000; fill-opacity: 1"></rect>
<rect width="1" height="1" x="11" y="9" style="fill: #f3d040; fill-opacity: 1"></rect>
<rect width="1" height="1" x="12" y="9" style="fill: #000000; fill-opacity: 1"></rect>
<rect width="1" height="1" x="13" y="9" style="fill: #d69a4e; fill-opacity: 1"></rect>
<rect width="1" height="1" x="14" y="9" style="fill: #ffe88c; fill-opacity: 1"></rect>
<rect width="1" height="1" x="15" y="9" style="fill: #000000; fill-opacity: 1"></rect>
<rect width="1" height="1" x="16" y="9" style="fill: #000000; fill-opacity: 1"></rect>
<rect width="1" height="1" x="17" y="9" style="fill: #f3d040; fill-opacity: 1"></rect>
<rect width="1" height="1" x="18" y="9" style="fill: #ffe88c; fill-opacity: 1"></rect>
<rect width="1" height="1" x="19" y="9" style="fill: #000000; fill-opacity: 1"></rect>
<rect width="1" height="1" x="9" y="10" style="fill: #000000; fill-opacity: 1"></rect>
<rect width="1" height="1" x="10" y="10" style="fill: #000000; fill-opacity: 1"></rect>
<rect width="1" height="1" x="11" y="10" style="fill: #f3d040; fill-opacity: 1"></rect>
<rect width="1" height="1" x="12" y="10" style="fill: #000000; fill-opacity: 1"></rect>
<rect width="1" height="1" x="13" y="10" style="fill: #d69a4e; fill-opacity: 1"></rect>
<rect width="1" height="1" x="14" y="10" style="fill: #f3d040; fill-opacity: 1"></rect>
<rect width="1" height="1" x="15" y="10" style="fill: #ffe88c; fill-opacity: 1"></rect>
<rect width="1" height="1" x="16" y="10" style="fill: #ffe88c; fill-opacity: 1"></rect>
<rect width="1" height="1" x="17" y="10" style="fill: #f3d040; fill-opacity: 1"></rect>
<rect width="1" height="1" x="18" y="10" style="fill: #ffe88c; fill-opacity: 1"></rect>
<rect width="1" height="1" x="19" y="10" style="fill: #000000; fill-opacity: 1"></rect>
<rect width="1" height="1" x="8" y="11" style="fill: #000000; fill-opacity: 1"></rect>
<rect width="1" height="1" x="9" y="11" style="fill: #f3d040; fill-opacity: 1"></rect>
<rect width="1" height="1" x="10" y="11" style="fill: #000000; fill-opacity: 1"></rect>
<rect width="1" height="1" x="11" y="11" style="fill: #d69a4e; fill-opacity: 1"></rect>
<rect width="1" height="1" x="12" y="11" style="fill: #ffe88c; fill-opacity: 1"></rect>
<rect width="1" height="1" x="13" y="11" style="fill: #000000; fill-opacity: 1"></rect>
<rect width="1" height="1" x="14" y="11" style="fill: #d69a4e; fill-opacity: 1"></rect>
<rect width="1" height="1" x="15" y="11" style="fill: #d69a4e; fill-opacity: 1"></rect>
<rect width="1" height="1" x="16" y="11" style="fill: #f3d040; fill-opacity: 1"></rect>
<rect width="1" height="1" x="17" y="11" style="fill: #f3d040; fill-opacity: 1"></rect>
<rect width="1" height="1" x="18" y="11" style="fill: #f3d040; fill-opacity: 1"></rect>
<rect width="1" height="1" x="19" y="11" style="fill: #ffe88c; fill-opacity: 1"></rect>
<rect width="1" height="1" x="20" y="11" style="fill: #000000; fill-opacity: 1"></rect>
<rect width="1" height="1" x="7" y="12" style="fill: #000000; fill-opacity: 1"></rect>
<rect width="1" height="1" x="8" y="12" style="fill: #000000; fill-opacity: 1"></rect>
<rect width="1" height="1" x="9" y="12" style="fill: #f3d040; fill-opacity: 1"></rect>
<rect width="1" height="1" x="10" y="12" style="fill: #000000; fill-opacity: 1"></rect>
<rect width="1" height="1" x="11" y="12" style="fill: #d69a4e; fill-opacity: 1"></rect>
<rect width="1" height="1" x="12" y="12" style="fill: #f3d040; fill-opacity: 1"></rect>
<rect width="1" height="1" x="13" y="12" style="fill: #ffe88c; fill-opacity: 1"></rect>
<rect width="1" height="1" x="14" y="12" style="fill: #000000; fill-opacity: 1"></rect>
<rect width="1" height="1" x="15" y="12" style="fill: #000000; fill-opacity: 1"></rect>
<rect width="1" height="1" x="16" y="12" style="fill: #000000; fill-opacity: 1"></rect>
<rect width="1" height="1" x="17" y="12" style="fill: #000000; fill-opacity: 1"></rect>
<rect width="1" height="1" x="18" y="12" style="fill: #d69a4e; fill-opacity: 1"></rect>
<rect width="1" height="1" x="19" y="12" style="fill: #f3d040; fill-opacity: 1"></rect>
<rect width="1" height="1" x="20" y="12" style="fill: #ffe88c; fill-opacity: 1"></rect>
<rect width="1" height="1" x="21" y="12" style="fill: #000000; fill-opacity: 1"></rect>
<rect width="1" height="1" x="6" y="13" style="fill: #000000; fill-opacity: 1"></rect>
<rect width="1" height="1" x="7" y="13" style="fill: #f3d040; fill-opacity: 1"></rect>
<rect width="1" height="1" x="8" y="13" style="fill: #000000; fill-opacity: 1"></rect>
<rect width="1" height="1" x="9" y="13" style="fill: #d69a4e; fill-opacity: 1"></rect>
<rect width="1" height="1" x="10" y="13" style="fill: #ffe88c; fill-opacity: 1"></rect>
<rect width="1" height="1" x="11" y="13" style="fill: #000000; fill-opacity: 1"></rect>
<rect width="1" height="1" x="12" y="13" style="fill: #d69a4e; fill-opacity: 1"></rect>
<rect width="1" height="1" x="13" y="13" style="fill: #d69a4e; fill-opacity: 1"></rect>
<rect width="1" height="1" x="14" y="13" style="fill: #f3d040; fill-opacity: 1"></rect>
<rect width="1" height="1" x="15" y="13" style="fill: #f3d040; fill-opacity: 1"></rect>
<rect width="1" height="1" x="16" y="13" style="fill: #f3d040; fill-opacity: 1"></rect>
<rect width="1" height="1" x="17" y="13" style="fill: #ffe88c; fill-opacity: 1"></rect>
<rect width="1" height="1" x="18" y="13" style="fill: #000000; fill-opacity: 1"></rect>
<rect width="1" height="1" x="19" y="13" style="fill: #f3d040; fill-opacity: 1"></rect>
<rect width="1" height="1" x="20" y="13" style="fill: #f3d040; fill-opacity: 1"></rect>
<rect width="1" height="1" x="21" y="13" style="fill: #ffe88c; fill-opacity: 1"></rect>
<rect width="1" height="1" x="22" y="13" style="fill: #000000; fill-opacity: 1"></rect>
<rect width="1" height="1" x="6" y="14" style="fill: #000000; fill-opacity: 1"></rect>
<rect width="1" height="1" x="7" y="14" style="fill: #f3d040; fill-opacity: 1"></rect>
<rect width="1" height="1" x="8" y="14" style="fill: #000000; fill-opacity: 1"></rect>
<rect width="1" height="1" x="9" y="14" style="fill: #d69a4e; fill-opacity: 1"></rect>
<rect width="1" height="1" x="10" y="14" style="fill: #f3d040; fill-opacity: 1"></rect>
<rect width="1" height="1" x="11" y="14" style="fill: #ffe88c; fill-opacity: 1"></rect>
<rect width="1" height="1" x="12" y="14" style="fill: #000000; fill-opacity: 1"></rect>
<rect width="1" height="1" x="13" y="14" style="fill: #000000; fill-opacity: 1"></rect>
<rect width="1" height="1" x="14" y="14" style="fill: #000000; fill-opacity: 1"></rect>
<rect width="1" height="1" x="15" y="14" style="fill: #000000; fill-opacity: 1"></rect>
<rect width="1" height="1" x="16" y="14" style="fill: #d69a4e; fill-opacity: 1"></rect>
<rect width="1" height="1" x="17" y="14" style="fill: #000000; fill-opacity: 1"></rect>
<rect width="1" height="1" x="18" y="14" style="fill: #f3d040; fill-opacity: 1"></rect>
<rect width="1" height="1" x="19" y="14" style="fill: #f3d040; fill-opacity: 1"></rect>
<rect width="1" height="1" x="20" y="14" style="fill: #d69a4e; fill-opacity: 1"></rect>
<rect width="1" height="1" x="21" y="14" style="fill: #f3d040; fill-opacity: 1"></rect>
<rect width="1" height="1" x="22" y="14" style="fill: #ffe88c; fill-opacity: 1"></rect>
<rect width="1" height="1" x="23" y="14" style="fill: #000000; fill-opacity: 1"></rect>
<rect width="1" height="1" x="6" y="15" style="fill: #000000; fill-opacity: 1"></rect>
<rect width="1" height="1" x="7" y="15" style="fill: #d69a4e; fill-opacity: 1"></rect>
<rect width="1" height="1" x="8" y="15" style="fill: #ffe88c; fill-opacity: 1"></rect>
<rect width="1" height="1" x="9" y="15" style="fill: #000000; fill-opacity: 1"></rect>
<rect width="1" height="1" x="10" y="15" style="fill: #d69a4e; fill-opacity: 1"></rect>
<rect width="1" height="1" x="11" y="15" style="fill: #d69a4e; fill-opacity: 1"></rect>
<rect width="1" height="1" x="12" y="15" style="fill: #f3d040; fill-opacity: 1"></rect>
<rect width="1" height="1" x="13" y="15" style="fill: #f3d040; fill-opacity: 1"></rect>
<rect width="1" height="1" x="14" y="15" style="fill: #f3d040; fill-opacity: 1"></rect>
<rect width="1" height="1" x="15" y="15" style="fill: #ffe88c; fill-opacity: 1"></rect>
<rect width="1" height="1" x="16" y="15" style="fill: #000000; fill-opacity: 1"></rect>
<rect width="1" height="1" x="17" y="15" style="fill: #d69a4e; fill-opacity: 1"></rect>
<rect width="1" height="1" x="18" y="15" style="fill: #f3d040; fill-opacity: 1"></rect>
<rect width="1" height="1" x="19" y="15" style="fill: #d69a4e; fill-opacity: 1"></rect>
<rect width="1" height="1" x="20" y="15" style="fill: #000000; fill-opacity: 1"></rect>
<rect width="1" height="1" x="21" y="15" style="fill: #d69a4e; fill-opacity: 1"></rect>
<rect width="1" height="1" x="22" y="15" style="fill: #f3d040; fill-opacity: 1"></rect>
<rect width="1" height="1" x="23" y="15" style="fill: #ffe88c; fill-opacity: 1"></rect>
<rect width="1" height="1" x="24" y="15" style="fill: #000000; fill-opacity: 1"></rect>
<rect width="1" height="1" x="6" y="16" style="fill: #000000; fill-opacity: 1"></rect>
<rect width="1" height="1" x="7" y="16" style="fill: #d69a4e; fill-opacity: 1"></rect>
<rect width="1" height="1" x="8" y="16" style="fill: #f3d040; fill-opacity: 1"></rect>
<rect width="1" height="1" x="9" y="16" style="fill: #ffe88c; fill-opacity: 1"></rect>
<rect width="1" height="1" x="10" y="16" style="fill: #000000; fill-opacity: 1"></rect>
<rect width="1" height="1" x="11" y="16" style="fill: #000000; fill-opacity: 1"></rect>
<rect width="1" height="1" x="12" y="16" style="fill: #000000; fill-opacity: 1"></rect>
<rect width="1" height="1" x="13" y="16" style="fill: #000000; fill-opacity: 1"></rect>
<rect width="1" height="1" x="14" y="16" style="fill: #d69a4e; fill-opacity: 1"></rect>
<rect width="1" height="1" x="15" y="16" style="fill: #000000; fill-opacity: 1"></rect>
<rect width="1" height="1" x="16" y="16" style="fill: #f3d040; fill-opacity: 1"></rect>
<rect width="1" height="1" x="17" y="16" style="fill: #000000; fill-opacity: 1"></rect>
<rect width="1" height="1" x="18" y="16" style="fill: #d69a4e; fill-opacity: 1"></rect>
<rect width="1" height="1" x="19" y="16" style="fill: #000000; fill-opacity: 1"></rect>
<rect width="1" height="1" x="20" y="16" style="fill: #ffe88c; fill-opacity: 1"></rect>
<rect width="1" height="1" x="21" y="16" style="fill: #000000; fill-opacity: 1"></rect>
<rect width="1" height="1" x="22" y="16" style="fill: #f3d040; fill-opacity: 1"></rect>
<rect width="1" height="1" x="23" y="16" style="fill: #f3d040; fill-opacity: 1"></rect>
<rect width="1" height="1" x="24" y="16" style="fill: #ffe88c; fill-opacity: 1"></rect>
<rect width="1" height="1" x="25" y="16" style="fill: #000000; fill-opacity: 1"></rect>
<rect width="1" height="1" x="7" y="17" style="fill: #000000; fill-opacity: 1"></rect>
<rect width="1" height="1" x="8" y="17" style="fill: #d69a4e; fill-opacity: 1"></rect>
<rect width="1" height="1" x="9" y="17" style="fill: #d69a4e; fill-opacity: 1"></rect>
<rect width="1" height="1" x="10" y="17" style="fill: #f3d040; fill-opacity: 1"></rect>
<rect width="1" height="1" x="11" y="17" style="fill: #f3d040; fill-opacity: 1"></rect>
<rect width="1" height="1" x="12" y="17" style="fill: #f3d040; fill-opacity: 1"></rect>
<rect width="1" height="1" x="13" y="17" style="fill: #ffe88c; fill-opacity: 1"></rect>
<rect width="1" height="1" x="14" y="17" style="fill: #000000; fill-opacity: 1"></rect>
<rect width="1" height="1" x="15" y="17" style="fill: #d69a4e; fill-opacity: 1"></rect>
<rect width="1" height="1" x="16" y="17" style="fill: #f3d040; fill-opacity: 1"></rect>
<rect width="1" height="1" x="17" y="17" style="fill: #d69a4e; fill-opacity: 1"></rect>
<rect width="1" height="1" x="18" y="17" style="fill: #000000; fill-opacity: 1"></rect>
<rect width="1" height="1" x="19" y="17" style="fill: #d69a4e; fill-opacity: 1"></rect>
<rect width="1" height="1" x="20" y="17" style="fill: #000000; fill-opacity: 1"></rect>
<rect width="1" height="1" x="21" y="17" style="fill: #f3d040; fill-opacity: 1"></rect>
<rect width="1" height="1" x="22" y="17" style="fill: #f3d040; fill-opacity: 1"></rect>
<rect width="1" height="1" x="23" y="17" style="fill: #d69a4e; fill-opacity: 1"></rect>
<rect width="1" height="1" x="24" y="17" style="fill: #f3d040; fill-opacity: 1"></rect>
<rect width="1" height="1" x="25" y="17" style="fill: #000000; fill-opacity: 1"></rect>
<rect width="1" height="1" x="8" y="18" style="fill: #000000; fill-opacity: 1"></rect>
<rect width="1" height="1" x="9" y="18" style="fill: #000000; fill-opacity: 1"></rect>
<rect width="1" height="1" x="10" y="18" style="fill: #000000; fill-opacity: 1"></rect>
<rect width="1" height="1" x="11" y="18" style="fill: #000000; fill-opacity: 1"></rect>
<rect width="1" height="1" x="12" y="18" style="fill: #d69a4e; fill-opacity: 1"></rect>
<rect width="1" height="1" x="13" y="18" style="fill: #000000; fill-opacity: 1"></rect>
<rect width="1" height="1" x="14" y="18" style="fill: #f3d040; fill-opacity: 1"></rect>
<rect width="1" height="1" x="15" y="18" style="fill: #000000; fill-opacity: 1"></rect>
<rect width="1" height="1" x="16" y="18" style="fill: #d69a4e; fill-opacity: 1"></rect>
<rect width="1" height="1" x="17" y="18" style="fill: #000000; fill-opacity: 1"></rect>
<rect width="1" height="1" x="18" y="18" style="fill: #ffe88c; fill-opacity: 1"></rect>
<rect width="1" height="1" x="19" y="18" style="fill: #000000; fill-opacity: 1"></rect>
<rect width="1" height="1" x="20" y="18" style="fill: #d69a4e; fill-opacity: 1"></rect>
<rect width="1" height="1" x="21" y="18" style="fill: #f3d040; fill-opacity: 1"></rect>
<rect width="1" height="1" x="22" y="18" style="fill: #d69a4e; fill-opacity: 1"></rect>
<rect width="1" height="1" x="23" y="18" style="fill: #000000; fill-opacity: 1"></rect>
<rect width="1" height="1" x="24" y="18" style="fill: #000000; fill-opacity: 1"></rect>
<rect width="1" height="1" x="12" y="19" style="fill: #000000; fill-opacity: 1"></rect>
<rect width="1" height="1" x="13" y="19" style="fill: #d69a4e; fill-opacity: 1"></rect>
<rect width="1" height="1" x="14" y="19" style="fill: #f3d040; fill-opacity: 1"></rect>
<rect width="1" height="1" x="15" y="19" style="fill: #d69a4e; fill-opacity: 1"></rect>
<rect width="1" height="1" x="16" y="19" style="fill: #000000; fill-opacity: 1"></rect>
<rect width="1" height="1" x="17" y="19" style="fill: #d69a4e; fill-opacity: 1"></rect>
<rect width="1" height="1" x="18" y="19" style="fill: #000000; fill-opacity: 1"></rect>
<rect width="1" height="1" x="19" y="19" style="fill: #f3d040; fill-opacity: 1"></rect>
<rect width="1" height="1" x="20" y="19" style="fill: #000000; fill-opacity: 1"></rect>
<rect width="1" height="1" x="21" y="19" style="fill: #d69a4e; fill-opacity: 1"></rect>
<rect width="1" height="1" x="22" y="19" style="fill: #000000; fill-opacity: 1"></rect>
<rect width="1" height="1" x="23" y="19" style="fill: #000000; fill-opacity: 1"></rect>
<rect width="1" height="1" x="11" y="20" style="fill: #000000; fill-opacity: 1"></rect>
<rect width="1" height="1" x="12" y="20" style="fill: #f3d040; fill-opacity: 1"></rect>
<rect width="1" height="1" x="13" y="20" style="fill: #000000; fill-opacity: 1"></rect>
<rect width="1" height="1" x="14" y="20" style="fill: #d69a4e; fill-opacity: 1"></rect>
<rect width="1" height="1" x="15" y="20" style="fill: #000000; fill-opacity: 1"></rect>
<rect width="1" height="1" x="16" y="20" style="fill: #ffe88c; fill-opacity: 1"></rect>
<rect width="1" height="1" x="17" y="20" style="fill: #000000; fill-opacity: 1"></rect>
<rect width="1" height="1" x="18" y="20" style="fill: #d69a4e; fill-opacity: 1"></rect>
<rect width="1" height="1" x="19" y="20" style="fill: #f3d040; fill-opacity: 1"></rect>
<rect width="1" height="1" x="20" y="20" style="fill: #d69a4e; fill-opacity: 1"></rect>
<rect width="1" height="1" x="21" y="20" style="fill: #000000; fill-opacity: 1"></rect>
<rect width="1" height="1" x="22" y="20" style="fill: #000000; fill-opacity: 1"></rect>
<rect width="1" height="1" x="10" y="21" style="fill: #000000; fill-opacity: 1"></rect>
<rect width="1" height="1" x="11" y="21" style="fill: #d69a4e; fill-opacity: 1"></rect>
<rect width="1" height="1" x="12" y="21" style="fill: #f3d040; fill-opacity: 1"></rect>
<rect width="1" height="1" x="13" y="21" style="fill: #d69a4e; fill-opacity: 1"></rect>
<rect width="1" height="1" x="14" y="21" style="fill: #000000; fill-opacity: 1"></rect>
<rect width="1" height="1" x="15" y="21" style="fill: #d69a4e; fill-opacity: 1"></rect>
<rect width="1" height="1" x="16" y="21" style="fill: #000000; fill-opacity: 1"></rect>
<rect width="1" height="1" x="17" y="21" style="fill: #f3d040; fill-opacity: 1"></rect>
<rect width="1" height="1" x="18" y="21" style="fill: #000000; fill-opacity: 1"></rect>
<rect width="1" height="1" x="19" y="21" style="fill: #d69a4e; fill-opacity: 1"></rect>
<rect width="1" height="1" x="20" y="21" style="fill: #000000; fill-opacity: 1"></rect>
<rect width="1" height="1" x="21" y="21" style="fill: #000000; fill-opacity: 1"></rect>
<rect width="1" height="1" x="11" y="22" style="fill: #000000; fill-opacity: 1"></rect>
<rect width="1" height="1" x="12" y="22" style="fill: #d69a4e; fill-opacity: 1"></rect>
<rect width="1" height="1" x="13" y="22" style="fill: #000000; fill-opacity: 1"></rect>
<rect width="1" height="1" x="15" y="22" style="fill: #000000; fill-opacity: 1"></rect>
<rect width="1" height="1" x="16" y="22" style="fill: #d69a4e; fill-opacity: 1"></rect>
<rect width="1" height="1" x="17" y="22" style="fill: #f3d040; fill-opacity: 1"></rect>
<rect width="1" height="1" x="18" y="22" style="fill: #d69a4e; fill-opacity: 1"></rect>
<rect width="1" height="1" x="19" y="22" style="fill: #000000; fill-opacity: 1"></rect>
<rect width="1" height="1" x="20" y="22" style="fill: #000000; fill-opacity: 1"></rect>
<rect width="1" height="1" x="12" y="23" style="fill: #000000; fill-opacity: 1"></rect>
<rect width="1" height="1" x="14" y="23" style="fill: #000000; fill-opacity: 1"></rect>
<rect width="1" height="1" x="15" y="23" style="fill: #f3d040; fill-opacity: 1"></rect>
<rect width="1" height="1" x="16" y="23" style="fill: #000000; fill-opacity: 1"></rect>
<rect width="1" height="1" x="17" y="23" style="fill: #d69a4e; fill-opacity: 1"></rect>
<rect width="1" height="1" x="18" y="23" style="fill: #000000; fill-opacity: 1"></rect>
<rect width="1" height="1" x="19" y="23" style="fill: #000000; fill-opacity: 1"></rect>
<rect width="1" height="1" x="13" y="24" style="fill: #000000; fill-opacity: 1"></rect>
<rect width="1" height="1" x="14" y="24" style="fill: #d69a4e; fill-opacity: 1"></rect>
<rect width="1" height="1" x="15" y="24" style="fill: #f3d040; fill-opacity: 1"></rect>
<rect width="1" height="1" x="16" y="24" style="fill: #d69a4e; fill-opacity: 1"></rect>
<rect width="1" height="1" x="17" y="24" style="fill: #000000; fill-opacity: 1"></rect>
<rect width="1" height="1" x="18" y="24" style="fill: #000000; fill-opacity: 1"></rect>
<rect width="1" height="1" x="14" y="25" style="fill: #000000; fill-opacity: 1"></rect>
<rect width="1" height="1" x="15" y="25" style="fill: #d69a4e; fill-opacity: 1"></rect>
<rect width="1" height="1" x="16" y="25" style="fill: #000000; fill-opacity: 1"></rect>
<rect width="1" height="1" x="15" y="26" style="fill: #000000; fill-opacity: 1"></rect>
</svg>