<?xml version="1.0" encoding="utf-8"?>
<!DOCTYPE svg PUBLIC "-//W3C//DTD SVG 1.1//EN" "http://www.w3.org/Graphics/SVG/1.1/DTD/svg11.dtd"><svg version="1.1" id="Layer_1" xmlns="http://www.w3.org/2000/svg" xmlns:xlink="http://www.w3.org/1999/xlink" x="0px" y="0px"
	 width="32px" height="32px" viewBox="0 0 32 32" enable-background="new 0 0 32 32"
	 xml:space="preserve"><rect width="1" height="1" x="6" y="0" style="fill: #57546f; fill-opacity: 1"></rect>
<rect width="1" height="1" x="7" y="0" style="fill: #57546f; fill-opacity: 1"></rect>
<rect width="1" height="1" x="8" y="0" style="fill: #57546f; fill-opacity: 1"></rect>
<rect width="1" height="1" x="9" y="0" style="fill: #57546f; fill-opacity: 1"></rect>
<rect width="1" height="1" x="10" y="0" style="fill: #82aa28; fill-opacity: 1"></rect>
<rect width="1" height="1" x="11" y="0" style="fill: #82aa28; fill-opacity: 1"></rect>
<rect width="1" height="1" x="12" y="0" style="fill: #82aa28; fill-opacity: 1"></rect>
<rect width="1" height="1" x="13" y="0" style="fill: #82aa28; fill-opacity: 1"></rect>
<rect width="1" height="1" x="14" y="0" style="fill: #82aa28; fill-opacity: 1"></rect>
<rect width="1" height="1" x="15" y="0" style="fill: #82aa28; fill-opacity: 1"></rect>
<rect width="1" height="1" x="16" y="0" style="fill: #82aa28; fill-opacity: 1"></rect>
<rect width="1" height="1" x="17" y="0" style="fill: #82aa28; fill-opacity: 1"></rect>
<rect width="1" height="1" x="18" y="0" style="fill: #82aa28; fill-opacity: 1"></rect>
<rect width="1" height="1" x="19" y="0" style="fill: #82aa28; fill-opacity: 1"></rect>
<rect width="1" height="1" x="20" y="0" style="fill: #82aa28; fill-opacity: 1"></rect>
<rect width="1" height="1" x="21" y="0" style="fill: #82aa28; fill-opacity: 1"></rect>
<rect width="1" height="1" x="22" y="0" style="fill: #82aa28; fill-opacity: 1"></rect>
<rect width="1" height="1" x="23" y="0" style="fill: #82aa28; fill-opacity: 1"></rect>
<rect width="1" height="1" x="24" y="0" style="fill: #82aa28; fill-opacity: 1"></rect>
<rect width="1" height="1" x="25" y="0" style="fill: #82aa28; fill-opacity: 1"></rect>
<rect width="1" height="1" x="6" y="1" style="fill: #57546f; fill-opacity: 1"></rect>
<rect width="1" height="1" x="7" y="1" style="fill: #57546f; fill-opacity: 1"></rect>
<rect width="1" height="1" x="8" y="1" style="fill: #57546f; fill-opacity: 1"></rect>
<rect width="1" height="1" x="9" y="1" style="fill: #57546f; fill-opacity: 1"></rect>
<rect width="1" height="1" x="10" y="1" style="fill: #82aa28; fill-opacity: 1"></rect>
<rect width="1" height="1" x="11" y="1" style="fill: #82aa28; fill-opacity: 1"></rect>
<rect width="1" height="1" x="12" y="1" style="fill: #82aa28; fill-opacity: 1"></rect>
<rect width="1" height="1" x="13" y="1" style="fill: #82aa28; fill-opacity: 1"></rect>
<rect width="1" height="1" x="14" y="1" style="fill: #82aa28; fill-opacity: 1"></rect>
<rect width="1" height="1" x="15" y="1" style="fill: #82aa28; fill-opacity: 1"></rect>
<rect width="1" height="1" x="16" y="1" style="fill: #82aa28; fill-opacity: 1"></rect>
<rect width="1" height="1" x="17" y="1" style="fill: #82aa28; fill-opacity: 1"></rect>
<rect width="1" height="1" x="18" y="1" style="fill: #82aa28; fill-opacity: 1"></rect>
<rect width="1" height="1" x="19" y="1" style="fill: #82aa28; fill-opacity: 1"></rect>
<rect width="1" height="1" x="20" y="1" style="fill: #82aa28; fill-opacity: 1"></rect>
<rect width="1" height="1" x="21" y="1" style="fill: #82aa28; fill-opacity: 1"></rect>
<rect width="1" height="1" x="22" y="1" style="fill: #82aa28; fill-opacity: 1"></rect>
<rect width="1" height="1" x="23" y="1" style="fill: #82aa28; fill-opacity: 1"></rect>
<rect width="1" height="1" x="24" y="1" style="fill: #82aa28; fill-opacity: 1"></rect>
<rect width="1" height="1" x="25" y="1" style="fill: #82aa28; fill-opacity: 1"></rect>
<rect width="1" height="1" x="6" y="2" style="fill: #57546f; fill-opacity: 1"></rect>
<rect width="1" height="1" x="7" y="2" style="fill: #57546f; fill-opacity: 1"></rect>
<rect width="1" height="1" x="8" y="2" style="fill: #57546f; fill-opacity: 1"></rect>
<rect width="1" height="1" x="9" y="2" style="fill: #57546f; fill-opacity: 1"></rect>
<rect width="1" height="1" x="10" y="2" style="fill: #82aa28; fill-opacity: 1"></rect>
<rect width="1" height="1" x="11" y="2" style="fill: #82aa28; fill-opacity: 1"></rect>
<rect width="1" height="1" x="12" y="2" style="fill: #82aa28; fill-opacity: 1"></rect>
<rect width="1" height="1" x="13" y="2" style="fill: #82aa28; fill-opacity: 1"></rect>
<rect width="1" height="1" x="14" y="2" style="fill: #82aa28; fill-opacity: 1"></rect>
<rect width="1" height="1" x="15" y="2" style="fill: #82aa28; fill-opacity: 1"></rect>
<rect width="1" height="1" x="16" y="2" style="fill: #82aa28; fill-opacity: 1"></rect>
<rect width="1" height="1" x="17" y="2" style="fill: #82aa28; fill-opacity: 1"></rect>
<rect width="1" height="1" x="18" y="2" style="fill: #82aa28; fill-opacity: 1"></rect>
<rect width="1" height="1" x="19" y="2" style="fill: #82aa28; fill-opacity: 1"></rect>
<rect width="1" height="1" x="20" y="2" style="fill: #82aa28; fill-opacity: 1"></rect>
<rect width="1" height="1" x="21" y="2" style="fill: #82aa28; fill-opacity: 1"></rect>
<rect width="1" height="1" x="22" y="2" style="fill: #82aa28; fill-opacity: 1"></rect>
<rect width="1" height="1" x="23" y="2" style="fill: #82aa28; fill-opacity: 1"></rect>
<rect width="1" height="1" x="24" y="2" style="fill: #82aa28; fill-opacity: 1"></rect>
<rect width="1" height="1" x="25" y="2" style="fill: #82aa28; fill-opacity: 1"></rect>
<rect width="1" height="1" x="6" y="3" style="fill: #57546f; fill-opacity: 1"></rect>
<rect width="1" height="1" x="7" y="3" style="fill: #57546f; fill-opacity: 1"></rect>
<rect width="1" height="1" x="8" y="3" style="fill: #57546f; fill-opacity: 1"></rect>
<rect width="1" height="1" x="9" y="3" style="fill: #57546f; fill-opacity: 1"></rect>
<rect width="1" height="1" x="10" y="3" style="fill: #82aa28; fill-opacity: 1"></rect>
<rect width="1" height="1" x="11" y="3" style="fill: #82aa28; fill-opacity: 1"></rect>
<rect width="1" height="1" x="12" y="3" style="fill: #82aa28; fill-opacity: 1"></rect>
<rect width="1" height="1" x="13" y="3" style="fill: #82aa28; fill-opacity: 1"></rect>
<rect width="1" height="1" x="14" y="3" style="fill: #82aa28; fill-opacity: 1"></rect>
<rect width="1" height="1" x="15" y="3" style="fill: #82aa28; fill-opacity: 1"></rect>
<rect width="1" height="1" x="16" y="3" style="fill: #82aa28; fill-opacity: 1"></rect>
<rect width="1" height="1" x="17" y="3" style="fill: #82aa28; fill-opacity: 1"></rect>
<rect width="1" height="1" x="18" y="3" style="fill: #82aa28; fill-opacity: 1"></rect>
<rect width="1" height="1" x="19" y="3" style="fill: #82aa28; fill-opacity: 1"></rect>
<rect width="1" height="1" x="20" y="3" style="fill: #82aa28; fill-opacity: 1"></rect>
<rect width="1" height="1" x="21" y="3" style="fill: #82aa28; fill-opacity: 1"></rect>
<rect width="1" height="1" x="22" y="3" style="fill: #82aa28; fill-opacity: 1"></rect>
<rect width="1" height="1" x="23" y="3" style="fill: #82aa28; fill-opacity: 1"></rect>
<rect width="1" height="1" x="24" y="3" style="fill: #82aa28; fill-opacity: 1"></rect>
<rect width="1" height="1" x="25" y="3" style="fill: #82aa28; fill-opacity: 1"></rect>
<rect width="1" height="1" x="6" y="4" style="fill: #57546f; fill-opacity: 1"></rect>
<rect width="1" height="1" x="7" y="4" style="fill: #57546f; fill-opacity: 1"></rect>
<rect width="1" height="1" x="8" y="4" style="fill: #57546f; fill-opacity: 1"></rect>
<rect width="1" height="1" x="9" y="4" style="fill: #57546f; fill-opacity: 1"></rect>
<rect width="1" height="1" x="10" y="4" style="fill: #82aa28; fill-opacity: 1"></rect>
<rect width="1" height="1" x="11" y="4" style="fill: #82aa28; fill-opacity: 1"></rect>
<rect width="1" height="1" x="12" y="4" style="fill: #82aa28; fill-opacity: 1"></rect>
<rect width="1" height="1" x="13" y="4" style="fill: #82aa28; fill-opacity: 1"></rect>
<rect width="1" height="1" x="14" y="4" style="fill: #82aa28; fill-opacity: 1"></rect>
<rect width="1" height="1" x="15" y="4" style="fill: #82aa28; fill-opacity: 1"></rect>
<rect width="1" height="1" x="16" y="4" style="fill: #82aa28; fill-opacity: 1"></rect>
<rect width="1" height="1" x="17" y="4" style="fill: #82aa28; fill-opacity: 1"></rect>
<rect width="1" height="1" x="18" y="4" style="fill: #82aa28; fill-opacity: 1"></rect>
<rect width="1" height="1" x="19" y="4" style="fill: #82aa28; fill-opacity: 1"></rect>
<rect width="1" height="1" x="20" y="4" style="fill: #82aa28; fill-opacity: 1"></rect>
<rect width="1" height="1" x="21" y="4" style="fill: #82aa28; fill-opacity: 1"></rect>
<rect width="1" height="1" x="22" y="4" style="fill: #82aa28; fill-opacity: 1"></rect>
<rect width="1" height="1" x="23" y="4" style="fill: #82aa28; fill-opacity: 1"></rect>
<rect width="1" height="1" x="24" y="4" style="fill: #82aa28; fill-opacity: 1"></rect>
<rect width="1" height="1" x="25" y="4" style="fill: #82aa28; fill-opacity: 1"></rect>
<rect width="1" height="1" x="6" y="5" style="fill: #57546f; fill-opacity: 1"></rect>
<rect width="1" height="1" x="7" y="5" style="fill: #57546f; fill-opacity: 1"></rect>
<rect width="1" height="1" x="8" y="5" style="fill: #57546f; fill-opacity: 1"></rect>
<rect width="1" height="1" x="9" y="5" style="fill: #57546f; fill-opacity: 1"></rect>
<rect width="1" height="1" x="10" y="5" style="fill: #82aa28; fill-opacity: 1"></rect>
<rect width="1" height="1" x="11" y="5" style="fill: #82aa28; fill-opacity: 1"></rect>
<rect width="1" height="1" x="12" y="5" style="fill: #82aa28; fill-opacity: 1"></rect>
<rect width="1" height="1" x="13" y="5" style="fill: #82aa28; fill-opacity: 1"></rect>
<rect width="1" height="1" x="14" y="5" style="fill: #82aa28; fill-opacity: 1"></rect>
<rect width="1" height="1" x="15" y="5" style="fill: #82aa28; fill-opacity: 1"></rect>
<rect width="1" height="1" x="16" y="5" style="fill: #82aa28; fill-opacity: 1"></rect>
<rect width="1" height="1" x="17" y="5" style="fill: #82aa28; fill-opacity: 1"></rect>
<rect width="1" height="1" x="18" y="5" style="fill: #82aa28; fill-opacity: 1"></rect>
<rect width="1" height="1" x="19" y="5" style="fill: #82aa28; fill-opacity: 1"></rect>
<rect width="1" height="1" x="20" y="5" style="fill: #82aa28; fill-opacity: 1"></rect>
<rect width="1" height="1" x="21" y="5" style="fill: #82aa28; fill-opacity: 1"></rect>
<rect width="1" height="1" x="22" y="5" style="fill: #82aa28; fill-opacity: 1"></rect>
<rect width="1" height="1" x="23" y="5" style="fill: #82aa28; fill-opacity: 1"></rect>
<rect width="1" height="1" x="24" y="5" style="fill: #82aa28; fill-opacity: 1"></rect>
<rect width="1" height="1" x="25" y="5" style="fill: #82aa28; fill-opacity: 1"></rect>
<rect width="1" height="1" x="6" y="6" style="fill: #57546f; fill-opacity: 1"></rect>
<rect width="1" height="1" x="7" y="6" style="fill: #57546f; fill-opacity: 1"></rect>
<rect width="1" height="1" x="8" y="6" style="fill: #57546f; fill-opacity: 1"></rect>
<rect width="1" height="1" x="9" y="6" style="fill: #57546f; fill-opacity: 1"></rect>
<rect width="1" height="1" x="10" y="6" style="fill: #82aa28; fill-opacity: 1"></rect>
<rect width="1" height="1" x="11" y="6" style="fill: #82aa28; fill-opacity: 1"></rect>
<rect width="1" height="1" x="12" y="6" style="fill: #82aa28; fill-opacity: 1"></rect>
<rect width="1" height="1" x="13" y="6" style="fill: #82aa28; fill-opacity: 1"></rect>
<rect width="1" height="1" x="14" y="6" style="fill: #82aa28; fill-opacity: 1"></rect>
<rect width="1" height="1" x="15" y="6" style="fill: #82aa28; fill-opacity: 1"></rect>
<rect width="1" height="1" x="16" y="6" style="fill: #82aa28; fill-opacity: 1"></rect>
<rect width="1" height="1" x="17" y="6" style="fill: #82aa28; fill-opacity: 1"></rect>
<rect width="1" height="1" x="18" y="6" style="fill: #82aa28; fill-opacity: 1"></rect>
<rect width="1" height="1" x="19" y="6" style="fill: #82aa28; fill-opacity: 1"></rect>
<rect width="1" height="1" x="20" y="6" style="fill: #82aa28; fill-opacity: 1"></rect>
<rect width="1" height="1" x="21" y="6" style="fill: #82aa28; fill-opacity: 1"></rect>
<rect width="1" height="1" x="22" y="6" style="fill: #82aa28; fill-opacity: 1"></rect>
<rect width="1" height="1" x="23" y="6" style="fill: #82aa28; fill-opacity: 1"></rect>
<rect width="1" height="1" x="24" y="6" style="fill: #82aa28; fill-opacity: 1"></rect>
<rect width="1" height="1" x="25" y="6" style="fill: #82aa28; fill-opacity: 1"></rect>
<rect width="1" height="1" x="6" y="7" style="fill: #57546f; fill-opacity: 1"></rect>
<rect width="1" height="1" x="7" y="7" style="fill: #57546f; fill-opacity: 1"></rect>
<rect width="1" height="1" x="8" y="7" style="fill: #57546f; fill-opacity: 1"></rect>
<rect width="1" height="1" x="9" y="7" style="fill: #57546f; fill-opacity: 1"></rect>
<rect width="1" height="1" x="10" y="7" style="fill: #82aa28; fill-opacity: 1"></rect>
<rect width="1" height="1" x="11" y="7" style="fill: #82aa28; fill-opacity: 1"></rect>
<rect width="1" height="1" x="12" y="7" style="fill: #82aa28; fill-opacity: 1"></rect>
<rect width="1" height="1" x="13" y="7" style="fill: #82aa28; fill-opacity: 1"></rect>
<rect width="1" height="1" x="14" y="7" style="fill: #82aa28; fill-opacity: 1"></rect>
<rect width="1" height="1" x="15" y="7" style="fill: #82aa28; fill-opacity: 1"></rect>
<rect width="1" height="1" x="16" y="7" style="fill: #82aa28; fill-opacity: 1"></rect>
<rect width="1" height="1" x="17" y="7" style="fill: #82aa28; fill-opacity: 1"></rect>
<rect width="1" height="1" x="18" y="7" style="fill: #82aa28; fill-opacity: 1"></rect>
<rect width="1" height="1" x="19" y="7" style="fill: #82aa28; fill-opacity: 1"></rect>
<rect width="1" height="1" x="20" y="7" style="fill: #82aa28; fill-opacity: 1"></rect>
<rect width="1" height="1" x="21" y="7" style="fill: #82aa28; fill-opacity: 1"></rect>
<rect width="1" height="1" x="22" y="7" style="fill: #82aa28; fill-opacity: 1"></rect>
<rect width="1" height="1" x="23" y="7" style="fill: #82aa28; fill-opacity: 1"></rect>
<rect width="1" height="1" x="24" y="7" style="fill: #82aa28; fill-opacity: 1"></rect>
<rect width="1" height="1" x="25" y="7" style="fill: #82aa28; fill-opacity: 1"></rect>
<rect width="1" height="1" x="6" y="8" style="fill: #57546f; fill-opacity: 1"></rect>
<rect width="1" height="1" x="7" y="8" style="fill: #57546f; fill-opacity: 1"></rect>
<rect width="1" height="1" x="8" y="8" style="fill: #57546f; fill-opacity: 1"></rect>
<rect width="1" height="1" x="9" y="8" style="fill: #57546f; fill-opacity: 1"></rect>
<rect width="1" height="1" x="10" y="8" style="fill: #82aa28; fill-opacity: 1"></rect>
<rect width="1" height="1" x="11" y="8" style="fill: #82aa28; fill-opacity: 1"></rect>
<rect width="1" height="1" x="12" y="8" style="fill: #82aa28; fill-opacity: 1"></rect>
<rect width="1" height="1" x="13" y="8" style="fill: #82aa28; fill-opacity: 1"></rect>
<rect width="1" height="1" x="14" y="8" style="fill: #82aa28; fill-opacity: 1"></rect>
<rect width="1" height="1" x="15" y="8" style="fill: #82aa28; fill-opacity: 1"></rect>
<rect width="1" height="1" x="16" y="8" style="fill: #82aa28; fill-opacity: 1"></rect>
<rect width="1" height="1" x="17" y="8" style="fill: #82aa28; fill-opacity: 1"></rect>
<rect width="1" height="1" x="18" y="8" style="fill: #82aa28; fill-opacity: 1"></rect>
<rect width="1" height="1" x="19" y="8" style="fill: #82aa28; fill-opacity: 1"></rect>
<rect width="1" height="1" x="20" y="8" style="fill: #82aa28; fill-opacity: 1"></rect>
<rect width="1" height="1" x="21" y="8" style="fill: #82aa28; fill-opacity: 1"></rect>
<rect width="1" height="1" x="22" y="8" style="fill: #82aa28; fill-opacity: 1"></rect>
<rect width="1" height="1" x="23" y="8" style="fill: #82aa28; fill-opacity: 1"></rect>
<rect width="1" height="1" x="24" y="8" style="fill: #82aa28; fill-opacity: 1"></rect>
<rect width="1" height="1" x="25" y="8" style="fill: #82aa28; fill-opacity: 1"></rect>
<rect width="1" height="1" x="6" y="9" style="fill: #57546f; fill-opacity: 1"></rect>
<rect width="1" height="1" x="7" y="9" style="fill: #57546f; fill-opacity: 1"></rect>
<rect width="1" height="1" x="8" y="9" style="fill: #57546f; fill-opacity: 1"></rect>
<rect width="1" height="1" x="9" y="9" style="fill: #57546f; fill-opacity: 1"></rect>
<rect width="1" height="1" x="10" y="9" style="fill: #82aa28; fill-opacity: 1"></rect>
<rect width="1" height="1" x="11" y="9" style="fill: #82aa28; fill-opacity: 1"></rect>
<rect width="1" height="1" x="12" y="9" style="fill: #82aa28; fill-opacity: 1"></rect>
<rect width="1" height="1" x="13" y="9" style="fill: #82aa28; fill-opacity: 1"></rect>
<rect width="1" height="1" x="14" y="9" style="fill: #82aa28; fill-opacity: 1"></rect>
<rect width="1" height="1" x="15" y="9" style="fill: #82aa28; fill-opacity: 1"></rect>
<rect width="1" height="1" x="16" y="9" style="fill: #82aa28; fill-opacity: 1"></rect>
<rect width="1" height="1" x="17" y="9" style="fill: #82aa28; fill-opacity: 1"></rect>
<rect width="1" height="1" x="18" y="9" style="fill: #82aa28; fill-opacity: 1"></rect>
<rect width="1" height="1" x="19" y="9" style="fill: #82aa28; fill-opacity: 1"></rect>
<rect width="1" height="1" x="20" y="9" style="fill: #82aa28; fill-opacity: 1"></rect>
<rect width="1" height="1" x="21" y="9" style="fill: #82aa28; fill-opacity: 1"></rect>
<rect width="1" height="1" x="22" y="9" style="fill: #82aa28; fill-opacity: 1"></rect>
<rect width="1" height="1" x="23" y="9" style="fill: #82aa28; fill-opacity: 1"></rect>
<rect width="1" height="1" x="24" y="9" style="fill: #82aa28; fill-opacity: 1"></rect>
<rect width="1" height="1" x="25" y="9" style="fill: #82aa28; fill-opacity: 1"></rect>
<rect width="1" height="1" x="6" y="10" style="fill: #57546f; fill-opacity: 1"></rect>
<rect width="1" height="1" x="7" y="10" style="fill: #57546f; fill-opacity: 1"></rect>
<rect width="1" height="1" x="8" y="10" style="fill: #57546f; fill-opacity: 1"></rect>
<rect width="1" height="1" x="9" y="10" style="fill: #57546f; fill-opacity: 1"></rect>
<rect width="1" height="1" x="10" y="10" style="fill: #82aa28; fill-opacity: 1"></rect>
<rect width="1" height="1" x="11" y="10" style="fill: #82aa28; fill-opacity: 1"></rect>
<rect width="1" height="1" x="12" y="10" style="fill: #82aa28; fill-opacity: 1"></rect>
<rect width="1" height="1" x="13" y="10" style="fill: #82aa28; fill-opacity: 1"></rect>
<rect width="1" height="1" x="14" y="10" style="fill: #82aa28; fill-opacity: 1"></rect>
<rect width="1" height="1" x="15" y="10" style="fill: #82aa28; fill-opacity: 1"></rect>
<rect width="1" height="1" x="16" y="10" style="fill: #82aa28; fill-opacity: 1"></rect>
<rect width="1" height="1" x="17" y="10" style="fill: #82aa28; fill-opacity: 1"></rect>
<rect width="1" height="1" x="18" y="10" style="fill: #82aa28; fill-opacity: 1"></rect>
<rect width="1" height="1" x="19" y="10" style="fill: #82aa28; fill-opacity: 1"></rect>
<rect width="1" height="1" x="20" y="10" style="fill: #82aa28; fill-opacity: 1"></rect>
<rect width="1" height="1" x="21" y="10" style="fill: #82aa28; fill-opacity: 1"></rect>
<rect width="1" height="1" x="22" y="10" style="fill: #82aa28; fill-opacity: 1"></rect>
<rect width="1" height="1" x="23" y="10" style="fill: #82aa28; fill-opacity: 1"></rect>
<rect width="1" height="1" x="24" y="10" style="fill: #82aa28; fill-opacity: 1"></rect>
<rect width="1" height="1" x="25" y="10" style="fill: #82aa28; fill-opacity: 1"></rect>
<rect width="1" height="1" x="6" y="11" style="fill: #57546f; fill-opacity: 1"></rect>
<rect width="1" height="1" x="7" y="11" style="fill: #57546f; fill-opacity: 1"></rect>
<rect width="1" height="1" x="8" y="11" style="fill: #57546f; fill-opacity: 1"></rect>
<rect width="1" height="1" x="9" y="11" style="fill: #57546f; fill-opacity: 1"></rect>
<rect width="1" height="1" x="10" y="11" style="fill: #82aa28; fill-opacity: 1"></rect>
<rect width="1" height="1" x="11" y="11" style="fill: #82aa28; fill-opacity: 1"></rect>
<rect width="1" height="1" x="12" y="11" style="fill: #82aa28; fill-opacity: 1"></rect>
<rect width="1" height="1" x="13" y="11" style="fill: #82aa28; fill-opacity: 1"></rect>
<rect width="1" height="1" x="14" y="11" style="fill: #82aa28; fill-opacity: 1"></rect>
<rect width="1" height="1" x="15" y="11" style="fill: #82aa28; fill-opacity: 1"></rect>
<rect width="1" height="1" x="16" y="11" style="fill: #82aa28; fill-opacity: 1"></rect>
<rect width="1" height="1" x="17" y="11" style="fill: #82aa28; fill-opacity: 1"></rect>
<rect width="1" height="1" x="18" y="11" style="fill: #82aa28; fill-opacity: 1"></rect>
<rect width="1" height="1" x="19" y="11" style="fill: #82aa28; fill-opacity: 1"></rect>
<rect width="1" height="1" x="20" y="11" style="fill: #82aa28; fill-opacity: 1"></rect>
<rect width="1" height="1" x="21" y="11" style="fill: #82aa28; fill-opacity: 1"></rect>
<rect width="1" height="1" x="22" y="11" style="fill: #82aa28; fill-opacity: 1"></rect>
<rect width="1" height="1" x="23" y="11" style="fill: #82aa28; fill-opacity: 1"></rect>
<rect width="1" height="1" x="24" y="11" style="fill: #82aa28; fill-opacity: 1"></rect>
<rect width="1" height="1" x="25" y="11" style="fill: #82aa28; fill-opacity: 1"></rect>
<rect width="1" height="1" x="6" y="12" style="fill: #57546f; fill-opacity: 1"></rect>
<rect width="1" height="1" x="7" y="12" style="fill: #57546f; fill-opacity: 1"></rect>
<rect width="1" height="1" x="8" y="12" style="fill: #57546f; fill-opacity: 1"></rect>
<rect width="1" height="1" x="9" y="12" style="fill: #57546f; fill-opacity: 1"></rect>
<rect width="1" height="1" x="10" y="12" style="fill: #82aa28; fill-opacity: 1"></rect>
<rect width="1" height="1" x="11" y="12" style="fill: #82aa28; fill-opacity: 1"></rect>
<rect width="1" height="1" x="12" y="12" style="fill: #82aa28; fill-opacity: 1"></rect>
<rect width="1" height="1" x="13" y="12" style="fill: #82aa28; fill-opacity: 1"></rect>
<rect width="1" height="1" x="14" y="12" style="fill: #82aa28; fill-opacity: 1"></rect>
<rect width="1" height="1" x="15" y="12" style="fill: #82aa28; fill-opacity: 1"></rect>
<rect width="1" height="1" x="16" y="12" style="fill: #82aa28; fill-opacity: 1"></rect>
<rect width="1" height="1" x="17" y="12" style="fill: #82aa28; fill-opacity: 1"></rect>
<rect width="1" height="1" x="18" y="12" style="fill: #82aa28; fill-opacity: 1"></rect>
<rect width="1" height="1" x="19" y="12" style="fill: #82aa28; fill-opacity: 1"></rect>
<rect width="1" height="1" x="20" y="12" style="fill: #82aa28; fill-opacity: 1"></rect>
<rect width="1" height="1" x="21" y="12" style="fill: #82aa28; fill-opacity: 1"></rect>
<rect width="1" height="1" x="22" y="12" style="fill: #82aa28; fill-opacity: 1"></rect>
<rect width="1" height="1" x="23" y="12" style="fill: #82aa28; fill-opacity: 1"></rect>
<rect width="1" height="1" x="24" y="12" style="fill: #82aa28; fill-opacity: 1"></rect>
<rect width="1" height="1" x="25" y="12" style="fill: #82aa28; fill-opacity: 1"></rect>
<rect width="1" height="1" x="6" y="13" style="fill: #57546f; fill-opacity: 1"></rect>
<rect width="1" height="1" x="7" y="13" style="fill: #57546f; fill-opacity: 1"></rect>
<rect width="1" height="1" x="8" y="13" style="fill: #57546f; fill-opacity: 1"></rect>
<rect width="1" height="1" x="9" y="13" style="fill: #57546f; fill-opacity: 1"></rect>
<rect width="1" height="1" x="10" y="13" style="fill: #82aa28; fill-opacity: 1"></rect>
<rect width="1" height="1" x="11" y="13" style="fill: #82aa28; fill-opacity: 1"></rect>
<rect width="1" height="1" x="12" y="13" style="fill: #82aa28; fill-opacity: 1"></rect>
<rect width="1" height="1" x="13" y="13" style="fill: #82aa28; fill-opacity: 1"></rect>
<rect width="1" height="1" x="14" y="13" style="fill: #82aa28; fill-opacity: 1"></rect>
<rect width="1" height="1" x="15" y="13" style="fill: #82aa28; fill-opacity: 1"></rect>
<rect width="1" height="1" x="16" y="13" style="fill: #82aa28; fill-opacity: 1"></rect>
<rect width="1" height="1" x="17" y="13" style="fill: #82aa28; fill-opacity: 1"></rect>
<rect width="1" height="1" x="18" y="13" style="fill: #82aa28; fill-opacity: 1"></rect>
<rect width="1" height="1" x="19" y="13" style="fill: #82aa28; fill-opacity: 1"></rect>
<rect width="1" height="1" x="20" y="13" style="fill: #82aa28; fill-opacity: 1"></rect>
<rect width="1" height="1" x="21" y="13" style="fill: #82aa28; fill-opacity: 1"></rect>
<rect width="1" height="1" x="22" y="13" style="fill: #82aa28; fill-opacity: 1"></rect>
<rect width="1" height="1" x="23" y="13" style="fill: #82aa28; fill-opacity: 1"></rect>
<rect width="1" height="1" x="24" y="13" style="fill: #82aa28; fill-opacity: 1"></rect>
<rect width="1" height="1" x="25" y="13" style="fill: #82aa28; fill-opacity: 1"></rect>
<rect width="1" height="1" x="6" y="14" style="fill: #57546f; fill-opacity: 1"></rect>
<rect width="1" height="1" x="7" y="14" style="fill: #57546f; fill-opacity: 1"></rect>
<rect width="1" height="1" x="8" y="14" style="fill: #57546f; fill-opacity: 1"></rect>
<rect width="1" height="1" x="9" y="14" style="fill: #57546f; fill-opacity: 1"></rect>
<rect width="1" height="1" x="10" y="14" style="fill: #82aa28; fill-opacity: 1"></rect>
<rect width="1" height="1" x="11" y="14" style="fill: #82aa28; fill-opacity: 1"></rect>
<rect width="1" height="1" x="12" y="14" style="fill: #82aa28; fill-opacity: 1"></rect>
<rect width="1" height="1" x="13" y="14" style="fill: #82aa28; fill-opacity: 1"></rect>
<rect width="1" height="1" x="14" y="14" style="fill: #82aa28; fill-opacity: 1"></rect>
<rect width="1" height="1" x="15" y="14" style="fill: #82aa28; fill-opacity: 1"></rect>
<rect width="1" height="1" x="16" y="14" style="fill: #82aa28; fill-opacity: 1"></rect>
<rect width="1" height="1" x="17" y="14" style="fill: #82aa28; fill-opacity: 1"></rect>
<rect width="1" height="1" x="18" y="14" style="fill: #82aa28; fill-opacity: 1"></rect>
<rect width="1" height="1" x="19" y="14" style="fill: #82aa28; fill-opacity: 1"></rect>
<rect width="1" height="1" x="20" y="14" style="fill: #82aa28; fill-opacity: 1"></rect>
<rect width="1" height="1" x="21" y="14" style="fill: #82aa28; fill-opacity: 1"></rect>
<rect width="1" height="1" x="22" y="14" style="fill: #82aa28; fill-opacity: 1"></rect>
<rect width="1" height="1" x="23" y="14" style="fill: #82aa28; fill-opacity: 1"></rect>
<rect width="1" height="1" x="24" y="14" style="fill: #82aa28; fill-opacity: 1"></rect>
<rect width="1" height="1" x="25" y="14" style="fill: #82aa28; fill-opacity: 1"></rect>
<rect width="1" height="1" x="6" y="15" style="fill: #57546f; fill-opacity: 1"></rect>
<rect width="1" height="1" x="7" y="15" style="fill: #57546f; fill-opacity: 1"></rect>
<rect width="1" height="1" x="8" y="15" style="fill: #57546f; fill-opacity: 1"></rect>
<rect width="1" height="1" x="9" y="15" style="fill: #57546f; fill-opacity: 1"></rect>
<rect width="1" height="1" x="6" y="16" style="fill: #57546f; fill-opacity: 1"></rect>
<rect width="1" height="1" x="7" y="16" style="fill: #57546f; fill-opacity: 1"></rect>
<rect width="1" height="1" x="8" y="16" style="fill: #57546f; fill-opacity: 1"></rect>
<rect width="1" height="1" x="9" y="16" style="fill: #57546f; fill-opacity: 1"></rect>
<rect width="1" height="1" x="6" y="17" style="fill: #57546f; fill-opacity: 1"></rect>
<rect width="1" height="1" x="7" y="17" style="fill: #57546f; fill-opacity: 1"></rect>
<rect width="1" height="1" x="8" y="17" style="fill: #57546f; fill-opacity: 1"></rect>
<rect width="1" height="1" x="9" y="17" style="fill: #57546f; fill-opacity: 1"></rect>
<rect width="1" height="1" x="6" y="18" style="fill: #57546f; fill-opacity: 1"></rect>
<rect width="1" height="1" x="7" y="18" style="fill: #57546f; fill-opacity: 1"></rect>
<rect width="1" height="1" x="8" y="18" style="fill: #57546f; fill-opacity: 1"></rect>
<rect width="1" height="1" x="9" y="18" style="fill: #57546f; fill-opacity: 1"></rect>
<rect width="1" height="1" x="6" y="19" style="fill: #57546f; fill-opacity: 1"></rect>
<rect width="1" height="1" x="7" y="19" style="fill: #57546f; fill-opacity: 1"></rect>
<rect width="1" height="1" x="8" y="19" style="fill: #57546f; fill-opacity: 1"></rect>
<rect width="1" height="1" x="9" y="19" style="fill: #57546f; fill-opacity: 1"></rect>
<rect width="1" height="1" x="6" y="20" style="fill: #57546f; fill-opacity: 1"></rect>
<rect width="1" height="1" x="7" y="20" style="fill: #57546f; fill-opacity: 1"></rect>
<rect width="1" height="1" x="8" y="20" style="fill: #57546f; fill-opacity: 1"></rect>
<rect width="1" height="1" x="9" y="20" style="fill: #57546f; fill-opacity: 1"></rect>
<rect width="1" height="1" x="6" y="21" style="fill: #57546f; fill-opacity: 1"></rect>
<rect width="1" height="1" x="7" y="21" style="fill: #57546f; fill-opacity: 1"></rect>
<rect width="1" height="1" x="8" y="21" style="fill: #57546f; fill-opacity: 1"></rect>
<rect width="1" height="1" x="9" y="21" style="fill: #57546f; fill-opacity: 1"></rect>
<rect width="1" height="1" x="6" y="22" style="fill: #57546f; fill-opacity: 1"></rect>
<rect width="1" height="1" x="7" y="22" style="fill: #57546f; fill-opacity: 1"></rect>
<rect width="1" height="1" x="8" y="22" style="fill: #57546f; fill-opacity: 1"></rect>
<rect width="1" height="1" x="9" y="22" style="fill: #57546f; fill-opacity: 1"></rect>
<rect width="1" height="1" x="6" y="23" style="fill: #57546f; fill-opacity: 1"></rect>
<rect width="1" height="1" x="7" y="23" style="fill: #57546f; fill-opacity: 1"></rect>
<rect width="1" height="1" x="8" y="23" style="fill: #57546f; fill-opacity: 1"></rect>
<rect width="1" height="1" x="9" y="23" style="fill: #57546f; fill-opacity: 1"></rect>
<rect width="1" height="1" x="6" y="24" style="fill: #57546f; fill-opacity: 1"></rect>
<rect width="1" height="1" x="7" y="24" style="fill: #57546f; fill-opacity: 1"></rect>
<rect width="1" height="1" x="8" y="24" style="fill: #57546f; fill-opacity: 1"></rect>
<rect width="1" height="1" x="9" y="24" style="fill: #57546f; fill-opacity: 1"></rect>
<rect width="1" height="1" x="6" y="25" style="fill: #57546f; fill-opacity: 1"></rect>
<rect width="1" height="1" x="7" y="25" style="fill: #57546f; fill-opacity: 1"></rect>
<rect width="1" height="1" x="8" y="25" style="fill: #57546f; fill-opacity: 1"></rect>
<rect width="1" height="1" x="9" y="25" style="fill: #57546f; fill-opacity: 1"></rect>
<rect width="1" height="1" x="6" y="26" style="fill: #57546f; fill-opacity: 1"></rect>
<rect width="1" height="1" x="7" y="26" style="fill: #57546f; fill-opacity: 1"></rect>
<rect width="1" height="1" x="8" y="26" style="fill: #57546f; fill-opacity: 1"></rect>
<rect width="1" height="1" x="9" y="26" style="fill: #57546f; fill-opacity: 1"></rect>
<rect width="1" height="1" x="6" y="27" style="fill: #57546f; fill-opacity: 1"></rect>
<rect width="1" height="1" x="7" y="27" style="fill: #57546f; fill-opacity: 1"></rect>
<rect width="1" height="1" x="8" y="27" style="fill: #57546f; fill-opacity: 1"></rect>
<rect width="1" height="1" x="9" y="27" style="fill: #57546f; fill-opacity: 1"></rect>
<rect width="1" height="1" x="6" y="28" style="fill: #57546f; fill-opacity: 1"></rect>
<rect width="1" height="1" x="7" y="28" style="fill: #57546f; fill-opacity: 1"></rect>
<rect width="1" height="1" x="8" y="28" style="fill: #57546f; fill-opacity: 1"></rect>
<rect width="1" height="1" x="9" y="28" style="fill: #57546f; fill-opacity: 1"></rect>
<rect width="1" height="1" x="6" y="29" style="fill: #57546f; fill-opacity: 1"></rect>
<rect width="1" height="1" x="7" y="29" style="fill: #57546f; fill-opacity: 1"></rect>
<rect width="1" height="1" x="8" y="29" style="fill: #57546f; fill-opacity: 1"></rect>
<rect width="1" height="1" x="9" y="29" style="fill: #57546f; fill-opacity: 1"></rect>
<rect width="1" height="1" x="6" y="30" style="fill: #57546f; fill-opacity: 1"></rect>
<rect width="1" height="1" x="7" y="30" style="fill: #57546f; fill-opacity: 1"></rect>
<rect width="1" height="1" x="8" y="30" style="fill: #57546f; fill-opacity: 1"></rect>
<rect width="1" height="1" x="9" y="30" style="fill: #57546f; fill-opacity: 1"></rect>
<rect width="1" height="1" x="6" y="31" style="fill: #57546f; fill-opacity: 1"></rect>
<rect width="1" height="1" x="7" y="31" style="fill: #57546f; fill-opacity: 1"></rect>
<rect width="1" height="1" x="8" y="31" style="fill: #57546f; fill-opacity: 1"></rect>
<rect width="1" height="1" x="9" y="31" style="fill: #57546f; fill-opacity: 1"></rect>
</svg>