<?xml version="1.0" encoding="utf-8"?>
<!DOCTYPE svg PUBLIC "-//W3C//DTD SVG 1.1//EN" "http://www.w3.org/Graphics/SVG/1.1/DTD/svg11.dtd"><svg version="1.1" id="Layer_1" xmlns="http://www.w3.org/2000/svg" xmlns:xlink="http://www.w3.org/1999/xlink" x="0px" y="0px"
	 width="32px" height="32px" viewBox="0 0 32 32" enable-background="new 0 0 32 32"
	 xml:space="preserve"><rect width="1" height="1" x="0" y="27" style="fill: #57546f; fill-opacity: 1"></rect>
<rect width="1" height="1" x="1" y="27" style="fill: #57546f; fill-opacity: 1"></rect>
<rect width="1" height="1" x="2" y="27" style="fill: #57546f; fill-opacity: 1"></rect>
<rect width="1" height="1" x="3" y="27" style="fill: #57546f; fill-opacity: 1"></rect>
<rect width="1" height="1" x="4" y="27" style="fill: #57546f; fill-opacity: 1"></rect>
<rect width="1" height="1" x="5" y="27" style="fill: #57546f; fill-opacity: 1"></rect>
<rect width="1" height="1" x="6" y="27" style="fill: #57546f; fill-opacity: 1"></rect>
<rect width="1" height="1" x="7" y="27" style="fill: #57546f; fill-opacity: 1"></rect>
<rect width="1" height="1" x="8" y="27" style="fill: #57546f; fill-opacity: 1"></rect>
<rect width="1" height="1" x="9" y="27" style="fill: #57546f; fill-opacity: 1"></rect>
<rect width="1" height="1" x="10" y="27" style="fill: #57546f; fill-opacity: 1"></rect>
<rect width="1" height="1" x="11" y="27" style="fill: #57546f; fill-opacity: 1"></rect>
<rect width="1" height="1" x="12" y="27" style="fill: #57546f; fill-opacity: 1"></rect>
<rect width="1" height="1" x="13" y="27" style="fill: #57546f; fill-opacity: 1"></rect>
<rect width="1" height="1" x="14" y="27" style="fill: #57546f; fill-opacity: 1"></rect>
<rect width="1" height="1" x="15" y="27" style="fill: #57546f; fill-opacity: 1"></rect>
<rect width="1" height="1" x="16" y="27" style="fill: #57546f; fill-opacity: 1"></rect>
<rect width="1" height="1" x="17" y="27" style="fill: #57546f; fill-opacity: 1"></rect>
<rect width="1" height="1" x="18" y="27" style="fill: #57546f; fill-opacity: 1"></rect>
<rect width="1" height="1" x="19" y="27" style="fill: #57546f; fill-opacity: 1"></rect>
<rect width="1" height="1" x="20" y="27" style="fill: #57546f; fill-opacity: 1"></rect>
<rect width="1" height="1" x="21" y="27" style="fill: #57546f; fill-opacity: 1"></rect>
<rect width="1" height="1" x="22" y="27" style="fill: #57546f; fill-opacity: 1"></rect>
<rect width="1" height="1" x="23" y="27" style="fill: #57546f; fill-opacity: 1"></rect>
<rect width="1" height="1" x="24" y="27" style="fill: #57546f; fill-opacity: 1"></rect>
<rect width="1" height="1" x="25" y="27" style="fill: #57546f; fill-opacity: 1"></rect>
<rect width="1" height="1" x="26" y="27" style="fill: #57546f; fill-opacity: 1"></rect>
<rect width="1" height="1" x="27" y="27" style="fill: #57546f; fill-opacity: 1"></rect>
<rect width="1" height="1" x="28" y="27" style="fill: #57546f; fill-opacity: 1"></rect>
<rect width="1" height="1" x="29" y="27" style="fill: #57546f; fill-opacity: 1"></rect>
<rect width="1" height="1" x="30" y="27" style="fill: #57546f; fill-opacity: 1"></rect>
<rect width="1" height="1" x="31" y="27" style="fill: #57546f; fill-opacity: 1"></rect>
<rect width="1" height="1" x="0" y="28" style="fill: #57546f; fill-opacity: 1"></rect>
<rect width="1" height="1" x="1" y="28" style="fill: #57546f; fill-opacity: 1"></rect>
<rect width="1" height="1" x="2" y="28" style="fill: #57546f; fill-opacity: 1"></rect>
<rect width="1" height="1" x="3" y="28" style="fill: #57546f; fill-opacity: 1"></rect>
<rect width="1" height="1" x="4" y="28" style="fill: #57546f; fill-opacity: 1"></rect>
<rect width="1" height="1" x="5" y="28" style="fill: #57546f; fill-opacity: 1"></rect>
<rect width="1" height="1" x="6" y="28" style="fill: #57546f; fill-opacity: 1"></rect>
<rect width="1" height="1" x="7" y="28" style="fill: #57546f; fill-opacity: 1"></rect>
<rect width="1" height="1" x="8" y="28" style="fill: #57546f; fill-opacity: 1"></rect>
<rect width="1" height="1" x="9" y="28" style="fill: #57546f; fill-opacity: 1"></rect>
<rect width="1" height="1" x="10" y="28" style="fill: #57546f; fill-opacity: 1"></rect>
<rect width="1" height="1" x="11" y="28" style="fill: #57546f; fill-opacity: 1"></rect>
<rect width="1" height="1" x="12" y="28" style="fill: #57546f; fill-opacity: 1"></rect>
<rect width="1" height="1" x="13" y="28" style="fill: #57546f; fill-opacity: 1"></rect>
<rect width="1" height="1" x="14" y="28" style="fill: #57546f; fill-opacity: 1"></rect>
<rect width="1" height="1" x="15" y="28" style="fill: #57546f; fill-opacity: 1"></rect>
<rect width="1" height="1" x="16" y="28" style="fill: #57546f; fill-opacity: 1"></rect>
<rect width="1" height="1" x="17" y="28" style="fill: #57546f; fill-opacity: 1"></rect>
<rect width="1" height="1" x="18" y="28" style="fill: #57546f; fill-opacity: 1"></rect>
<rect width="1" height="1" x="19" y="28" style="fill: #57546f; fill-opacity: 1"></rect>
<rect width="1" height="1" x="20" y="28" style="fill: #57546f; fill-opacity: 1"></rect>
<rect width="1" height="1" x="21" y="28" style="fill: #57546f; fill-opacity: 1"></rect>
<rect width="1" height="1" x="22" y="28" style="fill: #57546f; fill-opacity: 1"></rect>
<rect width="1" height="1" x="23" y="28" style="fill: #57546f; fill-opacity: 1"></rect>
<rect width="1" height="1" x="24" y="28" style="fill: #57546f; fill-opacity: 1"></rect>
<rect width="1" height="1" x="25" y="28" style="fill: #57546f; fill-opacity: 1"></rect>
<rect width="1" height="1" x="26" y="28" style="fill: #57546f; fill-opacity: 1"></rect>
<rect width="1" height="1" x="27" y="28" style="fill: #57546f; fill-opacity: 1"></rect>
<rect width="1" height="1" x="28" y="28" style="fill: #57546f; fill-opacity: 1"></rect>
<rect width="1" height="1" x="29" y="28" style="fill: #57546f; fill-opacity: 1"></rect>
<rect width="1" height="1" x="30" y="28" style="fill: #57546f; fill-opacity: 1"></rect>
<rect width="1" height="1" x="31" y="28" style="fill: #57546f; fill-opacity: 1"></rect>
<rect width="1" height="1" x="0" y="29" style="fill: #57546f; fill-opacity: 1"></rect>
<rect width="1" height="1" x="1" y="29" style="fill: #57546f; fill-opacity: 1"></rect>
<rect width="1" height="1" x="2" y="29" style="fill: #57546f; fill-opacity: 1"></rect>
<rect width="1" height="1" x="3" y="29" style="fill: #57546f; fill-opacity: 1"></rect>
<rect width="1" height="1" x="4" y="29" style="fill: #57546f; fill-opacity: 1"></rect>
<rect width="1" height="1" x="5" y="29" style="fill: #57546f; fill-opacity: 1"></rect>
<rect width="1" height="1" x="6" y="29" style="fill: #57546f; fill-opacity: 1"></rect>
<rect width="1" height="1" x="7" y="29" style="fill: #57546f; fill-opacity: 1"></rect>
<rect width="1" height="1" x="8" y="29" style="fill: #57546f; fill-opacity: 1"></rect>
<rect width="1" height="1" x="9" y="29" style="fill: #57546f; fill-opacity: 1"></rect>
<rect width="1" height="1" x="10" y="29" style="fill: #57546f; fill-opacity: 1"></rect>
<rect width="1" height="1" x="11" y="29" style="fill: #57546f; fill-opacity: 1"></rect>
<rect width="1" height="1" x="12" y="29" style="fill: #57546f; fill-opacity: 1"></rect>
<rect width="1" height="1" x="13" y="29" style="fill: #57546f; fill-opacity: 1"></rect>
<rect width="1" height="1" x="14" y="29" style="fill: #57546f; fill-opacity: 1"></rect>
<rect width="1" height="1" x="15" y="29" style="fill: #57546f; fill-opacity: 1"></rect>
<rect width="1" height="1" x="16" y="29" style="fill: #57546f; fill-opacity: 1"></rect>
<rect width="1" height="1" x="17" y="29" style="fill: #57546f; fill-opacity: 1"></rect>
<rect width="1" height="1" x="18" y="29" style="fill: #57546f; fill-opacity: 1"></rect>
<rect width="1" height="1" x="19" y="29" style="fill: #57546f; fill-opacity: 1"></rect>
<rect width="1" height="1" x="20" y="29" style="fill: #57546f; fill-opacity: 1"></rect>
<rect width="1" height="1" x="21" y="29" style="fill: #57546f; fill-opacity: 1"></rect>
<rect width="1" height="1" x="22" y="29" style="fill: #57546f; fill-opacity: 1"></rect>
<rect width="1" height="1" x="23" y="29" style="fill: #57546f; fill-opacity: 1"></rect>
<rect width="1" height="1" x="24" y="29" style="fill: #57546f; fill-opacity: 1"></rect>
<rect width="1" height="1" x="25" y="29" style="fill: #57546f; fill-opacity: 1"></rect>
<rect width="1" height="1" x="26" y="29" style="fill: #57546f; fill-opacity: 1"></rect>
<rect width="1" height="1" x="27" y="29" style="fill: #57546f; fill-opacity: 1"></rect>
<rect width="1" height="1" x="28" y="29" style="fill: #57546f; fill-opacity: 1"></rect>
<rect width="1" height="1" x="29" y="29" style="fill: #57546f; fill-opacity: 1"></rect>
<rect width="1" height="1" x="30" y="29" style="fill: #57546f; fill-opacity: 1"></rect>
<rect width="1" height="1" x="31" y="29" style="fill: #57546f; fill-opacity: 1"></rect>
<rect width="1" height="1" x="0" y="30" style="fill: #57546f; fill-opacity: 1"></rect>
<rect width="1" height="1" x="1" y="30" style="fill: #57546f; fill-opacity: 1"></rect>
<rect width="1" height="1" x="2" y="30" style="fill: #57546f; fill-opacity: 1"></rect>
<rect width="1" height="1" x="3" y="30" style="fill: #57546f; fill-opacity: 1"></rect>
<rect width="1" height="1" x="4" y="30" style="fill: #57546f; fill-opacity: 1"></rect>
<rect width="1" height="1" x="5" y="30" style="fill: #57546f; fill-opacity: 1"></rect>
<rect width="1" height="1" x="6" y="30" style="fill: #57546f; fill-opacity: 1"></rect>
<rect width="1" height="1" x="7" y="30" style="fill: #57546f; fill-opacity: 1"></rect>
<rect width="1" height="1" x="8" y="30" style="fill: #57546f; fill-opacity: 1"></rect>
<rect width="1" height="1" x="9" y="30" style="fill: #57546f; fill-opacity: 1"></rect>
<rect width="1" height="1" x="10" y="30" style="fill: #57546f; fill-opacity: 1"></rect>
<rect width="1" height="1" x="11" y="30" style="fill: #57546f; fill-opacity: 1"></rect>
<rect width="1" height="1" x="12" y="30" style="fill: #57546f; fill-opacity: 1"></rect>
<rect width="1" height="1" x="13" y="30" style="fill: #57546f; fill-opacity: 1"></rect>
<rect width="1" height="1" x="14" y="30" style="fill: #57546f; fill-opacity: 1"></rect>
<rect width="1" height="1" x="15" y="30" style="fill: #57546f; fill-opacity: 1"></rect>
<rect width="1" height="1" x="16" y="30" style="fill: #57546f; fill-opacity: 1"></rect>
<rect width="1" height="1" x="17" y="30" style="fill: #57546f; fill-opacity: 1"></rect>
<rect width="1" height="1" x="18" y="30" style="fill: #57546f; fill-opacity: 1"></rect>
<rect width="1" height="1" x="19" y="30" style="fill: #57546f; fill-opacity: 1"></rect>
<rect width="1" height="1" x="20" y="30" style="fill: #57546f; fill-opacity: 1"></rect>
<rect width="1" height="1" x="21" y="30" style="fill: #57546f; fill-opacity: 1"></rect>
<rect width="1" height="1" x="22" y="30" style="fill: #57546f; fill-opacity: 1"></rect>
<rect width="1" height="1" x="23" y="30" style="fill: #57546f; fill-opacity: 1"></rect>
<rect width="1" height="1" x="24" y="30" style="fill: #57546f; fill-opacity: 1"></rect>
<rect width="1" height="1" x="25" y="30" style="fill: #57546f; fill-opacity: 1"></rect>
<rect width="1" height="1" x="26" y="30" style="fill: #57546f; fill-opacity: 1"></rect>
<rect width="1" height="1" x="27" y="30" style="fill: #57546f; fill-opacity: 1"></rect>
<rect width="1" height="1" x="28" y="30" style="fill: #57546f; fill-opacity: 1"></rect>
<rect width="1" height="1" x="29" y="30" style="fill: #57546f; fill-opacity: 1"></rect>
<rect width="1" height="1" x="30" y="30" style="fill: #57546f; fill-opacity: 1"></rect>
<rect width="1" height="1" x="31" y="30" style="fill: #57546f; fill-opacity: 1"></rect>
<rect width="1" height="1" x="0" y="31" style="fill: #57546f; fill-opacity: 1"></rect>
<rect width="1" height="1" x="1" y="31" style="fill: #57546f; fill-opacity: 1"></rect>
<rect width="1" height="1" x="2" y="31" style="fill: #57546f; fill-opacity: 1"></rect>
<rect width="1" height="1" x="3" y="31" style="fill: #57546f; fill-opacity: 1"></rect>
<rect width="1" height="1" x="4" y="31" style="fill: #57546f; fill-opacity: 1"></rect>
<rect width="1" height="1" x="5" y="31" style="fill: #57546f; fill-opacity: 1"></rect>
<rect width="1" height="1" x="6" y="31" style="fill: #57546f; fill-opacity: 1"></rect>
<rect width="1" height="1" x="7" y="31" style="fill: #57546f; fill-opacity: 1"></rect>
<rect width="1" height="1" x="8" y="31" style="fill: #57546f; fill-opacity: 1"></rect>
<rect width="1" height="1" x="9" y="31" style="fill: #57546f; fill-opacity: 1"></rect>
<rect width="1" height="1" x="10" y="31" style="fill: #57546f; fill-opacity: 1"></rect>
<rect width="1" height="1" x="11" y="31" style="fill: #57546f; fill-opacity: 1"></rect>
<rect width="1" height="1" x="12" y="31" style="fill: #57546f; fill-opacity: 1"></rect>
<rect width="1" height="1" x="13" y="31" style="fill: #57546f; fill-opacity: 1"></rect>
<rect width="1" height="1" x="14" y="31" style="fill: #57546f; fill-opacity: 1"></rect>
<rect width="1" height="1" x="15" y="31" style="fill: #57546f; fill-opacity: 1"></rect>
<rect width="1" height="1" x="16" y="31" style="fill: #57546f; fill-opacity: 1"></rect>
<rect width="1" height="1" x="17" y="31" style="fill: #57546f; fill-opacity: 1"></rect>
<rect width="1" height="1" x="18" y="31" style="fill: #57546f; fill-opacity: 1"></rect>
<rect width="1" height="1" x="19" y="31" style="fill: #57546f; fill-opacity: 1"></rect>
<rect width="1" height="1" x="20" y="31" style="fill: #57546f; fill-opacity: 1"></rect>
<rect width="1" height="1" x="21" y="31" style="fill: #57546f; fill-opacity: 1"></rect>
<rect width="1" height="1" x="22" y="31" style="fill: #57546f; fill-opacity: 1"></rect>
<rect width="1" height="1" x="23" y="31" style="fill: #57546f; fill-opacity: 1"></rect>
<rect width="1" height="1" x="24" y="31" style="fill: #57546f; fill-opacity: 1"></rect>
<rect width="1" height="1" x="25" y="31" style="fill: #57546f; fill-opacity: 1"></rect>
<rect width="1" height="1" x="26" y="31" style="fill: #57546f; fill-opacity: 1"></rect>
<rect width="1" height="1" x="27" y="31" style="fill: #57546f; fill-opacity: 1"></rect>
<rect width="1" height="1" x="28" y="31" style="fill: #57546f; fill-opacity: 1"></rect>
<rect width="1" height="1" x="29" y="31" style="fill: #57546f; fill-opacity: 1"></rect>
<rect width="1" height="1" x="30" y="31" style="fill: #57546f; fill-opacity: 1"></rect>
<rect width="1" height="1" x="31" y="31" style="fill: #57546f; fill-opacity: 1"></rect>
</svg>