<?xml version="1.0" encoding="utf-8"?>
<!DOCTYPE svg PUBLIC "-//W3C//DTD SVG 1.1//EN" "http://www.w3.org/Graphics/SVG/1.1/DTD/svg11.dtd"><svg version="1.1" id="Layer_1" xmlns="http://www.w3.org/2000/svg" xmlns:xlink="http://www.w3.org/1999/xlink" x="0px" y="0px"
	 width="32px" height="32px" viewBox="0 0 32 32" enable-background="new 0 0 32 32"
	 xml:space="preserve"><rect width="1" height="1" x="0" y="0" style="fill: #57546f; fill-opacity: 1"></rect>
<rect width="1" height="1" x="1" y="0" style="fill: #57546f; fill-opacity: 1"></rect>
<rect width="1" height="1" x="2" y="0" style="fill: #57546f; fill-opacity: 1"></rect>
<rect width="1" height="1" x="3" y="0" style="fill: #57546f; fill-opacity: 1"></rect>
<rect width="1" height="1" x="4" y="0" style="fill: #57546f; fill-opacity: 1"></rect>
<rect width="1" height="1" x="5" y="0" style="fill: #57546f; fill-opacity: 1"></rect>
<rect width="1" height="1" x="6" y="0" style="fill: #57546f; fill-opacity: 1"></rect>
<rect width="1" height="1" x="7" y="0" style="fill: #57546f; fill-opacity: 1"></rect>
<rect width="1" height="1" x="8" y="0" style="fill: #57546f; fill-opacity: 1"></rect>
<rect width="1" height="1" x="9" y="0" style="fill: #57546f; fill-opacity: 1"></rect>
<rect width="1" height="1" x="10" y="0" style="fill: #57546f; fill-opacity: 1"></rect>
<rect width="1" height="1" x="11" y="0" style="fill: #57546f; fill-opacity: 1"></rect>
<rect width="1" height="1" x="12" y="0" style="fill: #57546f; fill-opacity: 1"></rect>
<rect width="1" height="1" x="13" y="0" style="fill: #57546f; fill-opacity: 1"></rect>
<rect width="1" height="1" x="14" y="0" style="fill: #57546f; fill-opacity: 1"></rect>
<rect width="1" height="1" x="15" y="0" style="fill: #57546f; fill-opacity: 1"></rect>
<rect width="1" height="1" x="16" y="0" style="fill: #57546f; fill-opacity: 1"></rect>
<rect width="1" height="1" x="17" y="0" style="fill: #57546f; fill-opacity: 1"></rect>
<rect width="1" height="1" x="18" y="0" style="fill: #57546f; fill-opacity: 1"></rect>
<rect width="1" height="1" x="19" y="0" style="fill: #57546f; fill-opacity: 1"></rect>
<rect width="1" height="1" x="20" y="0" style="fill: #57546f; fill-opacity: 1"></rect>
<rect width="1" height="1" x="21" y="0" style="fill: #57546f; fill-opacity: 1"></rect>
<rect width="1" height="1" x="22" y="0" style="fill: #57546f; fill-opacity: 1"></rect>
<rect width="1" height="1" x="23" y="0" style="fill: #57546f; fill-opacity: 1"></rect>
<rect width="1" height="1" x="24" y="0" style="fill: #57546f; fill-opacity: 1"></rect>
<rect width="1" height="1" x="25" y="0" style="fill: #57546f; fill-opacity: 1"></rect>
<rect width="1" height="1" x="26" y="0" style="fill: #57546f; fill-opacity: 1"></rect>
<rect width="1" height="1" x="27" y="0" style="fill: #57546f; fill-opacity: 1"></rect>
<rect width="1" height="1" x="28" y="0" style="fill: #57546f; fill-opacity: 1"></rect>
<rect width="1" height="1" x="29" y="0" style="fill: #57546f; fill-opacity: 1"></rect>
<rect width="1" height="1" x="30" y="0" style="fill: #57546f; fill-opacity: 1"></rect>
<rect width="1" height="1" x="31" y="0" style="fill: #57546f; fill-opacity: 1"></rect>
<rect width="1" height="1" x="0" y="1" style="fill: #57546f; fill-opacity: 1"></rect>
<rect width="1" height="1" x="1" y="1" style="fill: #57546f; fill-opacity: 1"></rect>
<rect width="1" height="1" x="2" y="1" style="fill: #57546f; fill-opacity: 1"></rect>
<rect width="1" height="1" x="3" y="1" style="fill: #57546f; fill-opacity: 1"></rect>
<rect width="1" height="1" x="4" y="1" style="fill: #57546f; fill-opacity: 1"></rect>
<rect width="1" height="1" x="5" y="1" style="fill: #57546f; fill-opacity: 1"></rect>
<rect width="1" height="1" x="6" y="1" style="fill: #57546f; fill-opacity: 1"></rect>
<rect width="1" height="1" x="7" y="1" style="fill: #57546f; fill-opacity: 1"></rect>
<rect width="1" height="1" x="8" y="1" style="fill: #57546f; fill-opacity: 1"></rect>
<rect width="1" height="1" x="9" y="1" style="fill: #57546f; fill-opacity: 1"></rect>
<rect width="1" height="1" x="10" y="1" style="fill: #57546f; fill-opacity: 1"></rect>
<rect width="1" height="1" x="11" y="1" style="fill: #57546f; fill-opacity: 1"></rect>
<rect width="1" height="1" x="12" y="1" style="fill: #57546f; fill-opacity: 1"></rect>
<rect width="1" height="1" x="13" y="1" style="fill: #57546f; fill-opacity: 1"></rect>
<rect width="1" height="1" x="14" y="1" style="fill: #57546f; fill-opacity: 1"></rect>
<rect width="1" height="1" x="15" y="1" style="fill: #57546f; fill-opacity: 1"></rect>
<rect width="1" height="1" x="16" y="1" style="fill: #57546f; fill-opacity: 1"></rect>
<rect width="1" height="1" x="17" y="1" style="fill: #57546f; fill-opacity: 1"></rect>
<rect width="1" height="1" x="18" y="1" style="fill: #57546f; fill-opacity: 1"></rect>
<rect width="1" height="1" x="19" y="1" style="fill: #57546f; fill-opacity: 1"></rect>
<rect width="1" height="1" x="20" y="1" style="fill: #57546f; fill-opacity: 1"></rect>
<rect width="1" height="1" x="21" y="1" style="fill: #57546f; fill-opacity: 1"></rect>
<rect width="1" height="1" x="22" y="1" style="fill: #57546f; fill-opacity: 1"></rect>
<rect width="1" height="1" x="23" y="1" style="fill: #57546f; fill-opacity: 1"></rect>
<rect width="1" height="1" x="24" y="1" style="fill: #57546f; fill-opacity: 1"></rect>
<rect width="1" height="1" x="25" y="1" style="fill: #57546f; fill-opacity: 1"></rect>
<rect width="1" height="1" x="26" y="1" style="fill: #57546f; fill-opacity: 1"></rect>
<rect width="1" height="1" x="27" y="1" style="fill: #57546f; fill-opacity: 1"></rect>
<rect width="1" height="1" x="28" y="1" style="fill: #57546f; fill-opacity: 1"></rect>
<rect width="1" height="1" x="29" y="1" style="fill: #57546f; fill-opacity: 1"></rect>
<rect width="1" height="1" x="30" y="1" style="fill: #57546f; fill-opacity: 1"></rect>
<rect width="1" height="1" x="31" y="1" style="fill: #57546f; fill-opacity: 1"></rect>
<rect width="1" height="1" x="0" y="2" style="fill: #57546f; fill-opacity: 1"></rect>
<rect width="1" height="1" x="1" y="2" style="fill: #57546f; fill-opacity: 1"></rect>
<rect width="1" height="1" x="2" y="2" style="fill: #57546f; fill-opacity: 1"></rect>
<rect width="1" height="1" x="3" y="2" style="fill: #57546f; fill-opacity: 1"></rect>
<rect width="1" height="1" x="4" y="2" style="fill: #57546f; fill-opacity: 1"></rect>
<rect width="1" height="1" x="5" y="2" style="fill: #57546f; fill-opacity: 1"></rect>
<rect width="1" height="1" x="6" y="2" style="fill: #57546f; fill-opacity: 1"></rect>
<rect width="1" height="1" x="7" y="2" style="fill: #57546f; fill-opacity: 1"></rect>
<rect width="1" height="1" x="8" y="2" style="fill: #57546f; fill-opacity: 1"></rect>
<rect width="1" height="1" x="9" y="2" style="fill: #57546f; fill-opacity: 1"></rect>
<rect width="1" height="1" x="10" y="2" style="fill: #57546f; fill-opacity: 1"></rect>
<rect width="1" height="1" x="11" y="2" style="fill: #57546f; fill-opacity: 1"></rect>
<rect width="1" height="1" x="12" y="2" style="fill: #57546f; fill-opacity: 1"></rect>
<rect width="1" height="1" x="13" y="2" style="fill: #57546f; fill-opacity: 1"></rect>
<rect width="1" height="1" x="14" y="2" style="fill: #57546f; fill-opacity: 1"></rect>
<rect width="1" height="1" x="15" y="2" style="fill: #57546f; fill-opacity: 1"></rect>
<rect width="1" height="1" x="16" y="2" style="fill: #57546f; fill-opacity: 1"></rect>
<rect width="1" height="1" x="17" y="2" style="fill: #57546f; fill-opacity: 1"></rect>
<rect width="1" height="1" x="18" y="2" style="fill: #57546f; fill-opacity: 1"></rect>
<rect width="1" height="1" x="19" y="2" style="fill: #57546f; fill-opacity: 1"></rect>
<rect width="1" height="1" x="20" y="2" style="fill: #57546f; fill-opacity: 1"></rect>
<rect width="1" height="1" x="21" y="2" style="fill: #57546f; fill-opacity: 1"></rect>
<rect width="1" height="1" x="22" y="2" style="fill: #57546f; fill-opacity: 1"></rect>
<rect width="1" height="1" x="23" y="2" style="fill: #57546f; fill-opacity: 1"></rect>
<rect width="1" height="1" x="24" y="2" style="fill: #57546f; fill-opacity: 1"></rect>
<rect width="1" height="1" x="25" y="2" style="fill: #57546f; fill-opacity: 1"></rect>
<rect width="1" height="1" x="26" y="2" style="fill: #57546f; fill-opacity: 1"></rect>
<rect width="1" height="1" x="27" y="2" style="fill: #57546f; fill-opacity: 1"></rect>
<rect width="1" height="1" x="28" y="2" style="fill: #57546f; fill-opacity: 1"></rect>
<rect width="1" height="1" x="29" y="2" style="fill: #57546f; fill-opacity: 1"></rect>
<rect width="1" height="1" x="30" y="2" style="fill: #57546f; fill-opacity: 1"></rect>
<rect width="1" height="1" x="31" y="2" style="fill: #57546f; fill-opacity: 1"></rect>
<rect width="1" height="1" x="0" y="3" style="fill: #57546f; fill-opacity: 1"></rect>
<rect width="1" height="1" x="1" y="3" style="fill: #57546f; fill-opacity: 1"></rect>
<rect width="1" height="1" x="2" y="3" style="fill: #57546f; fill-opacity: 1"></rect>
<rect width="1" height="1" x="3" y="3" style="fill: #57546f; fill-opacity: 1"></rect>
<rect width="1" height="1" x="4" y="3" style="fill: #57546f; fill-opacity: 1"></rect>
<rect width="1" height="1" x="5" y="3" style="fill: #57546f; fill-opacity: 1"></rect>
<rect width="1" height="1" x="6" y="3" style="fill: #57546f; fill-opacity: 1"></rect>
<rect width="1" height="1" x="7" y="3" style="fill: #57546f; fill-opacity: 1"></rect>
<rect width="1" height="1" x="8" y="3" style="fill: #57546f; fill-opacity: 1"></rect>
<rect width="1" height="1" x="9" y="3" style="fill: #57546f; fill-opacity: 1"></rect>
<rect width="1" height="1" x="10" y="3" style="fill: #57546f; fill-opacity: 1"></rect>
<rect width="1" height="1" x="11" y="3" style="fill: #57546f; fill-opacity: 1"></rect>
<rect width="1" height="1" x="12" y="3" style="fill: #57546f; fill-opacity: 1"></rect>
<rect width="1" height="1" x="13" y="3" style="fill: #57546f; fill-opacity: 1"></rect>
<rect width="1" height="1" x="14" y="3" style="fill: #57546f; fill-opacity: 1"></rect>
<rect width="1" height="1" x="15" y="3" style="fill: #57546f; fill-opacity: 1"></rect>
<rect width="1" height="1" x="16" y="3" style="fill: #57546f; fill-opacity: 1"></rect>
<rect width="1" height="1" x="17" y="3" style="fill: #57546f; fill-opacity: 1"></rect>
<rect width="1" height="1" x="18" y="3" style="fill: #57546f; fill-opacity: 1"></rect>
<rect width="1" height="1" x="19" y="3" style="fill: #57546f; fill-opacity: 1"></rect>
<rect width="1" height="1" x="20" y="3" style="fill: #57546f; fill-opacity: 1"></rect>
<rect width="1" height="1" x="21" y="3" style="fill: #57546f; fill-opacity: 1"></rect>
<rect width="1" height="1" x="22" y="3" style="fill: #57546f; fill-opacity: 1"></rect>
<rect width="1" height="1" x="23" y="3" style="fill: #57546f; fill-opacity: 1"></rect>
<rect width="1" height="1" x="24" y="3" style="fill: #57546f; fill-opacity: 1"></rect>
<rect width="1" height="1" x="25" y="3" style="fill: #57546f; fill-opacity: 1"></rect>
<rect width="1" height="1" x="26" y="3" style="fill: #57546f; fill-opacity: 1"></rect>
<rect width="1" height="1" x="27" y="3" style="fill: #57546f; fill-opacity: 1"></rect>
<rect width="1" height="1" x="28" y="3" style="fill: #57546f; fill-opacity: 1"></rect>
<rect width="1" height="1" x="29" y="3" style="fill: #57546f; fill-opacity: 1"></rect>
<rect width="1" height="1" x="30" y="3" style="fill: #57546f; fill-opacity: 1"></rect>
<rect width="1" height="1" x="31" y="3" style="fill: #57546f; fill-opacity: 1"></rect>
<rect width="1" height="1" x="1" y="4" style="fill: #57546f; fill-opacity: 1"></rect>
<rect width="1" height="1" x="3" y="4" style="fill: #57546f; fill-opacity: 1"></rect>
<rect width="1" height="1" x="5" y="4" style="fill: #57546f; fill-opacity: 1"></rect>
<rect width="1" height="1" x="7" y="4" style="fill: #57546f; fill-opacity: 1"></rect>
<rect width="1" height="1" x="9" y="4" style="fill: #57546f; fill-opacity: 1"></rect>
<rect width="1" height="1" x="11" y="4" style="fill: #57546f; fill-opacity: 1"></rect>
<rect width="1" height="1" x="13" y="4" style="fill: #57546f; fill-opacity: 1"></rect>
<rect width="1" height="1" x="15" y="4" style="fill: #57546f; fill-opacity: 1"></rect>
<rect width="1" height="1" x="17" y="4" style="fill: #57546f; fill-opacity: 1"></rect>
<rect width="1" height="1" x="19" y="4" style="fill: #57546f; fill-opacity: 1"></rect>
<rect width="1" height="1" x="21" y="4" style="fill: #57546f; fill-opacity: 1"></rect>
<rect width="1" height="1" x="23" y="4" style="fill: #57546f; fill-opacity: 1"></rect>
<rect width="1" height="1" x="25" y="4" style="fill: #57546f; fill-opacity: 1"></rect>
<rect width="1" height="1" x="27" y="4" style="fill: #57546f; fill-opacity: 1"></rect>
<rect width="1" height="1" x="29" y="4" style="fill: #57546f; fill-opacity: 1"></rect>
<rect width="1" height="1" x="31" y="4" style="fill: #57546f; fill-opacity: 1"></rect>
</svg>