<?xml version="1.0" encoding="utf-8"?>
<!DOCTYPE svg PUBLIC "-//W3C//DTD SVG 1.1//EN" "http://www.w3.org/Graphics/SVG/1.1/DTD/svg11.dtd"><svg version="1.1" id="Layer_1" xmlns="http://www.w3.org/2000/svg" xmlns:xlink="http://www.w3.org/1999/xlink" x="0px" y="0px"
	 width="32px" height="32px" viewBox="0 0 32 32" enable-background="new 0 0 32 32"
	 xml:space="preserve"><rect width="1" height="1" x="28" y="0" style="fill: #57546f; fill-opacity: 1"></rect>
<rect width="1" height="1" x="29" y="0" style="fill: #57546f; fill-opacity: 1"></rect>
<rect width="1" height="1" x="30" y="0" style="fill: #57546f; fill-opacity: 1"></rect>
<rect width="1" height="1" x="31" y="0" style="fill: #57546f; fill-opacity: 1"></rect>
<rect width="1" height="1" x="27" y="1" style="fill: #57546f; fill-opacity: 1"></rect>
<rect width="1" height="1" x="28" y="1" style="fill: #57546f; fill-opacity: 1"></rect>
<rect width="1" height="1" x="29" y="1" style="fill: #57546f; fill-opacity: 1"></rect>
<rect width="1" height="1" x="30" y="1" style="fill: #57546f; fill-opacity: 1"></rect>
<rect width="1" height="1" x="31" y="1" style="fill: #57546f; fill-opacity: 1"></rect>
<rect width="1" height="1" x="28" y="2" style="fill: #57546f; fill-opacity: 1"></rect>
<rect width="1" height="1" x="29" y="2" style="fill: #57546f; fill-opacity: 1"></rect>
<rect width="1" height="1" x="30" y="2" style="fill: #57546f; fill-opacity: 1"></rect>
<rect width="1" height="1" x="31" y="2" style="fill: #57546f; fill-opacity: 1"></rect>
<rect width="1" height="1" x="27" y="3" style="fill: #57546f; fill-opacity: 1"></rect>
<rect width="1" height="1" x="28" y="3" style="fill: #57546f; fill-opacity: 1"></rect>
<rect width="1" height="1" x="29" y="3" style="fill: #57546f; fill-opacity: 1"></rect>
<rect width="1" height="1" x="30" y="3" style="fill: #57546f; fill-opacity: 1"></rect>
<rect width="1" height="1" x="31" y="3" style="fill: #57546f; fill-opacity: 1"></rect>
<rect width="1" height="1" x="28" y="4" style="fill: #57546f; fill-opacity: 1"></rect>
<rect width="1" height="1" x="29" y="4" style="fill: #57546f; fill-opacity: 1"></rect>
<rect width="1" height="1" x="30" y="4" style="fill: #57546f; fill-opacity: 1"></rect>
<rect width="1" height="1" x="31" y="4" style="fill: #57546f; fill-opacity: 1"></rect>
<rect width="1" height="1" x="27" y="5" style="fill: #57546f; fill-opacity: 1"></rect>
<rect width="1" height="1" x="28" y="5" style="fill: #57546f; fill-opacity: 1"></rect>
<rect width="1" height="1" x="29" y="5" style="fill: #57546f; fill-opacity: 1"></rect>
<rect width="1" height="1" x="30" y="5" style="fill: #57546f; fill-opacity: 1"></rect>
<rect width="1" height="1" x="31" y="5" style="fill: #57546f; fill-opacity: 1"></rect>
<rect width="1" height="1" x="28" y="6" style="fill: #57546f; fill-opacity: 1"></rect>
<rect width="1" height="1" x="29" y="6" style="fill: #57546f; fill-opacity: 1"></rect>
<rect width="1" height="1" x="30" y="6" style="fill: #57546f; fill-opacity: 1"></rect>
<rect width="1" height="1" x="31" y="6" style="fill: #57546f; fill-opacity: 1"></rect>
<rect width="1" height="1" x="27" y="7" style="fill: #57546f; fill-opacity: 1"></rect>
<rect width="1" height="1" x="28" y="7" style="fill: #57546f; fill-opacity: 1"></rect>
<rect width="1" height="1" x="29" y="7" style="fill: #57546f; fill-opacity: 1"></rect>
<rect width="1" height="1" x="30" y="7" style="fill: #57546f; fill-opacity: 1"></rect>
<rect width="1" height="1" x="31" y="7" style="fill: #57546f; fill-opacity: 1"></rect>
<rect width="1" height="1" x="28" y="8" style="fill: #57546f; fill-opacity: 1"></rect>
<rect width="1" height="1" x="29" y="8" style="fill: #57546f; fill-opacity: 1"></rect>
<rect width="1" height="1" x="30" y="8" style="fill: #57546f; fill-opacity: 1"></rect>
<rect width="1" height="1" x="31" y="8" style="fill: #57546f; fill-opacity: 1"></rect>
<rect width="1" height="1" x="27" y="9" style="fill: #57546f; fill-opacity: 1"></rect>
<rect width="1" height="1" x="28" y="9" style="fill: #57546f; fill-opacity: 1"></rect>
<rect width="1" height="1" x="29" y="9" style="fill: #57546f; fill-opacity: 1"></rect>
<rect width="1" height="1" x="30" y="9" style="fill: #57546f; fill-opacity: 1"></rect>
<rect width="1" height="1" x="31" y="9" style="fill: #57546f; fill-opacity: 1"></rect>
<rect width="1" height="1" x="28" y="10" style="fill: #57546f; fill-opacity: 1"></rect>
<rect width="1" height="1" x="29" y="10" style="fill: #57546f; fill-opacity: 1"></rect>
<rect width="1" height="1" x="30" y="10" style="fill: #57546f; fill-opacity: 1"></rect>
<rect width="1" height="1" x="31" y="10" style="fill: #57546f; fill-opacity: 1"></rect>
<rect width="1" height="1" x="27" y="11" style="fill: #57546f; fill-opacity: 1"></rect>
<rect width="1" height="1" x="28" y="11" style="fill: #57546f; fill-opacity: 1"></rect>
<rect width="1" height="1" x="29" y="11" style="fill: #57546f; fill-opacity: 1"></rect>
<rect width="1" height="1" x="30" y="11" style="fill: #57546f; fill-opacity: 1"></rect>
<rect width="1" height="1" x="31" y="11" style="fill: #57546f; fill-opacity: 1"></rect>
<rect width="1" height="1" x="28" y="12" style="fill: #57546f; fill-opacity: 1"></rect>
<rect width="1" height="1" x="29" y="12" style="fill: #57546f; fill-opacity: 1"></rect>
<rect width="1" height="1" x="30" y="12" style="fill: #57546f; fill-opacity: 1"></rect>
<rect width="1" height="1" x="31" y="12" style="fill: #57546f; fill-opacity: 1"></rect>
<rect width="1" height="1" x="27" y="13" style="fill: #57546f; fill-opacity: 1"></rect>
<rect width="1" height="1" x="28" y="13" style="fill: #57546f; fill-opacity: 1"></rect>
<rect width="1" height="1" x="29" y="13" style="fill: #57546f; fill-opacity: 1"></rect>
<rect width="1" height="1" x="30" y="13" style="fill: #57546f; fill-opacity: 1"></rect>
<rect width="1" height="1" x="31" y="13" style="fill: #57546f; fill-opacity: 1"></rect>
<rect width="1" height="1" x="28" y="14" style="fill: #57546f; fill-opacity: 1"></rect>
<rect width="1" height="1" x="29" y="14" style="fill: #57546f; fill-opacity: 1"></rect>
<rect width="1" height="1" x="30" y="14" style="fill: #57546f; fill-opacity: 1"></rect>
<rect width="1" height="1" x="31" y="14" style="fill: #57546f; fill-opacity: 1"></rect>
<rect width="1" height="1" x="27" y="15" style="fill: #57546f; fill-opacity: 1"></rect>
<rect width="1" height="1" x="28" y="15" style="fill: #57546f; fill-opacity: 1"></rect>
<rect width="1" height="1" x="29" y="15" style="fill: #57546f; fill-opacity: 1"></rect>
<rect width="1" height="1" x="30" y="15" style="fill: #57546f; fill-opacity: 1"></rect>
<rect width="1" height="1" x="31" y="15" style="fill: #57546f; fill-opacity: 1"></rect>
<rect width="1" height="1" x="28" y="16" style="fill: #57546f; fill-opacity: 1"></rect>
<rect width="1" height="1" x="29" y="16" style="fill: #57546f; fill-opacity: 1"></rect>
<rect width="1" height="1" x="30" y="16" style="fill: #57546f; fill-opacity: 1"></rect>
<rect width="1" height="1" x="31" y="16" style="fill: #57546f; fill-opacity: 1"></rect>
<rect width="1" height="1" x="27" y="17" style="fill: #57546f; fill-opacity: 1"></rect>
<rect width="1" height="1" x="28" y="17" style="fill: #57546f; fill-opacity: 1"></rect>
<rect width="1" height="1" x="29" y="17" style="fill: #57546f; fill-opacity: 1"></rect>
<rect width="1" height="1" x="30" y="17" style="fill: #57546f; fill-opacity: 1"></rect>
<rect width="1" height="1" x="31" y="17" style="fill: #57546f; fill-opacity: 1"></rect>
<rect width="1" height="1" x="28" y="18" style="fill: #57546f; fill-opacity: 1"></rect>
<rect width="1" height="1" x="29" y="18" style="fill: #57546f; fill-opacity: 1"></rect>
<rect width="1" height="1" x="30" y="18" style="fill: #57546f; fill-opacity: 1"></rect>
<rect width="1" height="1" x="31" y="18" style="fill: #57546f; fill-opacity: 1"></rect>
<rect width="1" height="1" x="27" y="19" style="fill: #57546f; fill-opacity: 1"></rect>
<rect width="1" height="1" x="28" y="19" style="fill: #57546f; fill-opacity: 1"></rect>
<rect width="1" height="1" x="29" y="19" style="fill: #57546f; fill-opacity: 1"></rect>
<rect width="1" height="1" x="30" y="19" style="fill: #57546f; fill-opacity: 1"></rect>
<rect width="1" height="1" x="31" y="19" style="fill: #57546f; fill-opacity: 1"></rect>
<rect width="1" height="1" x="28" y="20" style="fill: #57546f; fill-opacity: 1"></rect>
<rect width="1" height="1" x="29" y="20" style="fill: #57546f; fill-opacity: 1"></rect>
<rect width="1" height="1" x="30" y="20" style="fill: #57546f; fill-opacity: 1"></rect>
<rect width="1" height="1" x="31" y="20" style="fill: #57546f; fill-opacity: 1"></rect>
<rect width="1" height="1" x="27" y="21" style="fill: #57546f; fill-opacity: 1"></rect>
<rect width="1" height="1" x="28" y="21" style="fill: #57546f; fill-opacity: 1"></rect>
<rect width="1" height="1" x="29" y="21" style="fill: #57546f; fill-opacity: 1"></rect>
<rect width="1" height="1" x="30" y="21" style="fill: #57546f; fill-opacity: 1"></rect>
<rect width="1" height="1" x="31" y="21" style="fill: #57546f; fill-opacity: 1"></rect>
<rect width="1" height="1" x="28" y="22" style="fill: #57546f; fill-opacity: 1"></rect>
<rect width="1" height="1" x="29" y="22" style="fill: #57546f; fill-opacity: 1"></rect>
<rect width="1" height="1" x="30" y="22" style="fill: #57546f; fill-opacity: 1"></rect>
<rect width="1" height="1" x="31" y="22" style="fill: #57546f; fill-opacity: 1"></rect>
<rect width="1" height="1" x="27" y="23" style="fill: #57546f; fill-opacity: 1"></rect>
<rect width="1" height="1" x="28" y="23" style="fill: #57546f; fill-opacity: 1"></rect>
<rect width="1" height="1" x="29" y="23" style="fill: #57546f; fill-opacity: 1"></rect>
<rect width="1" height="1" x="30" y="23" style="fill: #57546f; fill-opacity: 1"></rect>
<rect width="1" height="1" x="31" y="23" style="fill: #57546f; fill-opacity: 1"></rect>
<rect width="1" height="1" x="28" y="24" style="fill: #57546f; fill-opacity: 1"></rect>
<rect width="1" height="1" x="29" y="24" style="fill: #57546f; fill-opacity: 1"></rect>
<rect width="1" height="1" x="30" y="24" style="fill: #57546f; fill-opacity: 1"></rect>
<rect width="1" height="1" x="31" y="24" style="fill: #57546f; fill-opacity: 1"></rect>
<rect width="1" height="1" x="27" y="25" style="fill: #57546f; fill-opacity: 1"></rect>
<rect width="1" height="1" x="28" y="25" style="fill: #57546f; fill-opacity: 1"></rect>
<rect width="1" height="1" x="29" y="25" style="fill: #57546f; fill-opacity: 1"></rect>
<rect width="1" height="1" x="30" y="25" style="fill: #57546f; fill-opacity: 1"></rect>
<rect width="1" height="1" x="31" y="25" style="fill: #57546f; fill-opacity: 1"></rect>
<rect width="1" height="1" x="28" y="26" style="fill: #57546f; fill-opacity: 1"></rect>
<rect width="1" height="1" x="29" y="26" style="fill: #57546f; fill-opacity: 1"></rect>
<rect width="1" height="1" x="30" y="26" style="fill: #57546f; fill-opacity: 1"></rect>
<rect width="1" height="1" x="31" y="26" style="fill: #57546f; fill-opacity: 1"></rect>
<rect width="1" height="1" x="27" y="27" style="fill: #57546f; fill-opacity: 1"></rect>
<rect width="1" height="1" x="28" y="27" style="fill: #57546f; fill-opacity: 1"></rect>
<rect width="1" height="1" x="29" y="27" style="fill: #57546f; fill-opacity: 1"></rect>
<rect width="1" height="1" x="30" y="27" style="fill: #57546f; fill-opacity: 1"></rect>
<rect width="1" height="1" x="31" y="27" style="fill: #57546f; fill-opacity: 1"></rect>
<rect width="1" height="1" x="28" y="28" style="fill: #57546f; fill-opacity: 1"></rect>
<rect width="1" height="1" x="29" y="28" style="fill: #57546f; fill-opacity: 1"></rect>
<rect width="1" height="1" x="30" y="28" style="fill: #57546f; fill-opacity: 1"></rect>
<rect width="1" height="1" x="31" y="28" style="fill: #57546f; fill-opacity: 1"></rect>
<rect width="1" height="1" x="27" y="29" style="fill: #57546f; fill-opacity: 1"></rect>
<rect width="1" height="1" x="28" y="29" style="fill: #57546f; fill-opacity: 1"></rect>
<rect width="1" height="1" x="29" y="29" style="fill: #57546f; fill-opacity: 1"></rect>
<rect width="1" height="1" x="30" y="29" style="fill: #57546f; fill-opacity: 1"></rect>
<rect width="1" height="1" x="31" y="29" style="fill: #57546f; fill-opacity: 1"></rect>
<rect width="1" height="1" x="28" y="30" style="fill: #57546f; fill-opacity: 1"></rect>
<rect width="1" height="1" x="29" y="30" style="fill: #57546f; fill-opacity: 1"></rect>
<rect width="1" height="1" x="30" y="30" style="fill: #57546f; fill-opacity: 1"></rect>
<rect width="1" height="1" x="31" y="30" style="fill: #57546f; fill-opacity: 1"></rect>
<rect width="1" height="1" x="27" y="31" style="fill: #57546f; fill-opacity: 1"></rect>
<rect width="1" height="1" x="28" y="31" style="fill: #57546f; fill-opacity: 1"></rect>
<rect width="1" height="1" x="29" y="31" style="fill: #57546f; fill-opacity: 1"></rect>
<rect width="1" height="1" x="30" y="31" style="fill: #57546f; fill-opacity: 1"></rect>
<rect width="1" height="1" x="31" y="31" style="fill: #57546f; fill-opacity: 1"></rect>
</svg>