<?xml version="1.0" encoding="utf-8"?>
<!DOCTYPE svg PUBLIC "-//W3C//DTD SVG 1.1//EN" "http://www.w3.org/Graphics/SVG/1.1/DTD/svg11.dtd"><svg version="1.1" id="Layer_1" xmlns="http://www.w3.org/2000/svg" xmlns:xlink="http://www.w3.org/1999/xlink" x="0px" y="0px"
	 width="32px" height="32px" viewBox="0 0 32 32" enable-background="new 0 0 32 32"
	 xml:space="preserve"><rect width="1" height="1" x="0" y="0" style="fill: #57546f; fill-opacity: 1"></rect>
<rect width="1" height="1" x="1" y="0" style="fill: #57546f; fill-opacity: 1"></rect>
<rect width="1" height="1" x="2" y="0" style="fill: #57546f; fill-opacity: 1"></rect>
<rect width="1" height="1" x="3" y="0" style="fill: #57546f; fill-opacity: 1"></rect>
<rect width="1" height="1" x="4" y="0" style="fill: #57546f; fill-opacity: 1"></rect>
<rect width="1" height="1" x="0" y="1" style="fill: #57546f; fill-opacity: 1"></rect>
<rect width="1" height="1" x="1" y="1" style="fill: #57546f; fill-opacity: 1"></rect>
<rect width="1" height="1" x="2" y="1" style="fill: #57546f; fill-opacity: 1"></rect>
<rect width="1" height="1" x="3" y="1" style="fill: #57546f; fill-opacity: 1"></rect>
<rect width="1" height="1" x="4" y="1" style="fill: #57546f; fill-opacity: 1"></rect>
<rect width="1" height="1" x="0" y="2" style="fill: #57546f; fill-opacity: 1"></rect>
<rect width="1" height="1" x="1" y="2" style="fill: #57546f; fill-opacity: 1"></rect>
<rect width="1" height="1" x="2" y="2" style="fill: #57546f; fill-opacity: 1"></rect>
<rect width="1" height="1" x="3" y="2" style="fill: #57546f; fill-opacity: 1"></rect>
<rect width="1" height="1" x="4" y="2" style="fill: #57546f; fill-opacity: 1"></rect>
<rect width="1" height="1" x="0" y="3" style="fill: #57546f; fill-opacity: 1"></rect>
<rect width="1" height="1" x="1" y="3" style="fill: #57546f; fill-opacity: 1"></rect>
<rect width="1" height="1" x="2" y="3" style="fill: #57546f; fill-opacity: 1"></rect>
<rect width="1" height="1" x="3" y="3" style="fill: #57546f; fill-opacity: 1"></rect>
<rect width="1" height="1" x="4" y="3" style="fill: #57546f; fill-opacity: 1"></rect>
<rect width="1" height="1" x="0" y="4" style="fill: #57546f; fill-opacity: 1"></rect>
<rect width="1" height="1" x="1" y="4" style="fill: #57546f; fill-opacity: 1"></rect>
<rect width="1" height="1" x="2" y="4" style="fill: #57546f; fill-opacity: 1"></rect>
<rect width="1" height="1" x="3" y="4" style="fill: #57546f; fill-opacity: 1"></rect>
<rect width="1" height="1" x="4" y="4" style="fill: #57546f; fill-opacity: 1"></rect>
<rect width="1" height="1" x="0" y="5" style="fill: #57546f; fill-opacity: 1"></rect>
<rect width="1" height="1" x="1" y="5" style="fill: #57546f; fill-opacity: 1"></rect>
<rect width="1" height="1" x="2" y="5" style="fill: #57546f; fill-opacity: 1"></rect>
<rect width="1" height="1" x="3" y="5" style="fill: #57546f; fill-opacity: 1"></rect>
<rect width="1" height="1" x="4" y="5" style="fill: #57546f; fill-opacity: 1"></rect>
<rect width="1" height="1" x="0" y="6" style="fill: #57546f; fill-opacity: 1"></rect>
<rect width="1" height="1" x="1" y="6" style="fill: #57546f; fill-opacity: 1"></rect>
<rect width="1" height="1" x="2" y="6" style="fill: #57546f; fill-opacity: 1"></rect>
<rect width="1" height="1" x="3" y="6" style="fill: #57546f; fill-opacity: 1"></rect>
<rect width="1" height="1" x="4" y="6" style="fill: #57546f; fill-opacity: 1"></rect>
<rect width="1" height="1" x="0" y="7" style="fill: #57546f; fill-opacity: 1"></rect>
<rect width="1" height="1" x="1" y="7" style="fill: #57546f; fill-opacity: 1"></rect>
<rect width="1" height="1" x="2" y="7" style="fill: #57546f; fill-opacity: 1"></rect>
<rect width="1" height="1" x="3" y="7" style="fill: #57546f; fill-opacity: 1"></rect>
<rect width="1" height="1" x="4" y="7" style="fill: #57546f; fill-opacity: 1"></rect>
<rect width="1" height="1" x="0" y="8" style="fill: #57546f; fill-opacity: 1"></rect>
<rect width="1" height="1" x="1" y="8" style="fill: #57546f; fill-opacity: 1"></rect>
<rect width="1" height="1" x="2" y="8" style="fill: #57546f; fill-opacity: 1"></rect>
<rect width="1" height="1" x="3" y="8" style="fill: #57546f; fill-opacity: 1"></rect>
<rect width="1" height="1" x="4" y="8" style="fill: #57546f; fill-opacity: 1"></rect>
<rect width="1" height="1" x="0" y="9" style="fill: #57546f; fill-opacity: 1"></rect>
<rect width="1" height="1" x="1" y="9" style="fill: #57546f; fill-opacity: 1"></rect>
<rect width="1" height="1" x="2" y="9" style="fill: #57546f; fill-opacity: 1"></rect>
<rect width="1" height="1" x="3" y="9" style="fill: #57546f; fill-opacity: 1"></rect>
<rect width="1" height="1" x="4" y="9" style="fill: #57546f; fill-opacity: 1"></rect>
<rect width="1" height="1" x="0" y="10" style="fill: #57546f; fill-opacity: 1"></rect>
<rect width="1" height="1" x="1" y="10" style="fill: #57546f; fill-opacity: 1"></rect>
<rect width="1" height="1" x="2" y="10" style="fill: #57546f; fill-opacity: 1"></rect>
<rect width="1" height="1" x="3" y="10" style="fill: #57546f; fill-opacity: 1"></rect>
<rect width="1" height="1" x="4" y="10" style="fill: #57546f; fill-opacity: 1"></rect>
<rect width="1" height="1" x="0" y="11" style="fill: #57546f; fill-opacity: 1"></rect>
<rect width="1" height="1" x="1" y="11" style="fill: #57546f; fill-opacity: 1"></rect>
<rect width="1" height="1" x="2" y="11" style="fill: #57546f; fill-opacity: 1"></rect>
<rect width="1" height="1" x="3" y="11" style="fill: #57546f; fill-opacity: 1"></rect>
<rect width="1" height="1" x="4" y="11" style="fill: #57546f; fill-opacity: 1"></rect>
<rect width="1" height="1" x="0" y="12" style="fill: #57546f; fill-opacity: 1"></rect>
<rect width="1" height="1" x="1" y="12" style="fill: #57546f; fill-opacity: 1"></rect>
<rect width="1" height="1" x="2" y="12" style="fill: #57546f; fill-opacity: 1"></rect>
<rect width="1" height="1" x="3" y="12" style="fill: #57546f; fill-opacity: 1"></rect>
<rect width="1" height="1" x="4" y="12" style="fill: #57546f; fill-opacity: 1"></rect>
<rect width="1" height="1" x="0" y="13" style="fill: #57546f; fill-opacity: 1"></rect>
<rect width="1" height="1" x="1" y="13" style="fill: #57546f; fill-opacity: 1"></rect>
<rect width="1" height="1" x="2" y="13" style="fill: #57546f; fill-opacity: 1"></rect>
<rect width="1" height="1" x="3" y="13" style="fill: #57546f; fill-opacity: 1"></rect>
<rect width="1" height="1" x="4" y="13" style="fill: #57546f; fill-opacity: 1"></rect>
<rect width="1" height="1" x="0" y="14" style="fill: #57546f; fill-opacity: 1"></rect>
<rect width="1" height="1" x="1" y="14" style="fill: #57546f; fill-opacity: 1"></rect>
<rect width="1" height="1" x="2" y="14" style="fill: #57546f; fill-opacity: 1"></rect>
<rect width="1" height="1" x="3" y="14" style="fill: #57546f; fill-opacity: 1"></rect>
<rect width="1" height="1" x="4" y="14" style="fill: #57546f; fill-opacity: 1"></rect>
<rect width="1" height="1" x="0" y="15" style="fill: #57546f; fill-opacity: 1"></rect>
<rect width="1" height="1" x="1" y="15" style="fill: #57546f; fill-opacity: 1"></rect>
<rect width="1" height="1" x="2" y="15" style="fill: #57546f; fill-opacity: 1"></rect>
<rect width="1" height="1" x="3" y="15" style="fill: #57546f; fill-opacity: 1"></rect>
<rect width="1" height="1" x="4" y="15" style="fill: #57546f; fill-opacity: 1"></rect>
<rect width="1" height="1" x="0" y="16" style="fill: #57546f; fill-opacity: 1"></rect>
<rect width="1" height="1" x="1" y="16" style="fill: #57546f; fill-opacity: 1"></rect>
<rect width="1" height="1" x="2" y="16" style="fill: #57546f; fill-opacity: 1"></rect>
<rect width="1" height="1" x="3" y="16" style="fill: #57546f; fill-opacity: 1"></rect>
<rect width="1" height="1" x="4" y="16" style="fill: #57546f; fill-opacity: 1"></rect>
<rect width="1" height="1" x="0" y="17" style="fill: #57546f; fill-opacity: 1"></rect>
<rect width="1" height="1" x="1" y="17" style="fill: #57546f; fill-opacity: 1"></rect>
<rect width="1" height="1" x="2" y="17" style="fill: #57546f; fill-opacity: 1"></rect>
<rect width="1" height="1" x="3" y="17" style="fill: #57546f; fill-opacity: 1"></rect>
<rect width="1" height="1" x="4" y="17" style="fill: #57546f; fill-opacity: 1"></rect>
<rect width="1" height="1" x="0" y="18" style="fill: #57546f; fill-opacity: 1"></rect>
<rect width="1" height="1" x="1" y="18" style="fill: #57546f; fill-opacity: 1"></rect>
<rect width="1" height="1" x="2" y="18" style="fill: #57546f; fill-opacity: 1"></rect>
<rect width="1" height="1" x="3" y="18" style="fill: #57546f; fill-opacity: 1"></rect>
<rect width="1" height="1" x="4" y="18" style="fill: #57546f; fill-opacity: 1"></rect>
<rect width="1" height="1" x="0" y="19" style="fill: #57546f; fill-opacity: 1"></rect>
<rect width="1" height="1" x="1" y="19" style="fill: #57546f; fill-opacity: 1"></rect>
<rect width="1" height="1" x="2" y="19" style="fill: #57546f; fill-opacity: 1"></rect>
<rect width="1" height="1" x="3" y="19" style="fill: #57546f; fill-opacity: 1"></rect>
<rect width="1" height="1" x="4" y="19" style="fill: #57546f; fill-opacity: 1"></rect>
<rect width="1" height="1" x="0" y="20" style="fill: #57546f; fill-opacity: 1"></rect>
<rect width="1" height="1" x="1" y="20" style="fill: #57546f; fill-opacity: 1"></rect>
<rect width="1" height="1" x="2" y="20" style="fill: #57546f; fill-opacity: 1"></rect>
<rect width="1" height="1" x="3" y="20" style="fill: #57546f; fill-opacity: 1"></rect>
<rect width="1" height="1" x="4" y="20" style="fill: #57546f; fill-opacity: 1"></rect>
<rect width="1" height="1" x="0" y="21" style="fill: #57546f; fill-opacity: 1"></rect>
<rect width="1" height="1" x="1" y="21" style="fill: #57546f; fill-opacity: 1"></rect>
<rect width="1" height="1" x="2" y="21" style="fill: #57546f; fill-opacity: 1"></rect>
<rect width="1" height="1" x="3" y="21" style="fill: #57546f; fill-opacity: 1"></rect>
<rect width="1" height="1" x="4" y="21" style="fill: #57546f; fill-opacity: 1"></rect>
<rect width="1" height="1" x="0" y="22" style="fill: #57546f; fill-opacity: 1"></rect>
<rect width="1" height="1" x="1" y="22" style="fill: #57546f; fill-opacity: 1"></rect>
<rect width="1" height="1" x="2" y="22" style="fill: #57546f; fill-opacity: 1"></rect>
<rect width="1" height="1" x="3" y="22" style="fill: #57546f; fill-opacity: 1"></rect>
<rect width="1" height="1" x="4" y="22" style="fill: #57546f; fill-opacity: 1"></rect>
<rect width="1" height="1" x="0" y="23" style="fill: #57546f; fill-opacity: 1"></rect>
<rect width="1" height="1" x="1" y="23" style="fill: #57546f; fill-opacity: 1"></rect>
<rect width="1" height="1" x="2" y="23" style="fill: #57546f; fill-opacity: 1"></rect>
<rect width="1" height="1" x="3" y="23" style="fill: #57546f; fill-opacity: 1"></rect>
<rect width="1" height="1" x="4" y="23" style="fill: #57546f; fill-opacity: 1"></rect>
<rect width="1" height="1" x="0" y="24" style="fill: #57546f; fill-opacity: 1"></rect>
<rect width="1" height="1" x="1" y="24" style="fill: #57546f; fill-opacity: 1"></rect>
<rect width="1" height="1" x="2" y="24" style="fill: #57546f; fill-opacity: 1"></rect>
<rect width="1" height="1" x="3" y="24" style="fill: #57546f; fill-opacity: 1"></rect>
<rect width="1" height="1" x="4" y="24" style="fill: #57546f; fill-opacity: 1"></rect>
<rect width="1" height="1" x="0" y="25" style="fill: #57546f; fill-opacity: 1"></rect>
<rect width="1" height="1" x="1" y="25" style="fill: #57546f; fill-opacity: 1"></rect>
<rect width="1" height="1" x="2" y="25" style="fill: #57546f; fill-opacity: 1"></rect>
<rect width="1" height="1" x="3" y="25" style="fill: #57546f; fill-opacity: 1"></rect>
<rect width="1" height="1" x="4" y="25" style="fill: #57546f; fill-opacity: 1"></rect>
<rect width="1" height="1" x="0" y="26" style="fill: #57546f; fill-opacity: 1"></rect>
<rect width="1" height="1" x="1" y="26" style="fill: #57546f; fill-opacity: 1"></rect>
<rect width="1" height="1" x="2" y="26" style="fill: #57546f; fill-opacity: 1"></rect>
<rect width="1" height="1" x="3" y="26" style="fill: #57546f; fill-opacity: 1"></rect>
<rect width="1" height="1" x="4" y="26" style="fill: #57546f; fill-opacity: 1"></rect>
<rect width="1" height="1" x="0" y="27" style="fill: #57546f; fill-opacity: 1"></rect>
<rect width="1" height="1" x="1" y="27" style="fill: #57546f; fill-opacity: 1"></rect>
<rect width="1" height="1" x="2" y="27" style="fill: #57546f; fill-opacity: 1"></rect>
<rect width="1" height="1" x="3" y="27" style="fill: #57546f; fill-opacity: 1"></rect>
<rect width="1" height="1" x="4" y="27" style="fill: #57546f; fill-opacity: 1"></rect>
<rect width="1" height="1" x="0" y="28" style="fill: #57546f; fill-opacity: 1"></rect>
<rect width="1" height="1" x="1" y="28" style="fill: #57546f; fill-opacity: 1"></rect>
<rect width="1" height="1" x="2" y="28" style="fill: #57546f; fill-opacity: 1"></rect>
<rect width="1" height="1" x="3" y="28" style="fill: #57546f; fill-opacity: 1"></rect>
<rect width="1" height="1" x="4" y="28" style="fill: #57546f; fill-opacity: 1"></rect>
<rect width="1" height="1" x="0" y="29" style="fill: #57546f; fill-opacity: 1"></rect>
<rect width="1" height="1" x="1" y="29" style="fill: #57546f; fill-opacity: 1"></rect>
<rect width="1" height="1" x="2" y="29" style="fill: #57546f; fill-opacity: 1"></rect>
<rect width="1" height="1" x="3" y="29" style="fill: #57546f; fill-opacity: 1"></rect>
<rect width="1" height="1" x="4" y="29" style="fill: #57546f; fill-opacity: 1"></rect>
<rect width="1" height="1" x="0" y="30" style="fill: #57546f; fill-opacity: 1"></rect>
<rect width="1" height="1" x="1" y="30" style="fill: #57546f; fill-opacity: 1"></rect>
<rect width="1" height="1" x="2" y="30" style="fill: #57546f; fill-opacity: 1"></rect>
<rect width="1" height="1" x="3" y="30" style="fill: #57546f; fill-opacity: 1"></rect>
<rect width="1" height="1" x="4" y="30" style="fill: #57546f; fill-opacity: 1"></rect>
<rect width="1" height="1" x="0" y="31" style="fill: #57546f; fill-opacity: 1"></rect>
<rect width="1" height="1" x="1" y="31" style="fill: #57546f; fill-opacity: 1"></rect>
<rect width="1" height="1" x="2" y="31" style="fill: #57546f; fill-opacity: 1"></rect>
<rect width="1" height="1" x="3" y="31" style="fill: #57546f; fill-opacity: 1"></rect>
<rect width="1" height="1" x="4" y="31" style="fill: #57546f; fill-opacity: 1"></rect>
</svg>