<?xml version="1.0" encoding="utf-8"?>
<!DOCTYPE svg PUBLIC "-//W3C//DTD SVG 1.1//EN" "http://www.w3.org/Graphics/SVG/1.1/DTD/svg11.dtd"><svg version="1.1" id="Layer_1" xmlns="http://www.w3.org/2000/svg" xmlns:xlink="http://www.w3.org/1999/xlink" x="0px" y="0px"
	 width="32px" height="32px" viewBox="0 0 32 32" enable-background="new 0 0 32 32"
	 xml:space="preserve"><rect width="1" height="1" x="0" y="24" style="fill: #f2f2f0; fill-opacity: 1"></rect>
<rect width="1" height="1" x="0" y="25" style="fill: #f2f2f0; fill-opacity: 1"></rect>
<rect width="1" height="1" x="1" y="25" style="fill: #f2f2f0; fill-opacity: 1"></rect>
<rect width="1" height="1" x="0" y="26" style="fill: #23213d; fill-opacity: 1"></rect>
<rect width="1" height="1" x="1" y="26" style="fill: #f2f2f0; fill-opacity: 1"></rect>
<rect width="1" height="1" x="2" y="26" style="fill: #f2f2f0; fill-opacity: 1"></rect>
<rect width="1" height="1" x="0" y="27" style="fill: #23213d; fill-opacity: 1"></rect>
<rect width="1" height="1" x="1" y="27" style="fill: #23213d; fill-opacity: 1"></rect>
<rect width="1" height="1" x="2" y="27" style="fill: #f2f2f0; fill-opacity: 1"></rect>
<rect width="1" height="1" x="3" y="27" style="fill: #f2f2f0; fill-opacity: 1"></rect>
<rect width="1" height="1" x="0" y="28" style="fill: #23213d; fill-opacity: 1"></rect>
<rect width="1" height="1" x="1" y="28" style="fill: #23213d; fill-opacity: 1"></rect>
<rect width="1" height="1" x="2" y="28" style="fill: #23213d; fill-opacity: 1"></rect>
<rect width="1" height="1" x="3" y="28" style="fill: #f2f2f0; fill-opacity: 1"></rect>
<rect width="1" height="1" x="4" y="28" style="fill: #f2f2f0; fill-opacity: 1"></rect>
<rect width="1" height="1" x="0" y="29" style="fill: #23213d; fill-opacity: 1"></rect>
<rect width="1" height="1" x="1" y="29" style="fill: #23213d; fill-opacity: 1"></rect>
<rect width="1" height="1" x="2" y="29" style="fill: #23213d; fill-opacity: 1"></rect>
<rect width="1" height="1" x="3" y="29" style="fill: #23213d; fill-opacity: 1"></rect>
<rect width="1" height="1" x="4" y="29" style="fill: #f2f2f0; fill-opacity: 1"></rect>
<rect width="1" height="1" x="5" y="29" style="fill: #f2f2f0; fill-opacity: 1"></rect>
<rect width="1" height="1" x="0" y="30" style="fill: #23213d; fill-opacity: 1"></rect>
<rect width="1" height="1" x="1" y="30" style="fill: #23213d; fill-opacity: 1"></rect>
<rect width="1" height="1" x="2" y="30" style="fill: #23213d; fill-opacity: 1"></rect>
<rect width="1" height="1" x="3" y="30" style="fill: #23213d; fill-opacity: 1"></rect>
<rect width="1" height="1" x="4" y="30" style="fill: #23213d; fill-opacity: 1"></rect>
<rect width="1" height="1" x="5" y="30" style="fill: #f2f2f0; fill-opacity: 1"></rect>
<rect width="1" height="1" x="6" y="30" style="fill: #f2f2f0; fill-opacity: 1"></rect>
<rect width="1" height="1" x="0" y="31" style="fill: #23213d; fill-opacity: 1"></rect>
<rect width="1" height="1" x="1" y="31" style="fill: #23213d; fill-opacity: 1"></rect>
<rect width="1" height="1" x="2" y="31" style="fill: #23213d; fill-opacity: 1"></rect>
<rect width="1" height="1" x="3" y="31" style="fill: #23213d; fill-opacity: 1"></rect>
<rect width="1" height="1" x="4" y="31" style="fill: #23213d; fill-opacity: 1"></rect>
<rect width="1" height="1" x="5" y="31" style="fill: #23213d; fill-opacity: 1"></rect>
<rect width="1" height="1" x="6" y="31" style="fill: #f2f2f0; fill-opacity: 1"></rect>
<rect width="1" height="1" x="7" y="31" style="fill: #f2f2f0; fill-opacity: 1"></rect>
</svg>