<?xml version="1.0" encoding="utf-8"?>
<!DOCTYPE svg PUBLIC "-//W3C//DTD SVG 1.1//EN" "http://www.w3.org/Graphics/SVG/1.1/DTD/svg11.dtd"><svg version="1.1" id="Layer_1" xmlns="http://www.w3.org/2000/svg" xmlns:xlink="http://www.w3.org/1999/xlink" x="0px" y="0px"
	 width="32px" height="32px" viewBox="0 0 32 32" enable-background="new 0 0 32 32"
	 xml:space="preserve"><rect width="1" height="1" x="1" y="1" style="fill: #57546f; fill-opacity: 1"></rect>
<rect width="1" height="1" x="2" y="1" style="fill: #57546f; fill-opacity: 1"></rect>
<rect width="1" height="1" x="3" y="1" style="fill: #57546f; fill-opacity: 1"></rect>
<rect width="1" height="1" x="4" y="1" style="fill: #57546f; fill-opacity: 1"></rect>
<rect width="1" height="1" x="5" y="1" style="fill: #57546f; fill-opacity: 1"></rect>
<rect width="1" height="1" x="6" y="1" style="fill: #57546f; fill-opacity: 1"></rect>
<rect width="1" height="1" x="7" y="1" style="fill: #57546f; fill-opacity: 1"></rect>
<rect width="1" height="1" x="8" y="1" style="fill: #57546f; fill-opacity: 1"></rect>
<rect width="1" height="1" x="23" y="1" style="fill: #57546f; fill-opacity: 1"></rect>
<rect width="1" height="1" x="24" y="1" style="fill: #57546f; fill-opacity: 1"></rect>
<rect width="1" height="1" x="25" y="1" style="fill: #57546f; fill-opacity: 1"></rect>
<rect width="1" height="1" x="26" y="1" style="fill: #57546f; fill-opacity: 1"></rect>
<rect width="1" height="1" x="27" y="1" style="fill: #57546f; fill-opacity: 1"></rect>
<rect width="1" height="1" x="28" y="1" style="fill: #57546f; fill-opacity: 1"></rect>
<rect width="1" height="1" x="29" y="1" style="fill: #57546f; fill-opacity: 1"></rect>
<rect width="1" height="1" x="30" y="1" style="fill: #57546f; fill-opacity: 1"></rect>
<rect width="1" height="1" x="1" y="2" style="fill: #57546f; fill-opacity: 1"></rect>
<rect width="1" height="1" x="2" y="2" style="fill: #57546f; fill-opacity: 1"></rect>
<rect width="1" height="1" x="3" y="2" style="fill: #57546f; fill-opacity: 1"></rect>
<rect width="1" height="1" x="4" y="2" style="fill: #57546f; fill-opacity: 1"></rect>
<rect width="1" height="1" x="5" y="2" style="fill: #57546f; fill-opacity: 1"></rect>
<rect width="1" height="1" x="6" y="2" style="fill: #57546f; fill-opacity: 1"></rect>
<rect width="1" height="1" x="7" y="2" style="fill: #57546f; fill-opacity: 1"></rect>
<rect width="1" height="1" x="8" y="2" style="fill: #57546f; fill-opacity: 1"></rect>
<rect width="1" height="1" x="23" y="2" style="fill: #57546f; fill-opacity: 1"></rect>
<rect width="1" height="1" x="24" y="2" style="fill: #57546f; fill-opacity: 1"></rect>
<rect width="1" height="1" x="25" y="2" style="fill: #57546f; fill-opacity: 1"></rect>
<rect width="1" height="1" x="26" y="2" style="fill: #57546f; fill-opacity: 1"></rect>
<rect width="1" height="1" x="27" y="2" style="fill: #57546f; fill-opacity: 1"></rect>
<rect width="1" height="1" x="28" y="2" style="fill: #57546f; fill-opacity: 1"></rect>
<rect width="1" height="1" x="29" y="2" style="fill: #57546f; fill-opacity: 1"></rect>
<rect width="1" height="1" x="30" y="2" style="fill: #57546f; fill-opacity: 1"></rect>
<rect width="1" height="1" x="1" y="3" style="fill: #57546f; fill-opacity: 1"></rect>
<rect width="1" height="1" x="2" y="3" style="fill: #57546f; fill-opacity: 1"></rect>
<rect width="1" height="1" x="3" y="3" style="fill: #57546f; fill-opacity: 1"></rect>
<rect width="1" height="1" x="4" y="3" style="fill: #57546f; fill-opacity: 1"></rect>
<rect width="1" height="1" x="5" y="3" style="fill: #57546f; fill-opacity: 1"></rect>
<rect width="1" height="1" x="26" y="3" style="fill: #57546f; fill-opacity: 1"></rect>
<rect width="1" height="1" x="27" y="3" style="fill: #57546f; fill-opacity: 1"></rect>
<rect width="1" height="1" x="28" y="3" style="fill: #57546f; fill-opacity: 1"></rect>
<rect width="1" height="1" x="29" y="3" style="fill: #57546f; fill-opacity: 1"></rect>
<rect width="1" height="1" x="30" y="3" style="fill: #57546f; fill-opacity: 1"></rect>
<rect width="1" height="1" x="1" y="4" style="fill: #57546f; fill-opacity: 1"></rect>
<rect width="1" height="1" x="2" y="4" style="fill: #57546f; fill-opacity: 1"></rect>
<rect width="1" height="1" x="3" y="4" style="fill: #57546f; fill-opacity: 1"></rect>
<rect width="1" height="1" x="28" y="4" style="fill: #57546f; fill-opacity: 1"></rect>
<rect width="1" height="1" x="29" y="4" style="fill: #57546f; fill-opacity: 1"></rect>
<rect width="1" height="1" x="30" y="4" style="fill: #57546f; fill-opacity: 1"></rect>
<rect width="1" height="1" x="1" y="5" style="fill: #57546f; fill-opacity: 1"></rect>
<rect width="1" height="1" x="2" y="5" style="fill: #57546f; fill-opacity: 1"></rect>
<rect width="1" height="1" x="3" y="5" style="fill: #57546f; fill-opacity: 1"></rect>
<rect width="1" height="1" x="28" y="5" style="fill: #57546f; fill-opacity: 1"></rect>
<rect width="1" height="1" x="29" y="5" style="fill: #57546f; fill-opacity: 1"></rect>
<rect width="1" height="1" x="30" y="5" style="fill: #57546f; fill-opacity: 1"></rect>
<rect width="1" height="1" x="1" y="6" style="fill: #57546f; fill-opacity: 1"></rect>
<rect width="1" height="1" x="2" y="6" style="fill: #57546f; fill-opacity: 1"></rect>
<rect width="1" height="1" x="29" y="6" style="fill: #57546f; fill-opacity: 1"></rect>
<rect width="1" height="1" x="30" y="6" style="fill: #57546f; fill-opacity: 1"></rect>
<rect width="1" height="1" x="1" y="7" style="fill: #57546f; fill-opacity: 1"></rect>
<rect width="1" height="1" x="2" y="7" style="fill: #57546f; fill-opacity: 1"></rect>
<rect width="1" height="1" x="29" y="7" style="fill: #57546f; fill-opacity: 1"></rect>
<rect width="1" height="1" x="30" y="7" style="fill: #57546f; fill-opacity: 1"></rect>
<rect width="1" height="1" x="1" y="8" style="fill: #57546f; fill-opacity: 1"></rect>
<rect width="1" height="1" x="2" y="8" style="fill: #57546f; fill-opacity: 1"></rect>
<rect width="1" height="1" x="29" y="8" style="fill: #57546f; fill-opacity: 1"></rect>
<rect width="1" height="1" x="30" y="8" style="fill: #57546f; fill-opacity: 1"></rect>
<rect width="1" height="1" x="1" y="23" style="fill: #57546f; fill-opacity: 1"></rect>
<rect width="1" height="1" x="2" y="23" style="fill: #57546f; fill-opacity: 1"></rect>
<rect width="1" height="1" x="29" y="23" style="fill: #57546f; fill-opacity: 1"></rect>
<rect width="1" height="1" x="30" y="23" style="fill: #57546f; fill-opacity: 1"></rect>
<rect width="1" height="1" x="1" y="24" style="fill: #57546f; fill-opacity: 1"></rect>
<rect width="1" height="1" x="2" y="24" style="fill: #57546f; fill-opacity: 1"></rect>
<rect width="1" height="1" x="29" y="24" style="fill: #57546f; fill-opacity: 1"></rect>
<rect width="1" height="1" x="30" y="24" style="fill: #57546f; fill-opacity: 1"></rect>
<rect width="1" height="1" x="1" y="25" style="fill: #57546f; fill-opacity: 1"></rect>
<rect width="1" height="1" x="2" y="25" style="fill: #57546f; fill-opacity: 1"></rect>
<rect width="1" height="1" x="29" y="25" style="fill: #57546f; fill-opacity: 1"></rect>
<rect width="1" height="1" x="30" y="25" style="fill: #57546f; fill-opacity: 1"></rect>
<rect width="1" height="1" x="1" y="26" style="fill: #57546f; fill-opacity: 1"></rect>
<rect width="1" height="1" x="2" y="26" style="fill: #57546f; fill-opacity: 1"></rect>
<rect width="1" height="1" x="3" y="26" style="fill: #57546f; fill-opacity: 1"></rect>
<rect width="1" height="1" x="28" y="26" style="fill: #57546f; fill-opacity: 1"></rect>
<rect width="1" height="1" x="29" y="26" style="fill: #57546f; fill-opacity: 1"></rect>
<rect width="1" height="1" x="30" y="26" style="fill: #57546f; fill-opacity: 1"></rect>
<rect width="1" height="1" x="1" y="27" style="fill: #57546f; fill-opacity: 1"></rect>
<rect width="1" height="1" x="2" y="27" style="fill: #57546f; fill-opacity: 1"></rect>
<rect width="1" height="1" x="3" y="27" style="fill: #57546f; fill-opacity: 1"></rect>
<rect width="1" height="1" x="28" y="27" style="fill: #57546f; fill-opacity: 1"></rect>
<rect width="1" height="1" x="29" y="27" style="fill: #57546f; fill-opacity: 1"></rect>
<rect width="1" height="1" x="30" y="27" style="fill: #57546f; fill-opacity: 1"></rect>
<rect width="1" height="1" x="1" y="28" style="fill: #57546f; fill-opacity: 1"></rect>
<rect width="1" height="1" x="2" y="28" style="fill: #57546f; fill-opacity: 1"></rect>
<rect width="1" height="1" x="3" y="28" style="fill: #57546f; fill-opacity: 1"></rect>
<rect width="1" height="1" x="4" y="28" style="fill: #57546f; fill-opacity: 1"></rect>
<rect width="1" height="1" x="5" y="28" style="fill: #57546f; fill-opacity: 1"></rect>
<rect width="1" height="1" x="26" y="28" style="fill: #57546f; fill-opacity: 1"></rect>
<rect width="1" height="1" x="27" y="28" style="fill: #57546f; fill-opacity: 1"></rect>
<rect width="1" height="1" x="28" y="28" style="fill: #57546f; fill-opacity: 1"></rect>
<rect width="1" height="1" x="29" y="28" style="fill: #57546f; fill-opacity: 1"></rect>
<rect width="1" height="1" x="30" y="28" style="fill: #57546f; fill-opacity: 1"></rect>
<rect width="1" height="1" x="1" y="29" style="fill: #57546f; fill-opacity: 1"></rect>
<rect width="1" height="1" x="2" y="29" style="fill: #57546f; fill-opacity: 1"></rect>
<rect width="1" height="1" x="3" y="29" style="fill: #57546f; fill-opacity: 1"></rect>
<rect width="1" height="1" x="4" y="29" style="fill: #57546f; fill-opacity: 1"></rect>
<rect width="1" height="1" x="5" y="29" style="fill: #57546f; fill-opacity: 1"></rect>
<rect width="1" height="1" x="6" y="29" style="fill: #57546f; fill-opacity: 1"></rect>
<rect width="1" height="1" x="7" y="29" style="fill: #57546f; fill-opacity: 1"></rect>
<rect width="1" height="1" x="8" y="29" style="fill: #57546f; fill-opacity: 1"></rect>
<rect width="1" height="1" x="23" y="29" style="fill: #57546f; fill-opacity: 1"></rect>
<rect width="1" height="1" x="24" y="29" style="fill: #57546f; fill-opacity: 1"></rect>
<rect width="1" height="1" x="25" y="29" style="fill: #57546f; fill-opacity: 1"></rect>
<rect width="1" height="1" x="26" y="29" style="fill: #57546f; fill-opacity: 1"></rect>
<rect width="1" height="1" x="27" y="29" style="fill: #57546f; fill-opacity: 1"></rect>
<rect width="1" height="1" x="28" y="29" style="fill: #57546f; fill-opacity: 1"></rect>
<rect width="1" height="1" x="29" y="29" style="fill: #57546f; fill-opacity: 1"></rect>
<rect width="1" height="1" x="30" y="29" style="fill: #57546f; fill-opacity: 1"></rect>
<rect width="1" height="1" x="1" y="30" style="fill: #57546f; fill-opacity: 1"></rect>
<rect width="1" height="1" x="2" y="30" style="fill: #57546f; fill-opacity: 1"></rect>
<rect width="1" height="1" x="3" y="30" style="fill: #57546f; fill-opacity: 1"></rect>
<rect width="1" height="1" x="4" y="30" style="fill: #57546f; fill-opacity: 1"></rect>
<rect width="1" height="1" x="5" y="30" style="fill: #57546f; fill-opacity: 1"></rect>
<rect width="1" height="1" x="6" y="30" style="fill: #57546f; fill-opacity: 1"></rect>
<rect width="1" height="1" x="7" y="30" style="fill: #57546f; fill-opacity: 1"></rect>
<rect width="1" height="1" x="8" y="30" style="fill: #57546f; fill-opacity: 1"></rect>
<rect width="1" height="1" x="23" y="30" style="fill: #57546f; fill-opacity: 1"></rect>
<rect width="1" height="1" x="24" y="30" style="fill: #57546f; fill-opacity: 1"></rect>
<rect width="1" height="1" x="25" y="30" style="fill: #57546f; fill-opacity: 1"></rect>
<rect width="1" height="1" x="26" y="30" style="fill: #57546f; fill-opacity: 1"></rect>
<rect width="1" height="1" x="27" y="30" style="fill: #57546f; fill-opacity: 1"></rect>
<rect width="1" height="1" x="28" y="30" style="fill: #57546f; fill-opacity: 1"></rect>
<rect width="1" height="1" x="29" y="30" style="fill: #57546f; fill-opacity: 1"></rect>
<rect width="1" height="1" x="30" y="30" style="fill: #57546f; fill-opacity: 1"></rect>
</svg>